<?xml version="1.0" encoding="UTF-8" standalone="no"?>
<!-- Created with Inkscape (http://www.inkscape.org/) -->

<svg
   xmlns:dc="http://purl.org/dc/elements/1.1/"
   xmlns:cc="http://creativecommons.org/ns#"
   xmlns:rdf="http://www.w3.org/1999/02/22-rdf-syntax-ns#"
   xmlns:svg="http://www.w3.org/2000/svg"
   xmlns="http://www.w3.org/2000/svg"
   xmlns:sodipodi="http://sodipodi.sourceforge.net/DTD/sodipodi-0.dtd"
   xmlns:inkscape="http://www.inkscape.org/namespaces/inkscape"
   width="135.31136mm"
   height="33.136688mm"
   viewBox="0 0 479.44969 117.41347"
   id="svg3339"
   version="1.1"
   inkscape:version="0.91 r13725"
   sodipodi:docname="LTDEBphrase.svg">
  <defs
     id="defs3341" />
  <sodipodi:namedview
     id="base"
     pagecolor="#ffffff"
     bordercolor="#666666"
     borderopacity="1.0"
     inkscape:pageopacity="0.0"
     inkscape:pageshadow="2"
     inkscape:zoom="2.1074199"
     inkscape:cx="284.94401"
     inkscape:cy="55.163414"
     inkscape:document-units="px"
     inkscape:current-layer="layer1"
     showgrid="false"
     fit-margin-top="0"
     fit-margin-left="0"
     fit-margin-right="0"
     fit-margin-bottom="0"
     inkscape:window-width="1440"
     inkscape:window-height="837"
     inkscape:window-x="-4"
     inkscape:window-y="-4"
     inkscape:window-maximized="1" />
  <metadata
     id="metadata3344">
    <rdf:RDF>
      <cc:Work
         rdf:about="">
        <dc:format>image/svg+xml</dc:format>
        <dc:type
           rdf:resource="http://purl.org/dc/dcmitype/StillImage" />
        <dc:title></dc:title>
      </cc:Work>
    </rdf:RDF>
  </metadata>
  <g
     inkscape:label="Layer 1"
     inkscape:groupmode="layer"
     id="layer1"
     transform="translate(-165.0307,-460.20303)">
    <g
       style="font-style:normal;font-weight:normal;font-size:51.64557266px;line-height:125%;font-family:sans-serif;letter-spacing:0px;word-spacing:0px;fill:#ffcc00;fill-opacity:1;stroke:none;stroke-width:1px;stroke-linecap:butt;stroke-linejoin:miter;stroke-opacity:1"
       id="text3347">
      <path
         d="m 265.55214,471.54473 q 0,2.59741 -2.09305,4.36264 -1.99219,1.68957 -4.61482,1.68957 -2.95045,0 -4.91742,-1.94175 -1.96697,-1.94175 -1.74002,-4.89221 -0.80696,-0.10087 -2.42088,0.63044 -3.5809,1.61393 -4.38786,11.97834 -0.83218,10.23834 -11.92791,14.04619 l 29.88282,0 q -1.08436,4.03481 -6.75831,4.03481 l -46.27423,0 q 2.11827,-6.10265 5.22003,-6.10265 1.38697,0 4.81656,1.10957 3.42959,1.10957 4.94264,1.10957 4.33742,0 7.08614,-7.89309 l 4.00959,-11.6253 q 4.38786,-12.65922 21.86363,-12.65922 2.92524,0 5.0183,1.56349 2.29479,1.74001 2.29479,4.5896 z"
         style="font-style:normal;font-variant:normal;font-weight:bold;font-stretch:semi-expanded;font-family:Magneto;-inkscape-font-specification:'Magneto Bold Semi-Expanded';fill:#ffcc00;fill-opacity:1"
         id="path4699" />
      <path
         d="m 280.75834,473.96561 q 0,2.52176 -1.96698,4.28699 -1.94175,1.76523 -4.69046,1.76523 -2.79915,0 -4.76612,-1.76523 -1.94175,-1.76523 -1.94175,-4.28699 0,-2.49654 1.94175,-4.26177 1.96697,-1.76522 4.76612,-1.76522 2.74871,0 4.69046,1.76522 1.96698,1.76523 1.96698,4.26177 z m 1.81566,23.45234 q -0.65566,2.21914 -2.7235,3.27828 -1.48783,0.75653 -3.22785,0.75653 l -9.96093,0 q -3.60612,0 -3.60612,-3.02611 0,-0.8574 0.35305,-1.84088 l 4.38786,-12.28096 9.15397,0 -4.66525,13.11314 10.28877,0 z"
         style="font-style:normal;font-variant:normal;font-weight:bold;font-stretch:semi-expanded;font-family:Magneto;-inkscape-font-specification:'Magneto Bold Semi-Expanded';fill:#ffcc00;fill-opacity:1"
         id="path4701" />
      <path
         d="m 320.476,484.30481 q -0.63044,2.21915 -2.90002,3.27829 -1.58871,0.75653 -3.40437,0.75653 l -10.59138,0 -10.66703,13.11313 -10.08702,0 -1.08436,-17.14795 9.15398,0 0.1513,12.40705 9.45659,-12.40705 19.97231,0 z"
         style="font-style:normal;font-variant:normal;font-weight:bold;font-stretch:semi-expanded;font-family:Magneto;-inkscape-font-specification:'Magneto Bold Semi-Expanded';fill:#ffcc00;fill-opacity:1"
         id="path4703" />
      <path
         d="m 340.65005,497.41795 q -0.52957,1.94175 -2.42089,3.05132 -1.68958,0.98349 -3.85829,0.98349 l -14.04618,0 q -12.25574,0 -12.25574,-7.38875 0,-4.7409 4.18612,-7.43918 3.60611,-2.32002 8.57397,-2.32002 l 3.65655,0 q 3.20263,0 5.62352,0.98349 3.22784,1.31131 3.37915,3.98438 0.12609,2.69827 -2.59741,4.48872 l -8.34701,0 2.72349,-5.42177 -5.3209,0 -2.06784,6.07743 q -0.17653,0.52957 -0.17653,0.95827 0,2.04262 3.27829,2.04262 l 19.6697,0 z"
         style="font-style:normal;font-variant:normal;font-weight:bold;font-stretch:semi-expanded;font-family:Magneto;-inkscape-font-specification:'Magneto Bold Semi-Expanded';fill:#ffcc00;fill-opacity:1"
         id="path4705" />
      <path
         d="m 382.71296,497.41795 q -1.18523,4.03481 -6.3044,4.03481 l -12.86095,0 q -3.7322,0 -3.7322,-2.62263 0,-0.65565 0.27739,-1.41218 l 3.20263,-9.07832 -4.13568,0 1.58871,-4.03482 q 4.41307,-1.13479 6.55656,-2.90002 2.42089,-1.99218 5.1696,-7.21222 l 4.91743,0 -3.55568,10.11224 6.50613,0 q -1.56348,4.03482 -6.35482,4.03482 l -1.66436,0 -3.1522,9.07832 13.54184,0 z"
         style="font-style:normal;font-variant:normal;font-weight:bold;font-stretch:semi-expanded;font-family:Magneto;-inkscape-font-specification:'Magneto Bold Semi-Expanded';fill:#ffcc00;fill-opacity:1"
         id="path4707" />
      <path
         d="m 425.60802,484.30481 q -1.0087,4.03482 -6.05221,4.03482 l -15.7862,0 q 0.83218,0.55478 1.36175,2.04262 0.52957,1.46262 0.4287,2.54697 -0.35305,4.21134 -3.70698,6.607 -3.20263,2.2948 -8.3218,2.32002 -5.95134,0.0504 -9.15397,-2.34523 -2.84959,-2.11828 -2.84959,-5.57309 0,-0.68087 0.12609,-1.36174 0.65566,-3.80786 3.78263,-5.97657 3.32872,-2.2948 8.87659,-2.2948 l 31.29499,0 z m -27.48714,4.03482 -5.77482,0 -2.26958,6.45569 q -0.17653,0.50435 -0.17653,0.95827 0,2.16871 4.03481,2.16871 0.47914,0 0.83218,-0.0252 l 3.35394,-9.55745 z"
         style="font-style:normal;font-variant:normal;font-weight:bold;font-stretch:semi-expanded;font-family:Magneto;-inkscape-font-specification:'Magneto Bold Semi-Expanded';fill:#ffcc00;fill-opacity:1"
         id="path4709" />
      <path
         d="m 466.23352,497.41795 q -1.26087,4.03481 -6.1783,4.03481 l -9.60789,0 q -4.1609,0 -4.08525,-2.62263 -2.77393,3.25307 -7.43918,3.25307 -3.05132,0 -4.94264,-1.7148 -1.96697,-1.76523 -1.96697,-4.79133 0,-5.47222 4.43829,-8.57398 3.90872,-2.69828 9.60789,-2.69828 l 5.24525,0 4.71569,-13.31487 9.17919,0 -9.38093,26.42801 10.41485,0 z m -16.31576,-9.07832 -6.40526,0 -1.91654,5.42177 q -0.25217,0.75653 -0.25217,1.36175 0,1.68958 2.14349,2.14349 0.75653,0.15131 3.22785,0.15131 l 3.20263,-9.07832 z"
         style="font-style:normal;font-variant:normal;font-weight:bold;font-stretch:semi-expanded;font-family:Magneto;-inkscape-font-specification:'Magneto Bold Semi-Expanded';fill:#ffcc00;fill-opacity:1"
         id="path4711" />
      <path
         d="m 495.63722,497.41795 q 0,1.76523 -1.94175,2.97567 -1.7148,1.05914 -3.5809,1.05914 l -9.65832,0 q -3.83307,0 -3.83307,-3.17741 0,-0.80697 0.32783,-1.74002 l 2.84958,-8.1957 -5.37134,0 -2.79915,7.23744 q -0.70609,1.84088 -3.05133,1.84088 l -2.67306,0 3.3035,-9.07832 q -1.56349,-0.35305 -2.54697,-1.56349 -0.95827,-1.23566 -0.95827,-2.82437 0,-2.90002 2.69828,-4.48873 2.24436,-1.31131 5.34612,-1.31131 l 4.08525,0 -2.11828,6.15308 13.94532,0 -4.5896,13.11314 10.56616,0 z"
         style="font-style:normal;font-variant:normal;font-weight:bold;font-stretch:semi-expanded;font-family:Magneto;-inkscape-font-specification:'Magneto Bold Semi-Expanded';fill:#ffcc00;fill-opacity:1"
         id="path4713" />
      <path
         d="m 513.06253,473.96561 q 0,2.52176 -1.96697,4.28699 -1.94175,1.76523 -4.69046,1.76523 -2.79915,0 -4.76612,-1.76523 -1.94176,-1.76523 -1.94176,-4.28699 0,-2.49654 1.94176,-4.26177 1.96697,-1.76522 4.76612,-1.76522 2.74871,0 4.69046,1.76522 1.96697,1.76523 1.96697,4.26177 z m 1.81567,23.45234 q -0.65566,2.21914 -2.7235,3.27828 -1.48783,0.75653 -3.22785,0.75653 l -9.96093,0 q -3.60612,0 -3.60612,-3.02611 0,-0.8574 0.35305,-1.84088 l 4.38786,-12.28096 9.15397,0 -4.66525,13.11314 10.28877,0 z"
         style="font-style:normal;font-variant:normal;font-weight:bold;font-stretch:semi-expanded;font-family:Magneto;-inkscape-font-specification:'Magneto Bold Semi-Expanded';fill:#ffcc00;fill-opacity:1"
         id="path4715" />
      <path
         d="m 549.47671,497.41795 q -0.65565,2.21914 -2.90002,3.27828 -1.5887,0.75653 -3.40437,0.75653 l -10.06181,0 q -3.4548,0 -3.4548,-2.26958 0,-0.75653 0.35304,-1.76523 l 1.91654,-5.42178 -8.67484,7.33831 q -3.05133,2.11828 -5.0183,2.11828 l -4.64003,0 6.027,-17.14795 9.10354,0 -2.84959,8.06963 7.69136,-6.3044 q 3.12698,-2.54697 6.78353,-2.4461 2.47132,0.10087 2.47132,2.62263 0,0.93305 -0.40348,2.09306 l -3.25307,9.07832 10.31398,0 z"
         style="font-style:normal;font-variant:normal;font-weight:bold;font-stretch:semi-expanded;font-family:Magneto;-inkscape-font-specification:'Magneto Bold Semi-Expanded';fill:#ffcc00;fill-opacity:1"
         id="path4717" />
      <path
         d="m 583.82302,497.41795 q -0.63044,2.21914 -2.90002,3.27828 -1.58871,0.75653 -3.40437,0.75653 l -9.91051,0 q -3.4548,0 -3.4548,-2.67306 0,-0.83218 0.35304,-1.81567 l 2.59741,-7.0357 q -1.16001,1.21044 -9.25485,8.42267 -1.99218,1.81566 -3.0261,2.37045 -1.36175,0.73131 -3.27829,0.73131 l -3.75741,0 10.74268,-30.41238 9.07832,0 -6.70787,18.83752 10.06181,-10.01138 5.80004,0 -5.85048,6.05222 1.91654,0 q 3.50524,0 3.50524,2.69828 0,0.8574 -0.40348,1.99219 l -2.47132,6.80874 10.36442,0 z"
         style="font-style:normal;font-variant:normal;font-weight:bold;font-stretch:semi-expanded;font-family:Magneto;-inkscape-font-specification:'Magneto Bold Semi-Expanded';fill:#ffcc00;fill-opacity:1"
         id="path4719" />
      <path
         d="m 202.35693,561.97491 q -0.52957,1.94176 -2.42089,3.05133 -1.68958,0.98348 -3.85829,0.98348 l -14.04618,0 q -12.25574,0 -12.25574,-7.38874 0,-4.7409 4.18612,-7.43918 3.60611,-2.32002 8.57397,-2.32002 l 3.65655,0 q 3.20263,0 5.62351,0.98349 3.22785,1.31131 3.37916,3.98437 0.12609,2.69828 -2.59741,4.48873 l -8.34702,0 2.7235,-5.42178 -5.3209,0 -2.06784,6.07743 q -0.17653,0.52957 -0.17653,0.95827 0,2.04262 3.27829,2.04262 l 19.6697,0 z"
         style="font-style:normal;font-variant:normal;font-weight:bold;font-stretch:semi-expanded;font-family:Magneto;-inkscape-font-specification:'Magneto Bold Semi-Expanded';fill:#ffcc00;fill-opacity:1"
         id="path4721" />
      <path
         d="m 228.1545,548.86178 -9.96094,7.28788 6.55656,9.86006 -10.23833,0 -3.25306,-4.79133 -6.60701,4.79133 -7.89309,0 11.82704,-8.72527 -5.72439,-8.42267 10.51572,0 2.16871,3.25307 4.38786,-3.25307 8.22093,0 z"
         style="font-style:normal;font-variant:normal;font-weight:bold;font-stretch:semi-expanded;font-family:Magneto;-inkscape-font-specification:'Magneto Bold Semi-Expanded';fill:#ffcc00;fill-opacity:1"
         id="path4723" />
      <path
         d="m 258.89471,561.97491 q -0.55479,1.96697 -2.32002,3.05133 -1.61392,0.98348 -3.75742,0.98348 l -15.18097,0 q -4.33742,0 -7.28788,-1.46261 -3.7322,-1.84089 -3.7322,-5.54787 0,-0.40348 0.0504,-0.83218 0.50435,-4.51394 4.69047,-7.06092 3.68176,-2.24436 8.70006,-2.24436 l 6.35482,0 q 2.1435,0 3.65655,1.36175 1.51305,1.36175 1.51305,3.32872 0,1.99219 -1.53827,3.37915 -1.51305,1.38697 -3.63133,1.38697 -2.14349,0 -3.65654,-1.38697 -1.48784,-1.41218 -1.46262,-3.42959 0,0 0,-0.60522 l -3.05133,0 -1.96697,5.57308 q -0.25217,0.70609 -0.25217,1.2861 0,2.21914 3.50524,2.21914 l 19.36709,0 z"
         style="font-style:normal;font-variant:normal;font-weight:bold;font-stretch:semi-expanded;font-family:Magneto;-inkscape-font-specification:'Magneto Bold Semi-Expanded';fill:#ffcc00;fill-opacity:1"
         id="path4725" />
      <path
         d="m 290.21493,561.97491 q -0.52957,1.94176 -2.42089,3.05133 -1.68958,0.98348 -3.85829,0.98348 l -14.04618,0 q -12.25574,0 -12.25574,-7.38874 0,-4.7409 4.18612,-7.43918 3.60611,-2.32002 8.57397,-2.32002 l 3.65655,0 q 3.20263,0 5.62352,0.98349 3.22784,1.31131 3.37915,3.98437 0.12609,2.69828 -2.59741,4.48873 l -8.34701,0 2.72349,-5.42178 -5.3209,0 -2.06784,6.07743 q -0.17653,0.52957 -0.17653,0.95827 0,2.04262 3.27829,2.04262 l 19.6697,0 z"
         style="font-style:normal;font-variant:normal;font-weight:bold;font-stretch:semi-expanded;font-family:Magneto;-inkscape-font-specification:'Magneto Bold Semi-Expanded';fill:#ffcc00;fill-opacity:1"
         id="path4727" />
      <path
         d="m 323.09863,561.97491 q -0.22696,1.94176 -2.04262,3.05133 -1.61393,0.98348 -3.80786,0.98348 l -13.74357,0 q -3.10176,0 -3.17741,-3.20263 1.16001,-0.47913 2.34523,-0.93305 1.66436,-0.75652 2.52176,-1.84088 1.16001,-1.4374 1.16001,-3.68176 0,-1.38697 -1.2861,-2.44611 -1.2861,-1.05913 -2.84958,-1.0087 l -7.8931,22.8219 -9.15398,0 11.37312,-32.95936 9.12876,0 -2.09306,6.10265 q 5.67396,0 7.51484,0.52957 4.48872,1.23566 4.3122,5.77482 -0.10087,2.01741 -1.79045,4.06003 -1.74001,2.11828 -4.00959,2.74871 l 13.4914,0 z"
         style="font-style:normal;font-variant:normal;font-weight:bold;font-stretch:semi-expanded;font-family:Magneto;-inkscape-font-specification:'Magneto Bold Semi-Expanded';fill:#ffcc00;fill-opacity:1"
         id="path4729" />
      <path
         d="m 345.5927,561.97491 q -1.18522,4.03481 -6.30439,4.03481 l -12.86096,0 q -3.7322,0 -3.7322,-2.62262 0,-0.65566 0.2774,-1.41219 l 3.20263,-9.07832 -4.13568,0 1.5887,-4.03481 q 4.41308,-1.13479 6.55657,-2.90002 2.42089,-1.99219 5.1696,-7.21222 l 4.91742,0 -3.55567,10.11224 6.50613,0 q -1.56349,4.03481 -6.35483,4.03481 l -1.66436,0 -3.15219,9.07832 13.54183,0 z"
         style="font-style:normal;font-variant:normal;font-weight:bold;font-stretch:semi-expanded;font-family:Magneto;-inkscape-font-specification:'Magneto Bold Semi-Expanded';fill:#ffcc00;fill-opacity:1"
         id="path4731" />
      <path
         d="m 362.96759,538.52258 q 0,2.52176 -1.96697,4.28699 -1.94175,1.76522 -4.69046,1.76522 -2.79915,0 -4.76612,-1.76522 -1.94176,-1.76523 -1.94176,-4.28699 0,-2.49654 1.94176,-4.26177 1.96697,-1.76523 4.76612,-1.76523 2.74871,0 4.69046,1.76523 1.96697,1.76523 1.96697,4.26177 z m 1.81567,23.45233 q -0.65566,2.21915 -2.7235,3.27829 -1.48783,0.75652 -3.22785,0.75652 l -9.96093,0 q -3.60612,0 -3.60612,-3.0261 0,-0.8574 0.35305,-1.84089 l 4.38786,-12.28095 9.15397,0 -4.66525,13.11313 10.28877,0 z"
         style="font-style:normal;font-variant:normal;font-weight:bold;font-stretch:semi-expanded;font-family:Magneto;-inkscape-font-specification:'Magneto Bold Semi-Expanded';fill:#ffcc00;fill-opacity:1"
         id="path4733" />
      <path
         d="m 407.75399,548.86178 q -1.0087,4.03481 -6.05222,4.03481 l -15.78619,0 q 0.83218,0.55479 1.36175,2.04262 0.52957,1.46262 0.4287,2.54698 -0.35305,4.21133 -3.70699,6.607 -3.20263,2.2948 -8.32179,2.32002 -5.95135,0.0504 -9.15398,-2.34524 -2.84958,-2.11827 -2.84958,-5.57308 0,-0.68087 0.12608,-1.36175 0.65566,-3.80785 3.78264,-5.97656 3.32872,-2.2948 8.87658,-2.2948 l 31.295,0 z m -27.48715,4.03481 -5.77482,0 -2.26958,6.4557 q -0.17652,0.50435 -0.17652,0.95826 0,2.16872 4.03481,2.16872 0.47913,0 0.83218,-0.0252 l 3.35393,-9.55746 z"
         style="font-style:normal;font-variant:normal;font-weight:bold;font-stretch:semi-expanded;font-family:Magneto;-inkscape-font-specification:'Magneto Bold Semi-Expanded';fill:#ffcc00;fill-opacity:1"
         id="path4735" />
      <path
         d="m 429.4411,561.97491 q -0.65566,2.21915 -2.90002,3.27829 -1.58871,0.75652 -3.40437,0.75652 l -10.06181,0 q -3.45481,0 -3.45481,-2.26958 0,-0.75652 0.35305,-1.76523 l 1.91653,-5.42177 -8.67484,7.33831 q -3.05132,2.11827 -5.01829,2.11827 l -4.64004,0 6.027,-17.14794 9.10354,0 -2.84958,8.06962 7.69136,-6.30439 q 3.12697,-2.54697 6.78352,-2.4461 2.47132,0.10087 2.47132,2.62262 0,0.93305 -0.40348,2.09306 l -3.25306,9.07832 10.31398,0 z"
         style="font-style:normal;font-variant:normal;font-weight:bold;font-stretch:semi-expanded;font-family:Magneto;-inkscape-font-specification:'Magneto Bold Semi-Expanded';fill:#ffcc00;fill-opacity:1"
         id="path4737" />
      <path
         d="m 461.77003,561.97491 q -1.21045,4.03481 -6.17831,4.03481 l -9.55745,0 q -4.08525,0 -4.08525,-2.62262 -2.74871,3.12698 -6.75831,3.12698 -2.95045,0 -4.79133,-1.81567 -1.84088,-1.81566 -1.84088,-4.7409 0,-5.27047 4.03481,-8.3218 3.65654,-2.77393 9.0531,-2.77393 l 14.39923,0 -4.7409,13.11313 10.46529,0 z m -16.26533,-9.07832 -5.57308,0 -1.76523,5.87569 q -0.15131,0.55479 -0.15131,1.00871 0,2.19392 4.28699,2.19392 l 3.20263,-9.07832 z"
         style="font-style:normal;font-variant:normal;font-weight:bold;font-stretch:semi-expanded;font-family:Magneto;-inkscape-font-specification:'Magneto Bold Semi-Expanded';fill:#ffcc00;fill-opacity:1"
         id="path4739" />
      <path
         d="m 481.28841,561.97491 q -0.63043,2.21915 -2.90002,3.27829 -1.5887,0.75652 -3.40437,0.75652 l -9.70876,0 q -3.7322,0 -3.7322,-2.54697 0,-0.65566 0.27739,-1.48784 l 9.35572,-26.37757 8.92702,0 -9.40615,26.37757 10.59137,0 z"
         style="font-style:normal;font-variant:normal;font-weight:bold;font-stretch:semi-expanded;font-family:Magneto;-inkscape-font-specification:'Magneto Bold Semi-Expanded';fill:#ffcc00;fill-opacity:1"
         id="path4741" />
      <path
         d="m 546.55148,548.86178 q -1.66436,4.03481 -5.57309,4.03481 l -13.61748,0 q -0.98349,7.21222 -7.43918,10.6166 -4.7409,2.49653 -11.07051,2.49653 l -4.5896,0 q -1.23566,0 -2.16871,-0.60522 -1.23566,-0.80696 -1.23566,-2.4461 0,-0.93305 0.40348,-2.11828 l 9.00267,-25.24278 9.07832,0 -9.40615,26.32714 q 5.42178,0.12609 7.71658,-4.33742 -2.34524,-1.46262 -2.34524,-3.98438 0,-1.96697 1.51306,-3.35393 1.53827,-1.38697 3.65654,-1.38697 l 26.07497,0 z"
         style="font-style:normal;font-variant:normal;font-weight:bold;font-stretch:semi-expanded;font-family:Magneto;-inkscape-font-specification:'Magneto Bold Semi-Expanded';fill:#ffcc00;fill-opacity:1"
         id="path4743" />
      <path
         d="m 562.86724,561.97491 q -0.52957,1.94176 -2.42089,3.05133 -1.68957,0.98348 -3.85828,0.98348 l -14.04619,0 q -12.25573,0 -12.25573,-7.38874 0,-4.7409 4.18611,-7.43918 3.60611,-2.32002 8.57398,-2.32002 l 3.65654,0 q 3.20263,0 5.62352,0.98349 3.22785,1.31131 3.37915,3.98437 0.12609,2.69828 -2.59741,4.48873 l -8.34701,0 2.7235,-5.42178 -5.32091,0 -2.06784,6.07743 q -0.17652,0.52957 -0.17652,0.95827 0,2.04262 3.27828,2.04262 l 19.6697,0 z"
         style="font-style:normal;font-variant:normal;font-weight:bold;font-stretch:semi-expanded;font-family:Magneto;-inkscape-font-specification:'Magneto Bold Semi-Expanded';fill:#ffcc00;fill-opacity:1"
         id="path4745" />
      <path
         d="m 594.43963,561.97491 q -0.52957,1.94176 -2.42089,3.05133 -1.68957,0.98348 -3.85828,0.98348 l -14.04619,0 q -12.25573,0 -12.25573,-7.38874 0,-4.7409 4.18611,-7.43918 3.60611,-2.32002 8.57397,-2.32002 l 3.65655,0 q 3.20263,0 5.62352,0.98349 3.22785,1.31131 3.37915,3.98437 0.12609,2.69828 -2.59741,4.48873 l -8.34701,0 2.72349,-5.42178 -5.3209,0 -2.06784,6.07743 q -0.17653,0.52957 -0.17653,0.95827 0,2.04262 3.27829,2.04262 l 19.6697,0 z"
         style="font-style:normal;font-variant:normal;font-weight:bold;font-stretch:semi-expanded;font-family:Magneto;-inkscape-font-specification:'Magneto Bold Semi-Expanded';fill:#ffcc00;fill-opacity:1"
         id="path4747" />
      <path
         d="m 623.84331,561.97491 q 0,1.76523 -1.94176,2.97568 -1.71479,1.05913 -3.58089,1.05913 l -9.65833,0 q -3.83307,0 -3.83307,-3.17741 0,-0.80696 0.32783,-1.74001 l 2.84959,-8.19571 -5.37135,0 -2.79915,7.23744 q -0.70609,1.84088 -3.05132,1.84088 l -2.67306,0 3.3035,-9.07832 q -1.56349,-0.35304 -2.54698,-1.56349 -0.95826,-1.23566 -0.95826,-2.82437 0,-2.90002 2.69828,-4.48872 2.24436,-1.31132 5.34612,-1.31132 l 4.08525,0 -2.11828,6.15309 13.94531,0 -4.58959,13.11313 10.56616,0 z"
         style="font-style:normal;font-variant:normal;font-weight:bold;font-stretch:semi-expanded;font-family:Magneto;-inkscape-font-specification:'Magneto Bold Semi-Expanded';fill:#ffcc00;fill-opacity:1"
         id="path4749" />
      <path
         d="m 638.59559,562.75666 q 0,1.66436 -1.2861,2.84958 -1.28609,1.18523 -3.10176,1.18523 -1.84088,0 -3.12698,-1.18523 -1.26087,-1.18522 -1.26087,-2.84958 0,-1.66436 1.26087,-2.84959 1.2861,-1.18522 3.12698,-1.18522 1.81567,0 3.10176,1.18522 1.2861,1.18523 1.2861,2.84959 z"
         style="font-style:normal;font-variant:normal;font-weight:bold;font-stretch:semi-expanded;font-family:Magneto;-inkscape-font-specification:'Magneto Bold Semi-Expanded';fill:#ffcc00;fill-opacity:1"
         id="path4751" />
    </g>
  </g>
</svg>
