<?xml version="1.0" encoding="UTF-8" standalone="no"?>
<!-- Created with Inkscape (http://www.inkscape.org/) -->

<svg
   xmlns:dc="http://purl.org/dc/elements/1.1/"
   xmlns:cc="http://creativecommons.org/ns#"
   xmlns:rdf="http://www.w3.org/1999/02/22-rdf-syntax-ns#"
   xmlns:svg="http://www.w3.org/2000/svg"
   xmlns="http://www.w3.org/2000/svg"
   xmlns:sodipodi="http://sodipodi.sourceforge.net/DTD/sodipodi-0.dtd"
   xmlns:inkscape="http://www.inkscape.org/namespaces/inkscape"
   width="125.5"
   height="21.5"
   viewBox="0 0 125.5 21.5"
   id="svg2"
   version="1.1"
   inkscape:version="0.91 r13725"
   sodipodi:docname="mobile-goFundme.svg">
  <defs
     id="defs4" />
  <sodipodi:namedview
     id="base"
     pagecolor="#ffffff"
     bordercolor="#666666"
     borderopacity="1.0"
     inkscape:pageopacity="0.0"
     inkscape:pageshadow="2"
     inkscape:zoom="7.919596"
     inkscape:cx="41.18864"
     inkscape:cy="22.802371"
     inkscape:document-units="px"
     inkscape:current-layer="g4209"
     showgrid="false"
     inkscape:window-width="1920"
     inkscape:window-height="1017"
     inkscape:window-x="1916"
     inkscape:window-y="-4"
     inkscape:window-maximized="1"
     fit-margin-top="0"
     fit-margin-left="0"
     fit-margin-right="0"
     fit-margin-bottom="0"
     units="px" />
  <metadata
     id="metadata7">
    <rdf:RDF>
      <cc:Work
         rdf:about="">
        <dc:format>image/svg+xml</dc:format>
        <dc:type
           rdf:resource="http://purl.org/dc/dcmitype/StillImage" />
        <dc:title></dc:title>
      </cc:Work>
    </rdf:RDF>
  </metadata>
  <g
     id="g4165"
     inkscape:groupmode="layer"
     inkscape:label="Base"
     style="display:inline"
     transform="translate(-173.58577,-473.8165)" />
  <g
     inkscape:label="outline"
     inkscape:groupmode="layer"
     id="g4209"
     style="display:inline"
     transform="translate(-173.58577,-473.8165)">
    <g
       id="g4305"
       transform="matrix(0.53951862,0,0,0.44535197,79.106529,274.11528)">
      <path
         style="font-style:normal;font-weight:normal;font-size:medium;line-height:125%;font-family:sans-serif;letter-spacing:0px;word-spacing:0px;fill:#ffffff;fill-opacity:1;stroke:none;stroke-width:1px;stroke-linecap:butt;stroke-linejoin:miter;stroke-opacity:1"
         d="m 251.11719,450.4082 c -3.00638,0 -5.86494,0.96545 -7.80078,3.05078 -10e-4,10e-4 -9.5e-4,0.003 -0.002,0.004 -1.42792,1.53042 -2.07883,3.55986 -2.4082,5.72656 a 3.0307639,3.0307639 0 0 0 -2.82031,3.01953 l 0,3.08594 a 3.0307639,3.0307639 0 0 0 2.48047,2.97852 l 0,15.75 a 3.0307639,3.0307639 0 0 0 3.03125,3.03125 l 3.67187,0 a 3.0307639,3.0307639 0 0 0 3.03125,-3.03125 l 0,-15.69727 3.47266,0 a 3.0307639,3.0307639 0 0 0 0.5039,-0.0449 l 0,8.08594 c 0,3.18427 0.77362,6.08667 2.70118,8.21093 a 3.0307639,3.0307639 0 0 0 0.01,0.01 c 1.88728,2.06059 4.68186,3.07227 7.58594,3.07227 1.75201,0 3.46241,-0.34448 5.01562,-1.0586 0.12561,-0.0577 0.24783,-0.17288 0.37305,-0.23437 a 3.0307639,3.0307639 0 0 0 1.91602,0.6875 l 3.67187,0 a 3.0307639,3.0307639 0 0 0 3.03125,-3.03125 l 0,-21.81446 a 3.0307639,3.0307639 0 0 0 -3.03125,-3.03125 l -3.67187,0 a 3.0307639,3.0307639 0 0 0 -3.03125,3.03125 l 0,14.59961 c -0.44507,0.27235 -0.86297,0.59384 -1.34571,0.80469 a 3.0307639,3.0307639 0 0 0 -0.0117,0.006 c -0.83253,0.36787 -1.46032,0.48438 -1.88085,0.48438 -0.81764,0 -1.26682,-0.15717 -1.16407,-0.10938 -0.007,-0.003 -0.0148,-0.0129 -0.0508,-0.0703 l 0,-0.002 c -0.0883,-0.1464 -0.19426,-0.3925 -0.25391,-0.83985 -0.0801,-0.61326 -0.1289,-1.44383 -0.1289,-2.45312 l 0,-12.41993 a 3.0307639,3.0307639 0 0 0 -3.03125,-3.03125 l -3.55859,0 a 3.0307639,3.0307639 0 0 0 0.75,-1.98828 l 0,-3.36133 a 3.0307639,3.0307639 0 0 0 -2.46485,-2.97656 c -0.63151,-0.12028 -1.30585,-0.22153 -2.0293,-0.30664 -0.80423,-0.0961 -1.65158,-0.13672 -2.56054,-0.13672 z m 70.99609,0.19532 a 3.0307639,3.0307639 0 0 0 -3.03125,3.03125 l 0,5.28906 c -0.91203,-0.1713 -1.81949,-0.35156 -2.80859,-0.35156 -1.67957,0 -3.34259,0.35859 -4.89063,1.03906 a 3.0307639,3.0307639 0 0 0 -0.0117,0.004 c -1.5614,0.69395 -2.95971,1.72245 -4.11328,3.01172 a 3.0307639,3.0307639 0 0 0 -0.0117,0.0137 c -1.17373,1.32684 -2.07534,2.90123 -2.7207,4.64844 a 3.0307639,3.0307639 0 0 0 -0.01,0.0234 c -0.2397,0.66518 -0.38166,1.37609 -0.52929,2.08398 -0.0756,-2.94258 -0.77982,-5.63803 -2.53711,-7.65429 -1.86332,-2.13791 -4.71069,-3.16992 -7.67578,-3.16992 -1.70434,0 -3.39668,0.36193 -4.98047,1.05273 -0.14473,0.0631 -0.26694,0.18829 -0.41016,0.25586 a 3.0307639,3.0307639 0 0 0 -1.93359,-0.70313 l -3.67188,0 a 3.0307639,3.0307639 0 0 0 -3.03125,3.03125 l 0,21.81446 a 3.0307639,3.0307639 0 0 0 3.03125,3.03125 l 3.67188,0 a 3.0307639,3.0307639 0 0 0 3.03125,-3.03125 l 0,-14.59961 c 0.45307,-0.2779 0.89623,-0.61098 1.36328,-0.82227 0.77692,-0.35146 1.39044,-0.47265 1.89453,-0.47265 0.68969,0 1.07774,0.11772 1.14649,0.14843 a 3.0307639,3.0307639 0 0 0 0.0488,0.0215 c 0.0868,0.0369 -0.0165,-0.0387 -0.01,-0.0274 a 3.0307639,3.0307639 0 0 0 0.041,0.0684 c -0.032,-0.0506 0.12228,0.23877 0.20313,0.84961 a 3.0307639,3.0307639 0 0 0 0,0.006 c 0.0968,0.7206 0.14844,1.52368 0.14844,2.40821 l 0,12.41992 a 3.0307639,3.0307639 0 0 0 3.03125,3.03125 l 3.67187,0 a 3.0307639,3.0307639 0 0 0 3.03125,-3.03125 l 0,-6.70703 c 0.42371,2.29018 1.10347,4.42134 2.4082,6.13867 a 3.0307639,3.0307639 0 0 0 0.006,0.01 c 2.0392,2.66133 5.2352,4.19532 8.61719,4.19532 1.72364,0 3.41275,-0.33623 4.95899,-1.02149 0.0986,-0.0437 0.17957,-0.13181 0.27734,-0.17773 a 3.0307639,3.0307639 0 0 0 1.79492,0.59375 l 3.67188,0 a 3.0307639,3.0307639 0 0 0 3.03125,-3.03125 l 0,-30.38867 a 3.0307639,3.0307639 0 0 0 -3.03125,-3.03125 l -3.67188,0 z m -133.84766,7.96875 c -1.63365,0 -3.25953,0.36389 -4.80078,1.02539 -1.57445,0.66287 -2.98603,1.63841 -4.12695,2.88281 -6e-4,6.5e-4 -10e-4,10e-4 -0.002,0.002 -1.18067,1.28239 -2.10346,2.80162 -2.75977,4.48242 a 3.0307639,3.0307639 0 0 0 -0.006,0.0137 c -0.68908,1.79157 -0.98437,3.77605 -0.98437,5.93164 0,3.87385 0.8713,7.28621 2.95703,9.87109 a 3.0307639,3.0307639 0 0 0 0.0156,0.0176 c 0.56768,0.69275 1.22888,1.28135 1.94141,1.79883 a 3.0307639,3.0307639 0 0 0 -2.62891,3 l 0,3.75 a 3.0307639,3.0307639 0 0 0 2.21289,2.91796 c 1.18775,0.33315 2.39623,0.59011 3.6211,0.76563 1.26023,0.19169 2.54149,0.28516 3.83789,0.28516 3.98977,0 7.51899,-1.03214 9.92969,-3.51758 2.43021,-2.50558 3.375,-6.09715 3.375,-10.25391 l 0,-5.84375 c 0.3876,2.98507 1.246,5.74762 3.09179,7.84571 a 3.0307639,3.0307639 0 0 0 0.008,0.008 c 2.38646,2.69328 5.87275,4.10547 9.63085,4.10547 3.73779,0 7.21009,-1.41755 9.5918,-4.10547 2.39748,-2.70572 3.49805,-6.35502 3.49805,-10.42774 0,-4.07168 -1.09989,-7.72026 -3.49609,-10.42578 -2.37854,-2.69742 -5.8533,-4.1289 -9.59376,-4.1289 -3.76362,0 -7.25526,1.4279 -9.63867,4.13476 -1.84578,2.09809 -2.70419,4.86064 -3.09179,7.8457 l 0,-8.34375 a 3.0307639,3.0307639 0 0 0 -3.03125,-3.03125 l -3.4375,0 a 3.0307639,3.0307639 0 0 0 -1.24219,0.26954 c -0.28035,-0.1013 -0.55762,-0.27155 -0.83984,-0.35352 -1.24909,-0.38122 -2.57153,-0.52148 -4.03126,-0.52148 z m 169.55079,0 c -1.70434,0 -3.38891,0.36521 -4.93164,1.08398 a 3.0307639,3.0307639 0 0 0 -0.0117,0.004 c -0.0884,0.0417 -0.1679,0.12256 -0.25586,0.16601 a 3.0307639,3.0307639 0 0 0 -1.8711,-0.64844 l -3.67187,0 a 3.0307639,3.0307639 0 0 0 -3.03125,3.03125 l 0,21.81446 a 3.0307639,3.0307639 0 0 0 3.03125,3.03125 l 3.67187,0 a 3.0307639,3.0307639 0 0 0 3.03125,-3.03125 l 0,-14.63282 c 0.43663,-0.27814 0.88724,-0.61864 1.30664,-0.82617 0.66165,-0.32202 1.19372,-0.43554 1.69727,-0.43554 0.77599,0 1.15578,0.15783 1.03516,0.0957 0.0144,0.0342 0.13291,0.32435 0.18554,0.91211 a 3.0307639,3.0307639 0 0 0 0.004,0.0508 c 0.0786,0.74076 0.11914,1.54802 0.11914,2.41602 l 0,12.41992 a 3.0307639,3.0307639 0 0 0 3.03125,3.03125 l 3.67187,0 a 3.0307639,3.0307639 0 0 0 3.03126,-3.03125 l 0,-13.96485 c 0,-0.2165 -0.0147,-0.43224 -0.0215,-0.64843 0.42726,-0.27053 0.87184,-0.61234 1.28125,-0.81446 a 3.0307639,3.0307639 0 0 0 0.0273,-0.0137 c 0.66544,-0.33693 1.19962,-0.45312 1.7168,-0.45312 0.77309,0 1.1476,0.15593 1.03125,0.0957 0.009,0.0196 0.13566,0.33284 0.18945,0.93359 a 3.0307639,3.0307639 0 0 0 0.004,0.0449 c 0.0795,0.76085 0.11914,1.56112 0.11914,2.4004 l 0,12.41992 a 3.0307639,3.0307639 0 0 0 3.03125,3.03125 l 3.67188,0 a 3.0307639,3.0307639 0 0 0 3.03125,-3.03125 l 0,-6.61524 c 0.591,2.46466 1.68208,4.67579 3.43554,6.37305 a 3.0307639,3.0307639 0 0 0 0.008,0.006 c 2.67954,2.57649 6.41132,3.77734 10.57617,3.77734 1.67226,0 3.30068,-0.21162 4.85937,-0.63672 1.41543,-0.38602 2.80627,-0.86415 4.16797,-1.4375 a 3.0307639,3.0307639 0 0 0 1.85547,-2.79296 l 0,-4.00586 a 3.0307639,3.0307639 0 0 0 -1.2832,-2.47071 3.0307639,3.0307639 0 0 0 1.71289,-2.72461 l 0,-1.99218 c 0,-3.67067 -0.98121,-6.98428 -3.20899,-9.38086 l -0.002,-0.002 c -2.22237,-2.40317 -5.48916,-3.54882 -9.01953,-3.54882 -3.84237,0 -7.39969,1.41075 -9.91211,4.10742 a 3.0307639,3.0307639 0 0 0 -0.008,0.008 c -1.7857,1.92951 -2.68172,4.4557 -3.1836,7.16797 -0.002,-3.03961 -0.67883,-5.79978 -2.36718,-7.93555 -1.76874,-2.26665 -4.669,-3.34765 -7.67383,-3.34765 -1.79217,0 -3.55497,0.37085 -5.17383,1.10937 -0.72443,0.3245 -1.45153,0.965 -2.16992,1.42969 -0.44811,-0.41572 -0.88181,-0.851 -1.40625,-1.16602 -1.57901,-0.95604 -3.42686,-1.37304 -5.33203,-1.37304 z m -37.72071,0.4707 0.041,0.0117 c -0.006,-0.002 -0.0121,-4.2e-4 -0.0176,-0.002 -0.008,-0.002 -0.0155,-0.008 -0.0234,-0.01 z m -106.51758,8.75391 c 1.25704,0 1.68723,0.2386 2.2461,0.93554 a 3.0307639,3.0307639 0 0 0 0.008,0.01 c 0.46351,0.57257 0.98438,1.95493 0.98438,4.38476 0,2.35064 -0.50166,3.71097 -1.01953,4.36133 a 3.0307639,3.0307639 0 0 0 -0.002,0.004 c -0.56587,0.71233 -0.98222,0.9414 -2.2168,0.9414 -1.258,0 -1.68086,-0.23714 -2.24023,-0.94531 -0.52536,-0.67632 -1.01758,-2.03998 -1.01758,-4.36133 0,-2.43316 0.52003,-3.82501 0.97657,-4.39648 2.4e-4,-3.1e-4 -2.5e-4,-0.002 0,-0.002 0.54972,-0.68408 0.99207,-0.93164 2.28124,-0.93164 z m -24.66796,0.13671 c 0.59183,0 1.18939,0.0697 1.80859,0.21485 a 3.0307639,3.0307639 0 0 0 0.0527,0.0117 c 0.0947,0.0204 0.24057,0.0929 0.3418,0.11914 l 0,8.00781 c -0.3417,0.18677 -0.64474,0.42473 -1.02148,0.57031 -0.75032,0.28217 -1.43708,0.40625 -2.11914,0.40625 -1.34979,0 -1.52397,-0.20653 -1.77149,-0.57031 -0.34795,-0.51138 -0.76367,-1.76608 -0.76367,-3.85938 0,-2.12405 0.46955,-3.29842 1.00977,-3.92968 0.5938,-0.69389 1.12244,-0.97071 2.46289,-0.97071 z m 127.98828,0.0586 c 0.73953,0 1.37654,0.0667 1.91601,0.18359 0.065,0.0141 0.19574,0.0754 0.26758,0.0937 l 0,8.69922 c -0.38632,0.23329 -0.74849,0.51691 -1.16211,0.69922 -0.73289,0.31051 -1.36405,0.43555 -1.95898,0.43555 -1.25027,0 -1.40473,-0.16567 -1.72266,-0.64649 -0.40027,-0.61499 -0.83203,-2.01221 -0.83203,-4.25391 0,-2.19012 0.47413,-3.47547 1.05469,-4.20117 0.59314,-0.74144 1.08346,-1.00976 2.4375,-1.00976 z m 55.00195,0.23242 c -4.6e-4,-2.4e-4 0.004,2.4e-4 0.004,0 0,0 -0.002,0.002 -0.002,0.002 l -0.002,-0.002 z m 20.11719,8.30273 9.40039,0 c -0.22846,0.17472 -0.90373,0.61435 -2.12695,1.10157 -10e-4,5.1e-4 -0.003,-5.2e-4 -0.004,0 -1.17732,0.46019 -2.27816,0.66796 -3.36523,0.66797 -0.83555,0 -1.52812,-0.11355 -2.1211,-0.31055 -0.55307,-0.18781 -0.957,-0.43161 -1.3125,-0.75977 a 3.0307639,3.0307639 0 0 0 -0.0176,-0.0176 c -0.17383,-0.15773 -0.30307,-0.45889 -0.45312,-0.68164 z"
         id="path4303"
         inkscape:connector-curvature="0" />
      <g
         style="font-style:normal;font-weight:normal;font-size:40px;line-height:125%;font-family:sans-serif;letter-spacing:0px;word-spacing:0px;fill:#000000;fill-opacity:1;stroke:none;stroke-width:1px;stroke-linecap:butt;stroke-linejoin:miter;stroke-opacity:1"
         id="text4211">
        <path
           d="m 197.81641,481.54395 q 0,5.54687 -2.51954,8.14453 -2.51953,2.59765 -7.7539,2.59765 -1.73828,0 -3.39844,-0.2539 -1.64062,-0.23438 -3.24219,-0.6836 l 0,-3.75 0.19532,0 q 0.89843,0.35157 2.85156,0.85938 1.95312,0.52734 3.90625,0.52734 1.875,0 3.10547,-0.44922 1.23047,-0.44922 1.91406,-1.25 0.68359,-0.76172 0.97656,-1.83593 0.29297,-1.07422 0.29297,-2.40235 l 0,-1.99219 q -1.66016,1.32813 -3.18359,1.99219 -1.50391,0.64453 -3.84766,0.64453 -3.90625,0 -6.21094,-2.8125 -2.28515,-2.83203 -2.28515,-7.96875 0,-2.8125 0.78125,-4.84375 0.80078,-2.05078 2.16797,-3.53515 1.26953,-1.38672 3.08593,-2.14844 1.81641,-0.78125 3.61328,-0.78125 1.89454,0 3.16407,0.39062 1.28906,0.3711 2.71484,1.15235 l 0.23438,-0.9375 3.4375,0 0,19.33594 z m -3.67188,-3.51563 0,-11.89453 q -1.46484,-0.66406 -2.73437,-0.9375 -1.25,-0.29297 -2.5,-0.29297 -3.02735,0 -4.76563,2.03125 -1.73828,2.03125 -1.73828,5.89844 0,3.67187 1.28906,5.5664 1.28906,1.89454 4.27735,1.89454 1.60156,0 3.20312,-0.60547 1.62109,-0.625 2.96875,-1.66016 z"
           style="fill:#808080"
           id="path4315"
           inkscape:connector-curvature="0" />
        <path
           d="m 223.63672,473.12598 q 0,5.33203 -2.73438,8.41797 -2.73437,3.08593 -7.32422,3.08593 -4.6289,0 -7.36328,-3.08593 -2.71484,-3.08594 -2.71484,-8.41797 0,-5.33203 2.71484,-8.41797 2.73438,-3.10547 7.36328,-3.10547 4.58985,0 7.32422,3.10547 2.73438,3.08594 2.73438,8.41797 z m -3.78906,0 q 0,-4.23828 -1.66016,-6.28907 -1.66016,-2.07031 -4.60938,-2.07031 -2.98828,0 -4.64843,2.07031 -1.64063,2.05079 -1.64063,6.28907 0,4.10156 1.66016,6.23047 1.66015,2.10937 4.6289,2.10937 2.92969,0 4.58985,-2.08984 1.67969,-2.10938 1.67969,-6.25 z"
           style="fill:#808080"
           id="path4317"
           inkscape:connector-curvature="0" />
        <path
           d="m 255.14062,457.18848 -0.19531,0 q -0.60547,-0.17578 -1.58203,-0.35157 -0.97656,-0.19531 -1.71875,-0.19531 -2.36328,0 -3.4375,1.05469 -1.05469,1.03516 -1.05469,3.76953 l 0,0.74219 6.6211,0 0,3.08594 -6.50391,0 0,18.73046 -3.67187,0 0,-18.73046 -2.48047,0 0,-3.08594 2.48047,0 0,-0.72266 q 0,-3.88672 1.93359,-5.95703 1.93359,-2.08984 5.58594,-2.08984 1.23047,0 2.20703,0.11718 0.99609,0.11719 1.8164,0.27344 l 0,3.35938 z"
           style="fill:#86b324;fill-opacity:1"
           id="path4319"
           inkscape:connector-curvature="0" />
        <path
           d="m 275.55078,484.02441 -3.67187,0 0,-2.42187 q -1.85547,1.46484 -3.55469,2.24609 -1.69922,0.78125 -3.75,0.78125 -3.4375,0 -5.35156,-2.08984 -1.91407,-2.10938 -1.91407,-6.17188 l 0,-14.16015 3.67188,0 0,12.42187 q 0,1.66016 0.15625,2.85157 0.15625,1.17187 0.66406,2.01171 0.52734,0.85938 1.36719,1.25 0.83984,0.39063 2.4414,0.39063 1.42579,0 3.10547,-0.74219 1.69922,-0.74219 3.16407,-1.89453 l 0,-16.28906 3.67187,0 0,21.8164 z"
           style="fill:#86b324;fill-opacity:1"
           id="path4321"
           inkscape:connector-curvature="0" />
        <path
           d="m 301.01953,484.02441 -3.67187,0 0,-12.42187 q 0,-1.50391 -0.17579,-2.8125 -0.17578,-1.32813 -0.64453,-2.07031 -0.48828,-0.82032 -1.40625,-1.21094 -0.91797,-0.41016 -2.38281,-0.41016 -1.50391,0 -3.14453,0.74219 -1.64063,0.74219 -3.14453,1.89453 l 0,16.28906 -3.67188,0 0,-21.8164 3.67188,0 0,2.42187 q 1.71875,-1.42578 3.55469,-2.22656 1.83593,-0.80078 3.76953,-0.80078 3.53515,0 5.39062,2.12891 1.85547,2.1289 1.85547,6.13281 l 0,14.16015 z"
           style="fill:#86b324;fill-opacity:1"
           id="path4323"
           inkscape:connector-curvature="0" />
        <path
           d="m 325.78516,484.02441 -3.67188,0 0,-2.28515 q -1.58203,1.36719 -3.30078,2.1289 -1.71875,0.76172 -3.73047,0.76172 -3.90625,0 -6.21094,-3.00781 -2.28515,-3.00781 -2.28515,-8.33984 0,-2.77344 0.78125,-4.94141 0.80078,-2.16797 2.14843,-3.69141 1.32813,-1.48437 3.08594,-2.26562 1.77735,-0.78125 3.67188,-0.78125 1.71875,0 3.04687,0.37109 1.32813,0.35157 2.79297,1.11328 l 0,-9.45312 3.67188,0 0,30.39062 z m -3.67188,-5.37109 0,-12.51953 q -1.48437,-0.66406 -2.65625,-0.91797 -1.17187,-0.25391 -2.55859,-0.25391 -3.08594,0 -4.80469,2.14844 -1.71875,2.14844 -1.71875,6.09375 0,3.88672 1.32812,5.91797 1.32813,2.01172 4.25782,2.01172 1.5625,0 3.16406,-0.68359 1.60156,-0.70313 2.98828,-1.79688 z"
           style="fill:#86b324;fill-opacity:1"
           id="path4325"
           inkscape:connector-curvature="0" />
        <path
           d="m 378.91016,484.02441 -3.67188,0 0,-12.42187 q 0,-1.40625 -0.13672,-2.71484 -0.11719,-1.3086 -0.52734,-2.08985 -0.44922,-0.83984 -1.28906,-1.26953 -0.83985,-0.42969 -2.42188,-0.42969 -1.54297,0 -3.08594,0.78125 -1.54297,0.76172 -3.08593,1.95313 0.0586,0.44922 0.0976,1.05469 0.0391,0.58593 0.0391,1.17187 l 0,13.96484 -3.67187,0 0,-12.42187 q 0,-1.44531 -0.13672,-2.73438 -0.11719,-1.30859 -0.52734,-2.08984 -0.44922,-0.83984 -1.28907,-1.25 -0.83984,-0.42969 -2.42187,-0.42969 -1.50391,0 -3.02734,0.74219 -1.50391,0.74219 -3.00782,1.89453 l 0,16.28906 -3.67187,0 0,-21.8164 3.67187,0 0,2.42187 q 1.71875,-1.42578 3.41797,-2.22656 1.71875,-0.80078 3.65235,-0.80078 2.22656,0 3.76953,0.9375 1.5625,0.9375 2.32422,2.59766 2.22656,-1.875 4.0625,-2.69532 1.83593,-0.83984 3.92578,-0.83984 3.59375,0 5.29297,2.1875 1.71875,2.16797 1.71875,6.07422 l 0,14.16015 z"
           style="fill:#999999"
           id="path4327"
           inkscape:connector-curvature="0" />
        <path
           d="m 404.24219,473.49707 -16.07422,0 q 0,2.01172 0.60547,3.51563 0.60547,1.48437 1.66015,2.4414 1.01563,0.9375 2.40235,1.40625 1.40625,0.46875 3.08593,0.46875 2.22657,0 4.47266,-0.8789 2.26563,-0.89844 3.22266,-1.75782 l 0.19531,0 0,4.00391 q -1.85547,0.78125 -3.78906,1.30859 -1.9336,0.52735 -4.0625,0.52735 -5.42969,0 -8.47657,-2.92969 -3.04687,-2.94922 -3.04687,-8.35938 0,-5.35156 2.91016,-8.49609 2.92968,-3.14453 7.69531,-3.14453 4.41406,0 6.79687,2.57812 2.40235,2.57813 2.40235,7.32422 l 0,1.99219 z m -3.57422,-2.8125 q -0.0195,-2.89062 -1.46485,-4.47266 -1.42578,-1.58203 -4.35546,-1.58203 -2.94922,0 -4.70704,1.73828 -1.73828,1.73829 -1.97265,4.31641 l 12.5,0 z"
           style="fill:#999999"
           id="path4329"
           inkscape:connector-curvature="0" />
      </g>
    </g>
  </g>
</svg>
