<?xml version="1.0" encoding="UTF-8" standalone="no"?>
<!-- Created with Inkscape (http://www.inkscape.org/) -->

<svg
   xmlns:dc="http://purl.org/dc/elements/1.1/"
   xmlns:cc="http://creativecommons.org/ns#"
   xmlns:rdf="http://www.w3.org/1999/02/22-rdf-syntax-ns#"
   xmlns:svg="http://www.w3.org/2000/svg"
   xmlns="http://www.w3.org/2000/svg"
   xmlns:sodipodi="http://sodipodi.sourceforge.net/DTD/sodipodi-0.dtd"
   xmlns:inkscape="http://www.inkscape.org/namespaces/inkscape"
   width="4in"
   height="5in"
   viewBox="0 0 360 449.99997"
   id="svg2"
   version="1.1"
   inkscape:version="0.91 r13725"
   sodipodi:docname="RISlabel.svg">
  <defs
     id="defs4" />
  <sodipodi:namedview
     id="base"
     pagecolor="#ffffff"
     bordercolor="#666666"
     borderopacity="1.0"
     inkscape:pageopacity="0.0"
     inkscape:pageshadow="2"
     inkscape:zoom="1.8101934"
     inkscape:cx="247.49746"
     inkscape:cy="177.18995"
     inkscape:document-units="px"
     inkscape:current-layer="layer1"
     showgrid="false"
     fit-margin-top="0"
     fit-margin-left="0"
     fit-margin-right="0"
     fit-margin-bottom="0"
     units="in"
     showborder="true"
     inkscape:window-width="1920"
     inkscape:window-height="1017"
     inkscape:window-x="1916"
     inkscape:window-y="-4"
     inkscape:window-maximized="1" />
  <metadata
     id="metadata7">
    <rdf:RDF>
      <cc:Work
         rdf:about="">
        <dc:format>image/svg+xml</dc:format>
        <dc:type
           rdf:resource="http://purl.org/dc/dcmitype/StillImage" />
        <dc:title></dc:title>
      </cc:Work>
    </rdf:RDF>
  </metadata>
  <g
     inkscape:label="Layer 1"
     inkscape:groupmode="layer"
     id="layer1"
     transform="translate(-39.390812,91.69341)">
    <rect
       style="fill:none;stroke:#000000;stroke-opacity:1"
       id="rect4138"
       width="270"
       height="360"
       x="84.689865"
       y="-44.782768" />
    <g
       id="g4208"
       transform="matrix(2.0351125,0,0,2.0351125,-2017.3397,-814.15662)">
      <g
         transform="translate(-2.5346316,0)"
         id="g4201">
        <path
           sodipodi:nodetypes="scsccccccsssscsscscccsssscsssscsscsssccs"
           inkscape:connector-curvature="0"
           id="path3010-5-1"
           d="m 1082.3553,450.40879 c -0.1495,0.0122 -0.3142,0.0531 -0.4568,0.0952 -0.2376,0.0703 -0.4507,0.1912 -0.6472,0.34261 -0.3391,0.26139 -0.4926,0.62254 -0.7328,0.9327 l -0.3521,0.49489 -0.514,1.1611 -0.086,0.57579 -0.067,0.60435 c 0,0 0.01,0.8581 0.057,1.2753 0.044,0.3659 0.1027,0.73228 0.2094,1.08496 0.1215,0.40171 0.3122,0.77477 0.4759,1.1611 0.1647,0.38865 0.3087,0.79233 0.5139,1.16109 0.2907,0.52254 0.6216,1.01045 1.0088,1.46566 0.1627,0.1912 0.3709,0.34038 0.552,0.51393 0.2437,0.23358 0.453,0.5023 0.7233,0.70428 0.1967,0.14685 0.4305,0.24659 0.6472,0.36166 0.2087,0.11079 0.4106,0.23133 0.6281,0.32357 0.2777,0.11789 0.5602,0.24924 0.8566,0.30456 0.3293,0.0614 1.0088,0.0182 1.0088,0.0182 0,0 0.8809,-0.002 1.3134,-0.0762 0.3235,-0.0553 0.6404,-0.16225 0.9517,-0.2665 0.3075,-0.10289 0.6022,-0.22139 0.8946,-0.36165 0.289,-0.13854 0.5986,-0.26196 0.8375,-0.47585 0.5631,-0.50399 0.99,-1.16288 1.3515,-1.82731 0.2108,-0.3875 0.3604,-0.80655 0.4568,-1.23724 0.068,-0.30348 0.09,-0.62195 0.076,-0.93268 -0.014,-0.30123 -0.052,-0.61044 -0.1523,-0.89462 -0.1677,-0.47411 -0.4029,-0.9263 -0.7233,-1.31338 -0.1928,-0.23285 -0.4599,-0.39355 -0.7043,-0.57103 -0.1969,-0.143 -0.3983,-0.27852 -0.6091,-0.39973 -0.2649,-0.15232 -0.5522,-0.26889 -0.8185,-0.41875 -0.1964,-0.11059 -0.3791,-0.22416 -0.571,-0.34262 -0.2465,-0.15211 -0.4947,-0.32564 -0.7423,-0.47587 -0.242,-0.14685 -0.506,-0.26319 -0.7424,-0.41875 -0.308,-0.20263 -0.5886,-0.43459 -0.8756,-0.66621 -0.32,-0.25823 -0.6065,-0.56809 -0.9327,-0.81846 -0.2949,-0.22649 -0.6067,-0.43044 -0.9326,-0.60911 -0.1975,-0.10816 -0.3955,-0.19587 -0.6091,-0.26648 -0.2761,-0.0911 -0.5667,-0.18938 -0.8566,-0.20939 -0.1483,-0.0101 -0.2883,-0.0121 -0.4378,0 z"
           style="fill:#ffcc00;fill-opacity:1;stroke:none;stroke-width:0.21668187px;stroke-linecap:butt;stroke-linejoin:miter;stroke-opacity:1" />
        <path
           inkscape:connector-curvature="0"
           id="path3012-5-3"
           d="m 1093.3057,470.70235 -0.3477,-0.91056 -0.1159,-0.83307 0,-1.22055 0.1738,-0.54247 0.2125,-0.40684 0.4251,-0.48434 0.6762,-0.42623 0.5216,-0.32934 0.3477,-0.34873 0.3285,-0.34873 0.4057,-0.48434 0.2125,-0.42623 0.2705,-0.4262 0.2511,-0.50373 0.1159,-0.63933 0.077,-0.8912 -0.1738,-0.67807 -0.1353,-0.96868 0.039,-1.02681 0.2705,-1.1043 0.425,-0.85243 0.5796,-0.73621 0.7148,-0.69746 0.9273,-0.61995 1.1013,-0.52308 1.275,-0.38748 1.3717,-0.30999 1.4683,-0.44559 1.1012,-0.1357 1.6615,-0.0203 1.0433,0.2131 0.85,0.34873 0.908,0.60059 0.6376,0.54246 0.6955,0.96868 0.483,0.79432 0.2318,0.71683 0.039,0.2131 0.4444,0.48436 0.5216,0.44559 0.4636,0.27123 0.5796,0.32935 0.5796,0.34873 0.6182,0.25185 0.6569,0.0776 c 0,0 0.8694,-0.0776 0.966,-0.0387 0.097,0.0387 0.7534,0.0968 0.7534,0.0968 l 0.6956,0.32935 0.5989,0.60058 0.4443,0.58121 0.2705,0.42621 0.2318,0.52309 0.1738,0.69746 0.1932,0.91056 -0.039,0.83307 -0.039,0.87182 -0.039,0.77493 -0.1738,0.40687 -0.2511,0.67807 -0.4637,0.77494 -0.7728,0.85245 -0.6568,0.67808 -0.966,0.71683 -1.3717,0.61996 -1.0433,0.5037 -4.4434,1.62739 -1.0047,0.27124 -1.5842,0.44559 -2.4149,0.54247 -2.6275,0.52308 -2.0092,0.23249 -1.5262,0.0203 -0.8887,-0.1357 -0.8501,-0.21311 -0.8694,-0.42622 -0.4637,-0.2906 -0.7148,-0.42623 -0.7728,-0.73619 -0.7341,-1.06555 z"
           style="fill:#ffcc00;fill-opacity:1;stroke:none;stroke-width:0.21668185px;stroke-linecap:butt;stroke-linejoin:miter;stroke-opacity:1" />
        <path
           sodipodi:nodetypes="cccscccccccsscccsscsscccsccscscscssssssscccccscscccc"
           inkscape:connector-curvature="0"
           id="path3014-5-8"
           d="m 1092.4436,433.75368 c -0.1396,0.0162 -0.2851,0.0703 -0.4188,0.11423 -0.2284,0.0751 -0.4394,0.16731 -0.6662,0.24746 -0.1728,0.061 -0.1798,0.0695 -0.3581,0.11262 -0.082,0.0202 -0.2361,0.063 -0.3529,0.13793 -0.1464,0.0458 -0.1653,0.1112 -0.1821,0.0952 l -0.6281,0.39969 -0.59,0.53929 -0.3538,0.28793 c -0.035,0.0529 -0.2013,0.21948 -0.2641,0.29503 -0.1452,0.20134 -0.2879,0.44762 -0.4116,0.68286 -0.1343,0.25544 -0.2721,0.51294 -0.3807,0.78041 -0.1274,0.31399 -0.2209,0.62324 -0.3046,0.95172 -0.093,0.36323 -0.1598,0.73242 -0.2093,1.104 -0.056,0.42365 -0.068,0.86776 -0.095,1.29434 -0.024,0.37431 -0.076,0.74844 -0.057,1.12303 0.021,0.43057 0.092,0.85562 0.1904,1.2753 0.082,0.34997 0.1835,0.69702 0.3235,1.02786 0.1544,0.36435 0.4361,0.85316 0.552,1.0469 0.1159,0.19384 0.6782,0.75703 1.0469,1.104 0.1467,0.13814 0.3096,0.26706 0.4759,0.3807 0.1882,0.12861 0.3844,0.22556 0.5901,0.32357 0.2009,0.0958 0.4015,0.18635 0.6091,0.26647 0.211,0.0814 0.4291,0.16832 0.6471,0.22842 0.2655,0.0733 0.5477,0.10249 0.8185,0.15232 0.2187,0.0403 0.4254,0.099 0.6472,0.11424 0.3279,0.0223 0.6675,0.0267 0.9898,-0.0381 0.3976,-0.08 0.7742,-0.24768 1.142,-0.41876 0.3819,-0.17763 0.7577,-0.38812 1.104,-0.62812 0.2144,-0.14847 0.4023,-0.31377 0.5901,-0.49492 0.2694,-0.25989 0.5594,-0.52205 0.7614,-0.8375 0.1324,-0.20692 0.2153,-0.44962 0.2855,-0.68525 0.084,-0.2828 0.1424,-0.58059 0.1523,-0.87558 0.012,-0.35708 -0.04,-0.7164 -0.1142,-1.06592 -0.066,-0.31169 -0.156,-0.60374 -0.2855,-0.89462 -0.1037,-0.23257 -0.2476,-0.46226 -0.3998,-0.66621 -0.1693,-0.2268 -0.3849,-0.41507 -0.571,-0.62813 -0.1809,-0.20711 -0.35,-0.40721 -0.5139,-0.62813 -0.1993,-0.26874 -0.3862,-0.55859 -0.5711,-0.83752 -0.1235,-0.18635 -0.2687,-0.34841 -0.3616,-0.55199 -0.078,-0.17096 -0.1183,-0.36706 -0.1523,-0.55201 -0.041,-0.22311 -0.054,-0.45841 -0.057,-0.68523 0,-0.23283 0.057,-0.45323 0.038,-0.68525 -0.016,-0.20451 -0.09,-0.40858 -0.1333,-0.60911 -0.027,-0.12254 -0.042,-0.24111 -0.076,-0.36165 -0.057,-0.1983 -0.1244,-0.42927 -0.2284,-0.59007 -0.1669,-0.25799 -0.1481,-0.29289 -0.3046,-0.47585 0,0 -0.2135,-0.27666 -0.3426,-0.39973 -0.1298,-0.12376 -0.2552,-0.26958 -0.4188,-0.34262 -0.1972,-0.0881 -0.4324,-0.0907 -0.6471,-0.11423 -0.173,-0.0182 -0.3412,-0.0401 -0.514,-0.0182 z"
           style="fill:#ffcc00;fill-opacity:1;stroke:none;stroke-width:0.21668187px;stroke-linecap:butt;stroke-linejoin:miter;stroke-opacity:1" />
        <path
           sodipodi:nodetypes="cccccccccccccccccccccccccccccccccccccccccccccc"
           inkscape:connector-curvature="0"
           id="path3016-8-5"
           d="m 1102.5773,431.07221 -0.5423,0.0302 -0.1883,0.0245 -0.6282,0.11424 -0.8375,0.19039 -0.571,0.32358 -0.571,0.39973 -0.2665,0.68525 0.018,0.64717 0.038,0.7233 0.076,0.62813 0.2664,0.68525 0.3807,0.57103 0.3807,0.53297 0.1523,0.66619 0,0.70428 -0.076,1.00882 -0.076,0.95173 0.038,1.21819 0.1524,0.89463 0.3045,0.7804 0.4949,0.53297 0.5901,0.53297 0.7423,0.30454 0.7614,0.15232 0.9898,0.0381 1.142,-0.0952 1.3515,-0.34262 0.7424,-0.51393 0.7613,-0.7233 0.7995,-1.02787 0.59,-1.12303 0.2475,-0.85655 0.057,-1.18014 -0.1143,-0.68522 -0.2284,-0.81849 -0.3045,-0.91366 -0.4759,-0.78041 -0.4758,-0.7804 -0.9137,-1.08496 -0.6662,-0.70429 -0.9517,-0.66621 -1.2372,-0.7233 -0.3365,-0.12316 -0.6153,-0.1432 z"
           style="fill:#ffcc00;fill-opacity:1;stroke:none;stroke-width:0.21668187px;stroke-linecap:butt;stroke-linejoin:miter;stroke-opacity:1" />
        <path
           sodipodi:nodetypes="ccccccccccccccccccccccccccccccccccccccccccccccccccccscccccccccccccccc"
           inkscape:connector-curvature="0"
           id="path3018-4-2"
           d="m 1118.6921,440.18732 c -0.082,0.0273 -0.4759,0.0571 -0.4759,0.0571 l -0.3807,0.0952 -0.4759,0.24745 -0.2664,0.20938 -0.2665,0.32357 -0.2475,0.2665 -0.3045,0.62813 -0.1714,0.49489 -0.1142,0.59007 -0.095,0.43779 -0.1143,0.43779 -0.2664,0.47587 -0.2856,0.47585 -0.1523,0.51393 -0.1904,0.34262 -0.1523,0.39973 -0.1714,0.26648 -0.1523,0.36165 -0.1904,0.34263 -0.1713,0.32358 -0.1714,0.28551 -0.1904,0.47587 -0.1713,0.24744 -0.1333,0.32359 -0.095,0.30456 0.038,0.45681 0,0.89462 -0.018,0.41879 0.1904,0.41876 c 0,0 0.1766,0.40204 0.1904,0.45683 0.014,0.0547 0.2665,0.38069 0.2665,0.38069 l 0.4187,0.36165 0.514,0.39972 0.5329,0.30455 0.4759,0.20938 0.8375,0.36165 0.3997,0.17136 0.8185,0.0571 0.8185,-0.0381 0.4187,-0.0952 0.533,-0.1904 0.7995,-0.26647 0.7613,-0.34262 0.5711,-0.43779 0.552,-0.51393 0.571,-0.64717 0.2665,-0.43779 0.2284,-0.45683 0.2284,-0.72331 0.1523,-0.49489 0.095,-0.68525 c 0,0 0.057,-1.12532 0.057,-1.18013 0,-0.0547 -0.076,-0.98979 -0.076,-0.98979 l -0.076,-0.98978 -0.2094,-0.95172 -0.2093,-0.62815 -0.1904,-0.45683 -0.2855,-0.57103 -0.5711,-0.74235 -0.2855,-0.30453 -0.2049,-0.21381 -0.29,-0.24302 -0.9327,-0.62813 -0.4935,-0.28533 -0.3324,-0.13875 -0.259,-0.0707 -0.533,-0.0571 c 0,0 -0.2797,-0.0654 -0.3617,-0.0381 z"
           style="fill:#ffcc00;fill-opacity:1;stroke:none;stroke-width:0.21668187px;stroke-linecap:butt;stroke-linejoin:miter;stroke-opacity:1" />
      </g>
      <g
         transform="matrix(0.4340035,0,0,0.43300002,645.79794,305.38802)"
         id="g4168">
        <g
           style="font-style:normal;font-weight:normal;font-size:22.00421715px;line-height:125%;font-family:sans-serif;letter-spacing:0px;word-spacing:0px;fill:#000000;fill-opacity:1;stroke:none;stroke-width:1px;stroke-linecap:butt;stroke-linejoin:miter;stroke-opacity:1"
           id="text4152">
          <path
             inkscape:connector-curvature="0"
             d="m 1032.4742,395.93506 -4.5555,13.07575 q -0.3331,0.94549 -1.1496,1.49345 -0.8166,0.54796 -1.8158,0.54796 l -8.3161,0 q 0.2579,-0.96699 0.9992,-1.51494 0.7414,-0.5587 1.7514,-0.5587 l 4.6415,0 2.267,-6.37134 -3.234,3.42741 q -0.9992,1.05294 -2.6646,1.05294 -0.967,0 -1.6331,-0.42977 -0.7629,-0.49424 -0.7629,-1.41824 0,-0.44052 0.1505,-0.88103 l 2.267,-6.34985 -1.934,0 q 0.043,0.30084 0.043,0.50498 0,1.06368 -0.838,1.81578 -0.8273,0.75209 -2.0092,0.75209 -1.1819,0 -2.0199,-0.75209 -0.8381,-0.7521 -0.8381,-1.81578 0,-1.1174 0.881,-1.8695 0.8381,-0.70912 1.9555,-0.70912 l 6.9838,0 q 0.7413,0 1.2033,0.44051 0.462,0.42977 0.462,1.17113 0,0.41902 -0.1504,0.84879 l -2.2885,6.42506 6.3176,-8.09042 q 0.2471,-0.32232 0.7951,-0.5587 0.5479,-0.23637 0.9669,-0.23637 l 2.5249,0 z"
             style="font-style:normal;font-variant:normal;font-weight:bold;font-stretch:semi-expanded;font-family:Magneto;-inkscape-font-specification:'Magneto Bold Semi-Expanded'"
             id="path4193" />
        </g>
        <g
           transform="scale(1.0040759,0.99594064)"
           style="font-style:normal;font-weight:normal;font-size:21.86062241px;line-height:125%;font-family:sans-serif;letter-spacing:0px;word-spacing:0px;fill:#000000;fill-opacity:1;stroke:none;stroke-width:1px;stroke-linecap:butt;stroke-linejoin:miter;stroke-opacity:1"
           id="text4160">
          <path
             inkscape:connector-curvature="0"
             d="m 1053.3512,410.85958 q -0.4483,1.70786 -2.9674,1.70786 l -3.832,0 q -1.7933,0 -1.7933,-1.03539 0,-0.36292 0.2242,-0.94999 l 1.7719,-4.61123 -5.2944,5.80673 q -0.8539,0.95 -1.868,0.95 -0.1921,0 -0.4056,-0.032 -1.2168,-0.13876 -1.2168,-1.21685 0,-0.41629 0.1921,-0.89662 l 2.6258,-6.77808 -6.5859,7.95223 q -0.6618,0.81123 -1.9427,0.81123 l -2.1668,0 4.3123,-12.32862 -5.9241,0 1.6118,-2.68988 7.1303,0 q 1.473,0 1.473,1.07809 0,0.41629 -0.2028,1.00337 l -2.2949,6.61796 4.5898,-5.1983 q 0.8753,-1.00337 1.345,-1.30225 0.7792,-0.49101 2.0174,-0.49101 0.3522,0 0.7365,0.24551 0.5871,0.38426 0.5871,1.14213 0,0.46966 -0.2349,1.05674 l -2.0707,5.37976 4.1095,-4.13089 q 0.8753,-0.87528 1.1635,-1.05674 0.5017,-0.2882 1.441,-0.27753 0.3736,0 0.7899,0.27753 0.6404,0.41629 0.6404,1.21685 0,0.45899 -0.2135,1.01405 l -2.5511,6.73537 4.8034,0 z"
             style="font-style:normal;font-variant:normal;font-weight:bold;font-stretch:semi-expanded;font-family:Magneto;-inkscape-font-specification:'Magneto Bold Semi-Expanded'"
             id="path4196" />
        </g>
        <g
           transform="scale(0.96632044,1.0348534)"
           style="font-style:normal;font-weight:normal;font-size:21.26290512px;line-height:125%;font-family:sans-serif;letter-spacing:0px;word-spacing:0px;fill:#000000;fill-opacity:1;stroke:none;stroke-width:1px;stroke-linecap:butt;stroke-linejoin:miter;stroke-opacity:1"
           id="text4164">
          <path
             inkscape:connector-curvature="0"
             d="m 1114.172,385.87065 q 0,1.52619 -1.6092,2.85512 -0.9656,0.79944 -2.9382,1.76499 0.7994,1.38084 0.7994,2.50213 0,2.31525 -2.9901,3.42615 -2.1387,0.78906 -4.9835,0.78906 l -5.3987,0 3.748,-10.65222 3.7376,0 -3.1874,8.99105 0.5295,0 q 1.8169,0 3.0732,-0.41529 1.8584,-0.63332 1.8584,-2.06607 0,-0.45682 -0.4153,-1.09014 -0.4153,-0.6437 -0.4153,-0.93441 0,-0.14535 0.021,-0.20764 0.2076,-0.45682 1.1316,-0.89288 1.2771,-0.61255 1.8689,-1.13167 0.9967,-0.86173 0.9967,-1.99339 0,-1.59888 -2.4399,-1.59888 l -12.1472,0 1.5988,-2.61633 12.1161,0 q 2.388,0 3.5819,0.6437 1.4639,0.78906 1.4639,2.62672 z"
             style="font-style:normal;font-variant:normal;font-weight:bold;font-stretch:semi-expanded;font-family:Magneto;-inkscape-font-specification:'Magneto Bold Semi-Expanded';letter-spacing:2.20071006px;baseline-shift:baseline"
             id="path4199" />
        </g>
      </g>
    </g>
    <text
       xml:space="preserve"
       style="font-style:normal;font-weight:normal;font-size:22.60801697px;line-height:125%;font-family:sans-serif;letter-spacing:0px;word-spacing:0px;fill:#000000;fill-opacity:1;stroke:none;stroke-width:1px;stroke-linecap:butt;stroke-linejoin:miter;stroke-opacity:1"
       x="107.06927"
       y="227.21523"
       id="text4180"
       sodipodi:linespacing="125%"><tspan
         sodipodi:role="line"
         id="tspan4182"
         x="107.06927"
         y="227.21523"
         style="font-style:normal;font-variant:normal;font-weight:normal;font-stretch:normal;font-family:Papyrus;-inkscape-font-specification:Papyrus">Russian Imperial Stout</tspan></text>
    <g
       id="g4262">
      <text
         sodipodi:linespacing="125%"
         id="text4140"
         y="6.8095021"
         x="92.853928"
         style="font-style:normal;font-weight:normal;font-size:40px;line-height:125%;font-family:sans-serif;letter-spacing:0px;word-spacing:0px;fill:#000000;fill-opacity:1;stroke:none;stroke-width:1px;stroke-linecap:butt;stroke-linejoin:miter;stroke-opacity:1"
         xml:space="preserve"><tspan
           style="font-style:normal;font-variant:normal;font-weight:normal;font-stretch:normal;font-family:'Rage Italic';-inkscape-font-specification:'Rage Italic, '"
           id="tspan4144"
           y="6.8095021"
           x="92.853928"
           sodipodi:role="line">Signature Series</tspan></text>
      <text
         sodipodi:linespacing="125%"
         id="text4184"
         y="29.058947"
         x="128.33218"
         style="font-style:normal;font-weight:normal;font-size:13.36241436px;line-height:125%;font-family:sans-serif;letter-spacing:0px;word-spacing:0px;fill:#000000;fill-opacity:1;stroke:none;stroke-width:1px;stroke-linecap:butt;stroke-linejoin:miter;stroke-opacity:1"
         xml:space="preserve"><tspan
           style="font-style:normal;font-variant:normal;font-weight:normal;font-stretch:normal;font-family:Papyrus;-inkscape-font-specification:Papyrus"
           y="29.058947"
           x="128.33218"
           id="tspan4186"
           sodipodi:role="line">Aged in American Oak Barrels</tspan></text>
    </g>
    <text
       xml:space="preserve"
       style="font-style:normal;font-variant:normal;font-weight:normal;font-stretch:normal;font-size:12.5px;line-height:125%;font-family:Papyrus;-inkscape-font-specification:Papyrus;letter-spacing:0px;word-spacing:0px;fill:#000000;fill-opacity:1;stroke:none;stroke-width:1px;stroke-linecap:butt;stroke-linejoin:miter;stroke-opacity:1"
       x="156.37688"
       y="260.20465"
       id="text4234"
       sodipodi:linespacing="125%"><tspan
         sodipodi:role="line"
         id="tspan4236"
         x="156.37688"
         y="260.20465"
         style="font-size:10px">10 % ABV 52 IBU 25 OZ.</tspan></text>
  </g>
</svg>
