<?xml version="1.0" encoding="UTF-8" standalone="no"?>
<!-- Created with Inkscape (http://www.inkscape.org/) -->

<svg
   xmlns:dc="http://purl.org/dc/elements/1.1/"
   xmlns:cc="http://creativecommons.org/ns#"
   xmlns:rdf="http://www.w3.org/1999/02/22-rdf-syntax-ns#"
   xmlns:svg="http://www.w3.org/2000/svg"
   xmlns="http://www.w3.org/2000/svg"
   xmlns:sodipodi="http://sodipodi.sourceforge.net/DTD/sodipodi-0.dtd"
   xmlns:inkscape="http://www.inkscape.org/namespaces/inkscape"
   width="2.0999999in"
   height="2in"
   viewBox="0 0 188.99999 179.99999"
   id="svg2"
   version="1.1"
   inkscape:version="0.91 r13725"
   sodipodi:docname="WhitePawInitialsInPawTransparent.svg">
  <defs
     id="defs4" />
  <sodipodi:namedview
     id="base"
     pagecolor="#ffffff"
     bordercolor="#666666"
     borderopacity="1.0"
     inkscape:pageopacity="0.0"
     inkscape:pageshadow="2"
     inkscape:zoom="1.4"
     inkscape:cx="126.44503"
     inkscape:cy="50.922414"
     inkscape:document-units="px"
     inkscape:current-layer="layer1"
     showgrid="false"
     inkscape:window-width="1442"
     inkscape:window-height="764"
     inkscape:window-x="2097"
     inkscape:window-y="132"
     inkscape:window-maximized="0"
     fit-margin-top="0"
     fit-margin-left="0"
     fit-margin-right="0"
     fit-margin-bottom="0"
     units="in" />
  <metadata
     id="metadata7">
    <rdf:RDF>
      <cc:Work
         rdf:about="">
        <dc:format>image/svg+xml</dc:format>
        <dc:type
           rdf:resource="http://purl.org/dc/dcmitype/StillImage" />
        <dc:title />
      </cc:Work>
    </rdf:RDF>
  </metadata>
  <g
     inkscape:label="Layer 1"
     inkscape:groupmode="layer"
     id="layer1"
     transform="translate(1266.0601,-753.21467)">
    <g
       id="g7315">
      <path
         sodipodi:nodetypes="cccccccccccccccccccccsccccccsccc"
         inkscape:connector-curvature="0"
         id="path3409"
         d="m -1235.4879,877.04141 c 10.632,4.41337 16.4442,-2.94308 25.9447,-10.73873 7.9614,-6.23212 14.5662,-5.37445 12.5401,6.3889 -2.4629,10.26238 -17.2661,11.20624 -17.5284,22.28508 -2.1993,17.01015 11.4268,34.26797 28.5743,35.82981 14.6119,1.81741 29.0641,-3.13532 43.0127,-6.89239 14.4791,-4.64209 28.5786,-10.44318 42.5764,-16.32849 10.3718,-7.11189 16.6063,-19.96792 14.3913,-32.56605 -0.3008,-10.1431 -7.6331,-19.34186 -18.0017,-20.51243 -5.0704,0.97671 -21.2753,-7.05978 -10.8187,-10.2277 10.2016,2.48032 21.8979,0.74517 28.2853,-8.41982 9.9537,-11.58956 10.5326,-34.42283 5.1843,-48.22751 -5.5066,-9.80875 -12.5841,-17.69574 -24.4361,-16.77689 -9.5545,-0.30703 -15.078,15.36574 -17.4648,22.48023 -4.8106,9.96376 -1.348,2.84365 -4.8106,9.96376 0.9537,-1.77957 1.6071,-3.30357 -0.066,0.17395 3.4606,-8.68451 1.2291,-17.37743 -2.6003,-25.57758 -5.2238,-10.04637 -17.7275,-18.41352 -28.8908,-21.24183 -8.7357,-0.91469 -15.8086,-3.4493 -20.9013,5.1026 -4.3219,7.83433 -1.8735,21.05098 1.9391,28.07534 0.9254,5.76324 4.7459,19.69765 -4.5843,10.84276 -2.2996,-3.26873 -5.2929,-6.41247 -6.4822,-10.43111 -1.6927,-5.71923 -1.3798,-12.47804 -4.3421,-17.61208 -5.5565,-8.19491 -21.571,-1.967 -21.571,-1.967 -11.5017,9.03009 -9.2902,6.58492 -15.4832,23.49877 0.3499,9.05661 -1.9333,26.71055 5.3458,31.31994 -3.3249,3.41724 -14.5909,-11.39739 -20.6552,-11.5423 -11.021,-2.3309 -18.7969,10.03639 -18.5373,19.81908 -1.05,9.58963 2.535,21.44242 8.3882,29.54078 0.3543,0.49026 3.148,2.88315 3.4932,3.28182 3.906,4.66638 8.2283,5.90653 13.2129,8.852 z"
         style="fill:#ffffff;fill-rule:evenodd;stroke:#ffffff;stroke-width:1px;stroke-linecap:butt;stroke-linejoin:miter;stroke-opacity:1" />
      <path
         inkscape:connector-curvature="0"
         id="path3379"
         d="m -1248.7768,816.91362 c -3.325,0.21802 -6.1038,2.48001 -7.5952,5.36133 -1.1831,1.65298 -2.437,3.26688 -3.0894,5.21899 -0.7274,1.64157 -1.5728,3.24934 -1.6284,5.08343 -0.7377,4.95299 -0.3755,10.11306 1.1418,14.88524 2.0741,4.81299 3.7243,9.89679 7.0066,14.07404 1.8677,2.7171 4.5738,4.66519 6.7712,7.0902 2.7507,1.88981 5.7924,3.42508 8.9359,4.56254 3.2824,0.78114 6.7096,0.20655 10.0448,0.13918 4.5229,-0.61807 8.8808,-2.42835 12.7675,-4.77982 3.672,-3.29829 6.3793,-7.67742 7.9764,-12.33173 1.9972,-5.84714 0.3482,-12.76225 -4.1612,-16.99125 -2.744,-2.2772 -5.886,-3.944 -9.0387,-5.56456 -2.9777,-1.88603 -5.9567,-3.76453 -8.9989,-5.53837 -4.4678,-3.07744 -7.8934,-7.58718 -12.9998,-9.73501 -2.2529,-0.92257 -4.6674,-1.7422 -7.1326,-1.47421 z"
         style="fill:#ffffff;fill-opacity:1;stroke:none;stroke-width:0.21668187px;stroke-linecap:butt;stroke-linejoin:miter;stroke-opacity:1" />
      <path
         inkscape:connector-curvature="0"
         id="path3381"
         d="m -1208.9999,908.2151 c -2.0738,-4.23177 -2.3301,-9.02965 -1.9648,-13.63789 0.7278,-3.72827 3.4651,-6.58664 6.7821,-8.23629 3.6019,-2.19229 6.4154,-5.6211 8.3085,-9.35071 2.2762,-3.10924 2.6769,-7.16979 2.517,-10.87873 -2.0083,-6.84701 -1.5927,-14.67823 2.4334,-20.71782 4.3223,-6.36413 11.2647,-10.48754 18.6165,-12.39635 4.8056,-1.22407 9.6401,-2.36935 14.3646,-3.87822 4.3565,-0.60469 8.8438,-0.93971 13.2041,-0.4061 5.5757,0.75784 10.5919,3.91988 14.4087,7.93042 2.51,3.57706 5.4248,7.14172 6.0732,11.59897 3.0825,4.0637 7.7911,6.21958 12.0906,8.69633 4.5731,2.57742 10.2329,-0.35681 14.7215,2.46041 3.179,1.85238 5.4152,5.1545 7.1845,8.33814 1.3433,3.02254 1.9673,6.38998 2.3783,9.64043 -0.3205,3.68543 -0.035,7.50483 -0.7332,11.10765 -1.3404,3.92585 -3.1619,7.73796 -6.2381,10.61515 -3.3641,4.00259 -7.4796,7.43805 -12.4308,9.25634 -7.3604,3.83705 -15.3152,6.26731 -23.041,9.24411 -5.8782,2.10686 -11.9553,3.67632 -18.0212,5.15405 -11.523,2.53454 -23.1504,5.56202 -35.0375,5.1104 -4.8875,-0.45809 -9.6036,-2.03963 -13.6096,-4.90959 -5.8897,-2.99279 -9.3457,-8.94539 -12.0068,-14.7407 z"
         style="fill:#ffffff;fill-opacity:1;stroke:none;stroke-width:0.21668185px;stroke-linecap:butt;stroke-linejoin:miter;stroke-opacity:1" />
      <path
         inkscape:connector-curvature="0"
         id="path3383"
         d="m -1204.8315,771.97782 c -2.5997,0.58491 -5.0013,1.82939 -7.5688,2.52809 -2.2917,1.18482 -4.4437,2.65034 -6.2428,4.51583 -1.9569,1.54293 -3.7216,3.34795 -4.758,5.65963 -3.4795,5.91723 -4.4402,12.86087 -4.6536,19.61334 -0.8256,7.01301 1.0112,14.32892 5.0084,20.14156 2.8843,3.29416 6.05,6.5627 10.252,8.11291 3.3617,1.67575 7.092,2.2098 10.7542,2.79991 5.1526,0.63208 9.8967,-2.03238 14.0905,-4.68047 3.1339,-2.45296 6.5915,-5.22306 7.565,-9.27847 1.511,-5.15453 0.3396,-10.98564 -2.6244,-15.40779 -2.5447,-3.00474 -5.317,-5.85505 -7.3025,-9.2967 -1.5131,-1.90263 -2.6613,-4.10903 -2.749,-6.58703 -0.349,-2.47862 0.5499,-5.01908 -0.4422,-7.41973 -0.5288,-4.03092 -2.8541,-7.78454 -6.1688,-10.10159 -1.633,-0.55423 -3.4579,-0.60778 -5.16,-0.59949 z"
         style="fill:#ffffff;fill-opacity:1;stroke:none;stroke-width:0.21668187px;stroke-linecap:butt;stroke-linejoin:miter;stroke-opacity:1" />
      <path
         inkscape:connector-curvature="0"
         id="path3385"
         d="m -1163.7957,759.91378 c -3.3606,0.0615 -6.6671,0.85091 -9.8946,1.69347 -1.7338,0.9807 -3.5422,1.99737 -4.997,3.3215 -0.4997,1.47052 -1.407,2.87129 -1.086,4.48224 0.1263,2.6281 0.081,5.3233 0.7117,7.88077 0.5635,1.68878 1.2822,3.29782 2.3768,4.71375 0.8054,1.41412 2.2197,2.5428 2.3312,4.2592 0.8021,3.05353 0.1766,6.24432 0.032,9.34907 -0.3051,2.81057 -0.3892,5.62646 -0.2099,8.44867 0.05,1.94332 0.4144,3.89547 0.8841,5.77105 0.6421,1.46845 0.9086,3.16986 2.2306,4.21669 1.1894,1.35086 2.5343,2.59074 3.9206,3.71708 1.8016,0.78889 3.6062,1.56827 5.5777,1.8013 1.959,0.35903 3.9905,0.33109 5.9766,0.31439 2.4109,-0.19676 4.8396,-0.28904 7.152,-1.06727 1.5695,-0.48485 3.3344,-0.54475 4.5785,-1.73671 2.1335,-1.31632 3.8646,-3.15118 5.6064,-4.92507 1.6108,-2.18157 3.5009,-4.18533 4.574,-6.70924 0.9439,-1.65646 1.739,-3.37203 2.1335,-5.24691 0.7073,-2.13148 0.4086,-4.42828 0.6331,-6.6391 -0.484,-3.78322 -1.6853,-7.43195 -2.9559,-11.0081 -1.5751,-2.47508 -2.9114,-5.11993 -4.6436,-7.48338 -2.2232,-2.6385 -4.3462,-5.40884 -6.9053,-7.72422 -2.7796,-2.10024 -5.7475,-3.91025 -8.768,-5.63912 -1.7419,-0.96261 -3.7678,-1.41512 -5.7367,-1.59429 -1.1739,-0.0653 -2.3479,-0.13051 -3.5219,-0.19577 z"
         style="fill:#ffffff;fill-opacity:1;stroke:none;stroke-width:0.21668187px;stroke-linecap:butt;stroke-linejoin:miter;stroke-opacity:1" />
      <path
         inkscape:connector-curvature="0"
         id="path3387"
         d="m -1105.0678,773.92493 c -3.3484,0.10414 -6.6631,1.61376 -8.5394,4.46306 -2.7558,3.10133 -3.1657,7.42231 -4.0667,11.30619 -0.8593,3.04369 -3.0898,5.4799 -3.8652,8.55881 -1.5516,3.51517 -3.3391,6.91701 -5.1427,10.31405 -1.8522,2.97323 -2.7852,6.22793 -2.2378,9.73759 -0.4902,3.14205 0.5985,6.08316 2.2801,8.7041 2.9998,3.64874 7.3566,5.80672 11.6654,7.53949 2.5613,1.51809 5.5543,1.61649 8.4517,1.49723 3.6889,-0.16234 7.0714,-1.82484 10.5103,-3.0141 4.1745,-1.69384 7.3735,-5.11889 10.107,-8.594 2.4318,-3.63149 3.6514,-8.01172 4.1695,-12.31524 0.4581,-5.1703 0.041,-10.37674 -0.676,-15.50434 -1.0056,-5.35447 -3.1323,-10.61645 -6.9685,-14.57747 -2.5919,-2.94562 -6.0288,-4.98916 -9.4189,-6.87492 -1.9429,-0.98923 -4.155,-1.04768 -6.2688,-1.24045 z"
         style="fill:#ffffff;fill-opacity:1;stroke:none;stroke-width:0.21668187px;stroke-linecap:butt;stroke-linejoin:miter;stroke-opacity:1" />
      <path
         inkscape:connector-curvature="0"
         id="path3391"
         style="font-style:normal;font-variant:normal;font-weight:bold;font-stretch:semi-expanded;font-size:medium;line-height:125%;font-family:Magneto;-inkscape-font-specification:'Magneto Bold Semi-Expanded';letter-spacing:0.84427279px;word-spacing:0.03670751px;fill:none;fill-opacity:1;stroke:none;stroke-width:1px;stroke-linecap:butt;stroke-linejoin:miter;stroke-opacity:1"
         d="m -1172.4144,887.45777 0.5491,20.43163 q 0.035,1.47929 -0.7953,2.66299 -0.8299,1.18366 -2.1923,1.70663 l -11.3378,4.35242 q -0.1484,-1.46959 0.5791,-2.61393 0.7219,-1.1591 2.0988,-1.6877 l 6.3281,-2.42925 -0.2031,-9.98033 -2.6372,6.42317 q -0.8179,1.97623 -3.0885,2.84784 -1.3183,0.50609 -2.4487,0.26159 -1.2956,-0.28291 -1.7733,-1.55822 -0.2277,-0.608 -0.2502,-1.29485 l -0.192,-9.95062 -2.6367,1.0122 q 0.2141,0.39271 0.3196,0.67448 0.55,1.46811 -0.2038,2.94479 -0.7391,1.47104 -2.3505,2.08961 -1.6113,0.61855 -3.1427,0.0191 -1.5314,-0.59944 -2.0813,-2.06755 -0.5777,-1.54228 0.2347,-3.04144 0.7759,-1.41735 2.2994,-2.00217 l 9.5214,-3.65513 q 1.0108,-0.38801 1.8684,-0.0218 0.8521,0.35139 1.2353,1.3746 0.2167,0.57838 0.2336,1.25033 l 0.2015,10.06575 4.4307,-14.47304 q 0.1703,-0.57424 0.7951,-1.18722 0.6248,-0.61323 1.1961,-0.83254 l 3.4424,-1.32147 z" />
      <path
         inkscape:connector-curvature="0"
         id="path3393"
         style="font-style:normal;font-variant:normal;font-weight:bold;font-stretch:semi-expanded;font-size:medium;line-height:125%;font-family:Magneto;-inkscape-font-specification:'Magneto Bold Semi-Expanded';letter-spacing:0.84427279px;word-spacing:0.03670751px;fill:none;fill-opacity:1;stroke:none;stroke-width:1px;stroke-linecap:butt;stroke-linejoin:miter;stroke-opacity:1"
         d="m -1129.709,892.21515 q 0.2735,2.60888 -3.1835,3.93596 l -5.2588,2.01877 q -2.4609,0.94471 -2.9997,-0.49375 -0.1889,-0.50422 -0.1869,-1.43787 l 0.032,-7.33974 -4.2438,10.85634 q -0.6775,1.76968 -2.0691,2.3039 -0.2635,0.10113 -0.5733,0.16908 -1.7421,0.4484 -2.3032,-1.0495 -0.2166,-0.57834 -0.2027,-1.34695 l 0.076,-10.79997 -4.8998,14.51744 q -0.4861,1.47568 -2.2439,2.15047 l -2.9736,1.14153 -0.4977,-19.39972 -8.1299,3.12091 0.8121,-4.58614 9.7852,-3.75634 q 2.0214,-0.77602 2.5825,0.72175 0.2166,0.57835 0.2437,1.50087 l 0.2945,10.40317 3.5937,-9.63989 q 0.679,-1.85506 1.168,-2.51774 0.8138,-1.09261 2.5131,-1.74492 0.4834,-0.18557 1.1385,-0.0468 1.0056,0.2246 1.4,1.27747 0.2444,0.6525 0.2274,1.59189 l -0.042,8.56496 3.49,-7.90393 q 0.7457,-1.67716 1.0467,-2.08105 0.5385,-0.66479 1.8331,-1.14491 0.5127,-0.19681 1.2285,-0.0304 1.0955,0.24094 1.5121,1.35312 0.2389,0.63766 0.2348,1.52126 l 0,10.7013 6.5918,-2.53047 z" />
      <path
         inkscape:connector-curvature="0"
         id="path3395"
         style="font-style:normal;font-variant:normal;font-weight:bold;font-stretch:semi-expanded;font-size:medium;line-height:125%;font-family:Magneto;-inkscape-font-specification:'Magneto Bold Semi-Expanded';letter-spacing:0.84427279px;word-spacing:0.03670751px;fill:none;fill-opacity:1;stroke:none;stroke-width:1px;stroke-linecap:butt;stroke-linejoin:miter;stroke-opacity:1"
         d="m -1104.6442,866.78487 q 0.8165,2.17994 -0.743,4.94972 -0.9346,1.6648 -3.2013,4.11237 1.8668,1.53933 2.4667,3.14088 1.2387,3.30696 -2.3857,6.51321 -2.5955,2.28543 -6.6091,3.82621 l -7.6172,2.9241 -0.411,-17.24494 5.2734,-2.02439 0.3133,14.5686 0.7471,-0.28678 q 2.5635,-0.98408 4.1137,-2.25768 2.2832,-1.91115 1.5167,-3.9576 -0.2444,-0.65251 -1.1691,-1.33216 -0.9304,-0.69449 -1.0859,-1.10974 -0.078,-0.20781 -0.082,-0.30774 0.048,-0.76497 1.1189,-1.88825 1.4741,-1.56658 2.0313,-2.6286 0.9452,-1.77068 0.3397,-3.38708 -0.8554,-2.28372 -4.2978,-0.96224 l -17.1386,6.57923 0.8561,-4.603 17.0947,-6.56237 q 3.3691,-1.29335 5.3981,-1.0206 2.4876,0.33413 3.4707,2.95893 z" />
    </g>
  </g>
</svg>
