<?xml version="1.0" encoding="UTF-8" standalone="no"?>
<!-- Created with Inkscape (http://www.inkscape.org/) -->

<svg
   xmlns:dc="http://purl.org/dc/elements/1.1/"
   xmlns:cc="http://creativecommons.org/ns#"
   xmlns:rdf="http://www.w3.org/1999/02/22-rdf-syntax-ns#"
   xmlns:svg="http://www.w3.org/2000/svg"
   xmlns="http://www.w3.org/2000/svg"
   xmlns:sodipodi="http://sodipodi.sourceforge.net/DTD/sodipodi-0.dtd"
   xmlns:inkscape="http://www.inkscape.org/namespaces/inkscape"
   width="19.80266mm"
   height="2.50425mm"
   viewBox="0 0 70.166905 8.873327"
   id="svg2"
   version="1.1"
   inkscape:version="0.91 r13725"
   sodipodi:docname="YellowMuttBrewery_iconWebsite_white.svg">
  <defs
     id="defs4">
    <circle
       r="135.36044"
       cy="-518.94434"
       cx="-1672.8126"
       transform="matrix(0.87313433,0,0,0.87313433,82.634626,171.16652)"
       id="path3965-0"
       style="fill:#ffcc00;fill-opacity:1" />
    <path
       transform="matrix(-0.87313433,0,0,-0.87313433,-2838.5454,-735.06511)"
       d="m -1672.8125,-692.06055 c -95.1625,0 -173.123,77.96051 -173.123,173.12305 0,95.16254 77.971,173.0918 173.123,173.0918 95.152,0 173.123,-77.92926 173.123,-173.0918 0,-95.16254 -77.9605,-173.12305 -173.123,-173.12305 z"
       id="path4039-9"
       style="fill:#000000;fill-opacity:1"
       inkscape:original="M -1672.8125 -654.3125 C -1747.57 -654.3125 -1808.1875 -593.69501 -1808.1875 -518.9375 C -1808.1875 -444.17999 -1747.57 -383.59375 -1672.8125 -383.59375 C -1598.055 -383.59375 -1537.4375 -444.17999 -1537.4375 -518.9375 C -1537.4375 -593.69501 -1598.055 -654.3125 -1672.8125 -654.3125 z "
       inkscape:radius="37.747246"
       sodipodi:type="inkscape:offset" />
    <circle
       r="135.36044"
       cy="-518.94434"
       cx="-1672.8126"
       transform="matrix(0.87313433,0,0,0.87313433,82.634626,171.16652)"
       id="path3965-0-3"
       style="fill:#ffcc00;fill-opacity:1" />
    <path
       transform="matrix(-0.87313433,0,0,-0.87313433,-2838.5454,-735.06511)"
       d="m -1672.8125,-692.06055 c -95.1625,0 -173.123,77.96051 -173.123,173.12305 0,95.16254 77.971,173.0918 173.123,173.0918 95.152,0 173.123,-77.92926 173.123,-173.0918 0,-95.16254 -77.9605,-173.12305 -173.123,-173.12305 z"
       id="path4039-9-8"
       style="fill:#000000;fill-opacity:1"
       inkscape:original="M -1672.8125 -654.3125 C -1747.57 -654.3125 -1808.1875 -593.69501 -1808.1875 -518.9375 C -1808.1875 -444.17999 -1747.57 -383.59375 -1672.8125 -383.59375 C -1598.055 -383.59375 -1537.4375 -444.17999 -1537.4375 -518.9375 C -1537.4375 -593.69501 -1598.055 -654.3125 -1672.8125 -654.3125 z "
       inkscape:radius="37.747246"
       sodipodi:type="inkscape:offset" />
    <path
       sodipodi:type="inkscape:offset"
       inkscape:radius="37.747246"
       inkscape:original="M -1672.8125 -654.3125 C -1747.57 -654.3125 -1808.1875 -593.69501 -1808.1875 -518.9375 C -1808.1875 -444.17999 -1747.57 -383.59375 -1672.8125 -383.59375 C -1598.055 -383.59375 -1537.4375 -444.17999 -1537.4375 -518.9375 C -1537.4375 -593.69501 -1598.055 -654.3125 -1672.8125 -654.3125 z "
       style="fill:#000000;fill-opacity:1"
       id="path4039-9-1"
       d="m -1672.8125,-692.06055 c -95.1625,0 -173.123,77.96051 -173.123,173.12305 0,95.16254 77.971,173.0918 173.123,173.0918 95.152,0 173.123,-77.92926 173.123,-173.0918 0,-95.16254 -77.9605,-173.12305 -173.123,-173.12305 z"
       transform="matrix(-0.87313433,0,0,-0.87313433,-2838.5454,-735.06511)" />
    <circle
       r="135.36044"
       cy="-518.94434"
       cx="-1672.8126"
       style="fill:#ffcc00;fill-opacity:1"
       id="path3965-0-1"
       transform="matrix(0.87313433,0,0,0.87313433,82.634626,171.16652)" />
    <path
       sodipodi:type="inkscape:offset"
       inkscape:radius="37.747246"
       inkscape:original="M -1672.8125 -654.3125 C -1747.57 -654.3125 -1808.1875 -593.69501 -1808.1875 -518.9375 C -1808.1875 -444.17999 -1747.57 -383.59375 -1672.8125 -383.59375 C -1598.055 -383.59375 -1537.4375 -444.17999 -1537.4375 -518.9375 C -1537.4375 -593.69501 -1598.055 -654.3125 -1672.8125 -654.3125 z "
       style="fill:#000000;fill-opacity:1"
       id="path4039-9-2"
       d="m -1672.8125,-692.06055 c -95.1625,0 -173.123,77.96051 -173.123,173.12305 0,95.16254 77.971,173.0918 173.123,173.0918 95.152,0 173.123,-77.92926 173.123,-173.0918 0,-95.16254 -77.9605,-173.12305 -173.123,-173.12305 z"
       transform="matrix(-0.87313433,0,0,-0.87313433,-2838.5454,-735.06511)" />
    <circle
       r="135.36044"
       cy="-518.94434"
       cx="-1672.8126"
       style="fill:#ffcc00;fill-opacity:1"
       id="path3965-0-8"
       transform="matrix(0.87313433,0,0,0.87313433,82.634626,171.16652)" />
    <circle
       r="135.36044"
       cy="-518.94434"
       cx="-1672.8126"
       transform="matrix(0.87313433,0,0,0.87313433,82.634626,171.16652)"
       id="path3965-0-5"
       style="fill:#ffcc00;fill-opacity:1" />
    <path
       transform="matrix(-0.87313433,0,0,-0.87313433,-2838.5454,-735.06511)"
       d="m -1672.8125,-692.06055 c -95.1625,0 -173.123,77.96051 -173.123,173.12305 0,95.16254 77.971,173.0918 173.123,173.0918 95.152,0 173.123,-77.92926 173.123,-173.0918 0,-95.16254 -77.9605,-173.12305 -173.123,-173.12305 z"
       id="path4039-9-20"
       style="fill:#000000;fill-opacity:1"
       inkscape:original="M -1672.8125 -654.3125 C -1747.57 -654.3125 -1808.1875 -593.69501 -1808.1875 -518.9375 C -1808.1875 -444.17999 -1747.57 -383.59375 -1672.8125 -383.59375 C -1598.055 -383.59375 -1537.4375 -444.17999 -1537.4375 -518.9375 C -1537.4375 -593.69501 -1598.055 -654.3125 -1672.8125 -654.3125 z "
       inkscape:radius="37.747246"
       sodipodi:type="inkscape:offset" />
    <circle
       r="135.36044"
       cy="-518.94434"
       cx="-1672.8126"
       transform="matrix(0.87313433,0,0,0.87313433,82.634626,171.16652)"
       id="path3965-0-2"
       style="fill:#ffcc00;fill-opacity:1" />
    <path
       transform="matrix(-0.87313433,0,0,-0.87313433,-2838.5454,-735.06511)"
       d="m -1672.8125,-692.06055 c -95.1625,0 -173.123,77.96051 -173.123,173.12305 0,95.16254 77.971,173.0918 173.123,173.0918 95.152,0 173.123,-77.92926 173.123,-173.0918 0,-95.16254 -77.9605,-173.12305 -173.123,-173.12305 z"
       id="path4039-9-5"
       style="fill:#000000;fill-opacity:1"
       inkscape:original="M -1672.8125 -654.3125 C -1747.57 -654.3125 -1808.1875 -593.69501 -1808.1875 -518.9375 C -1808.1875 -444.17999 -1747.57 -383.59375 -1672.8125 -383.59375 C -1598.055 -383.59375 -1537.4375 -444.17999 -1537.4375 -518.9375 C -1537.4375 -593.69501 -1598.055 -654.3125 -1672.8125 -654.3125 z "
       inkscape:radius="37.747246"
       sodipodi:type="inkscape:offset" />
    <circle
       r="135.36044"
       cy="-518.94434"
       cx="-1672.8126"
       transform="matrix(0.87313433,0,0,0.87313433,82.634626,171.16652)"
       id="path3965-0-3-7"
       style="fill:#ffcc00;fill-opacity:1" />
    <path
       transform="matrix(-0.87313433,0,0,-0.87313433,-2838.5454,-735.06511)"
       d="m -1672.8125,-692.06055 c -95.1625,0 -173.123,77.96051 -173.123,173.12305 0,95.16254 77.971,173.0918 173.123,173.0918 95.152,0 173.123,-77.92926 173.123,-173.0918 0,-95.16254 -77.9605,-173.12305 -173.123,-173.12305 z"
       id="path4039-9-8-6"
       style="fill:#000000;fill-opacity:1"
       inkscape:original="M -1672.8125 -654.3125 C -1747.57 -654.3125 -1808.1875 -593.69501 -1808.1875 -518.9375 C -1808.1875 -444.17999 -1747.57 -383.59375 -1672.8125 -383.59375 C -1598.055 -383.59375 -1537.4375 -444.17999 -1537.4375 -518.9375 C -1537.4375 -593.69501 -1598.055 -654.3125 -1672.8125 -654.3125 z "
       inkscape:radius="37.747246"
       sodipodi:type="inkscape:offset" />
    <path
       sodipodi:type="inkscape:offset"
       inkscape:radius="37.747246"
       inkscape:original="M -1672.8125 -654.3125 C -1747.57 -654.3125 -1808.1875 -593.69501 -1808.1875 -518.9375 C -1808.1875 -444.17999 -1747.57 -383.59375 -1672.8125 -383.59375 C -1598.055 -383.59375 -1537.4375 -444.17999 -1537.4375 -518.9375 C -1537.4375 -593.69501 -1598.055 -654.3125 -1672.8125 -654.3125 z "
       style="fill:#000000;fill-opacity:1"
       id="path4039-9-1-9"
       d="m -1672.8125,-692.06055 c -95.1625,0 -173.123,77.96051 -173.123,173.12305 0,95.16254 77.971,173.0918 173.123,173.0918 95.152,0 173.123,-77.92926 173.123,-173.0918 0,-95.16254 -77.9605,-173.12305 -173.123,-173.12305 z"
       transform="matrix(-0.87313433,0,0,-0.87313433,-2838.5454,-735.06511)" />
    <circle
       r="135.36044"
       cy="-518.94434"
       cx="-1672.8126"
       style="fill:#ffcc00;fill-opacity:1"
       id="path3965-0-1-3"
       transform="matrix(0.87313433,0,0,0.87313433,82.634626,171.16652)" />
    <path
       sodipodi:type="inkscape:offset"
       inkscape:radius="37.747246"
       inkscape:original="M -1672.8125 -654.3125 C -1747.57 -654.3125 -1808.1875 -593.69501 -1808.1875 -518.9375 C -1808.1875 -444.17999 -1747.57 -383.59375 -1672.8125 -383.59375 C -1598.055 -383.59375 -1537.4375 -444.17999 -1537.4375 -518.9375 C -1537.4375 -593.69501 -1598.055 -654.3125 -1672.8125 -654.3125 z "
       style="fill:#000000;fill-opacity:1"
       id="path4039-9-2-3"
       d="m -1672.8125,-692.06055 c -95.1625,0 -173.123,77.96051 -173.123,173.12305 0,95.16254 77.971,173.0918 173.123,173.0918 95.152,0 173.123,-77.92926 173.123,-173.0918 0,-95.16254 -77.9605,-173.12305 -173.123,-173.12305 z"
       transform="matrix(-0.87313433,0,0,-0.87313433,-2838.5454,-735.06511)" />
    <circle
       r="135.36044"
       cy="-518.94434"
       cx="-1672.8126"
       style="fill:#ffcc00;fill-opacity:1"
       id="path3965-0-8-5"
       transform="matrix(0.87313433,0,0,0.87313433,82.634626,171.16652)" />
    <circle
       r="135.36044"
       cy="-518.94434"
       cx="-1672.8126"
       transform="matrix(0.87313433,0,0,0.87313433,82.634626,171.16652)"
       id="path3965-0-5-8"
       style="fill:#ffcc00;fill-opacity:1" />
    <path
       transform="matrix(-0.87313433,0,0,-0.87313433,-2838.5454,-735.06511)"
       d="m -1672.8125,-692.06055 c -95.1625,0 -173.123,77.96051 -173.123,173.12305 0,95.16254 77.971,173.0918 173.123,173.0918 95.152,0 173.123,-77.92926 173.123,-173.0918 0,-95.16254 -77.9605,-173.12305 -173.123,-173.12305 z"
       id="path4039-9-20-0"
       style="fill:#000000;fill-opacity:1"
       inkscape:original="M -1672.8125 -654.3125 C -1747.57 -654.3125 -1808.1875 -593.69501 -1808.1875 -518.9375 C -1808.1875 -444.17999 -1747.57 -383.59375 -1672.8125 -383.59375 C -1598.055 -383.59375 -1537.4375 -444.17999 -1537.4375 -518.9375 C -1537.4375 -593.69501 -1598.055 -654.3125 -1672.8125 -654.3125 z "
       inkscape:radius="37.747246"
       sodipodi:type="inkscape:offset" />
    <circle
       style="fill:#ffcc00;fill-opacity:1"
       id="path3965-0-4"
       transform="matrix(0.87313433,0,0,0.87313433,82.634626,171.16652)"
       cx="-1672.8126"
       cy="-518.94434"
       r="135.36044" />
    <path
       sodipodi:type="inkscape:offset"
       inkscape:radius="37.747246"
       inkscape:original="M -1672.8125 -654.3125 C -1747.57 -654.3125 -1808.1875 -593.69501 -1808.1875 -518.9375 C -1808.1875 -444.17999 -1747.57 -383.59375 -1672.8125 -383.59375 C -1598.055 -383.59375 -1537.4375 -444.17999 -1537.4375 -518.9375 C -1537.4375 -593.69501 -1598.055 -654.3125 -1672.8125 -654.3125 z "
       style="fill:#000000;fill-opacity:1"
       id="path4039-9-6"
       d="m -1672.8125,-692.06055 c -95.1625,0 -173.123,77.96051 -173.123,173.12305 0,95.16254 77.971,173.0918 173.123,173.0918 95.152,0 173.123,-77.92926 173.123,-173.0918 0,-95.16254 -77.9605,-173.12305 -173.123,-173.12305 z"
       transform="matrix(-0.87313433,0,0,-0.87313433,-2838.5454,-735.06511)" />
    <circle
       style="fill:#ffcc00;fill-opacity:1"
       id="path3965-0-3-6"
       transform="matrix(0.87313433,0,0,0.87313433,82.634626,171.16652)"
       cx="-1672.8126"
       cy="-518.94434"
       r="135.36044" />
    <path
       sodipodi:type="inkscape:offset"
       inkscape:radius="37.747246"
       inkscape:original="M -1672.8125 -654.3125 C -1747.57 -654.3125 -1808.1875 -593.69501 -1808.1875 -518.9375 C -1808.1875 -444.17999 -1747.57 -383.59375 -1672.8125 -383.59375 C -1598.055 -383.59375 -1537.4375 -444.17999 -1537.4375 -518.9375 C -1537.4375 -593.69501 -1598.055 -654.3125 -1672.8125 -654.3125 z "
       style="fill:#000000;fill-opacity:1"
       id="path4039-9-8-5"
       d="m -1672.8125,-692.06055 c -95.1625,0 -173.123,77.96051 -173.123,173.12305 0,95.16254 77.971,173.0918 173.123,173.0918 95.152,0 173.123,-77.92926 173.123,-173.0918 0,-95.16254 -77.9605,-173.12305 -173.123,-173.12305 z"
       transform="matrix(-0.87313433,0,0,-0.87313433,-2838.5454,-735.06511)" />
    <path
       transform="matrix(-0.87313433,0,0,-0.87313433,-2838.5454,-735.06511)"
       d="m -1672.8125,-692.06055 c -95.1625,0 -173.123,77.96051 -173.123,173.12305 0,95.16254 77.971,173.0918 173.123,173.0918 95.152,0 173.123,-77.92926 173.123,-173.0918 0,-95.16254 -77.9605,-173.12305 -173.123,-173.12305 z"
       id="path4039-9-1-3"
       style="fill:#000000;fill-opacity:1"
       inkscape:original="M -1672.8125 -654.3125 C -1747.57 -654.3125 -1808.1875 -593.69501 -1808.1875 -518.9375 C -1808.1875 -444.17999 -1747.57 -383.59375 -1672.8125 -383.59375 C -1598.055 -383.59375 -1537.4375 -444.17999 -1537.4375 -518.9375 C -1537.4375 -593.69501 -1598.055 -654.3125 -1672.8125 -654.3125 z "
       inkscape:radius="37.747246"
       sodipodi:type="inkscape:offset" />
    <circle
       transform="matrix(0.87313433,0,0,0.87313433,82.634626,171.16652)"
       id="path3965-0-1-7"
       style="fill:#ffcc00;fill-opacity:1"
       cx="-1672.8126"
       cy="-518.94434"
       r="135.36044" />
    <path
       transform="matrix(-0.87313433,0,0,-0.87313433,-2838.5454,-735.06511)"
       d="m -1672.8125,-692.06055 c -95.1625,0 -173.123,77.96051 -173.123,173.12305 0,95.16254 77.971,173.0918 173.123,173.0918 95.152,0 173.123,-77.92926 173.123,-173.0918 0,-95.16254 -77.9605,-173.12305 -173.123,-173.12305 z"
       id="path4039-9-2-1"
       style="fill:#000000;fill-opacity:1"
       inkscape:original="M -1672.8125 -654.3125 C -1747.57 -654.3125 -1808.1875 -593.69501 -1808.1875 -518.9375 C -1808.1875 -444.17999 -1747.57 -383.59375 -1672.8125 -383.59375 C -1598.055 -383.59375 -1537.4375 -444.17999 -1537.4375 -518.9375 C -1537.4375 -593.69501 -1598.055 -654.3125 -1672.8125 -654.3125 z "
       inkscape:radius="37.747246"
       sodipodi:type="inkscape:offset" />
    <circle
       transform="matrix(0.87313433,0,0,0.87313433,82.634626,171.16652)"
       id="path3965-0-8-6"
       style="fill:#ffcc00;fill-opacity:1"
       cx="-1672.8126"
       cy="-518.94434"
       r="135.36044" />
    <circle
       style="fill:#ffcc00;fill-opacity:1"
       id="path3965-0-5-16"
       transform="matrix(0.87313433,0,0,0.87313433,82.634626,171.16652)"
       cx="-1672.8126"
       cy="-518.94434"
       r="135.36044" />
    <path
       sodipodi:type="inkscape:offset"
       inkscape:radius="37.747246"
       inkscape:original="M -1672.8125 -654.3125 C -1747.57 -654.3125 -1808.1875 -593.69501 -1808.1875 -518.9375 C -1808.1875 -444.17999 -1747.57 -383.59375 -1672.8125 -383.59375 C -1598.055 -383.59375 -1537.4375 -444.17999 -1537.4375 -518.9375 C -1537.4375 -593.69501 -1598.055 -654.3125 -1672.8125 -654.3125 z "
       style="fill:#000000;fill-opacity:1"
       id="path4039-9-20-1"
       d="m -1672.8125,-692.06055 c -95.1625,0 -173.123,77.96051 -173.123,173.12305 0,95.16254 77.971,173.0918 173.123,173.0918 95.152,0 173.123,-77.92926 173.123,-173.0918 0,-95.16254 -77.9605,-173.12305 -173.123,-173.12305 z"
       transform="matrix(-0.87313433,0,0,-0.87313433,-2838.5454,-735.06511)" />
    <circle
       style="fill:#ffcc00;fill-opacity:1"
       id="path3965-0-19"
       transform="matrix(0.87313433,0,0,0.87313433,82.634626,171.16652)"
       cx="-1672.8126"
       cy="-518.94434"
       r="135.36044" />
    <path
       sodipodi:type="inkscape:offset"
       inkscape:radius="37.747246"
       inkscape:original="M -1672.8125 -654.3125 C -1747.57 -654.3125 -1808.1875 -593.69501 -1808.1875 -518.9375 C -1808.1875 -444.17999 -1747.57 -383.59375 -1672.8125 -383.59375 C -1598.055 -383.59375 -1537.4375 -444.17999 -1537.4375 -518.9375 C -1537.4375 -593.69501 -1598.055 -654.3125 -1672.8125 -654.3125 z "
       style="fill:#000000;fill-opacity:1"
       id="path4039-9-26"
       d="m -1672.8125,-692.06055 c -95.1625,0 -173.123,77.96051 -173.123,173.12305 0,95.16254 77.971,173.0918 173.123,173.0918 95.152,0 173.123,-77.92926 173.123,-173.0918 0,-95.16254 -77.9605,-173.12305 -173.123,-173.12305 z"
       transform="matrix(-0.87313433,0,0,-0.87313433,-2838.5454,-735.06511)" />
    <circle
       style="fill:#ffcc00;fill-opacity:1"
       id="path3965-0-3-1"
       transform="matrix(0.87313433,0,0,0.87313433,82.634626,171.16652)"
       cx="-1672.8126"
       cy="-518.94434"
       r="135.36044" />
    <path
       sodipodi:type="inkscape:offset"
       inkscape:radius="37.747246"
       inkscape:original="M -1672.8125 -654.3125 C -1747.57 -654.3125 -1808.1875 -593.69501 -1808.1875 -518.9375 C -1808.1875 -444.17999 -1747.57 -383.59375 -1672.8125 -383.59375 C -1598.055 -383.59375 -1537.4375 -444.17999 -1537.4375 -518.9375 C -1537.4375 -593.69501 -1598.055 -654.3125 -1672.8125 -654.3125 z "
       style="fill:#000000;fill-opacity:1"
       id="path4039-9-8-1"
       d="m -1672.8125,-692.06055 c -95.1625,0 -173.123,77.96051 -173.123,173.12305 0,95.16254 77.971,173.0918 173.123,173.0918 95.152,0 173.123,-77.92926 173.123,-173.0918 0,-95.16254 -77.9605,-173.12305 -173.123,-173.12305 z"
       transform="matrix(-0.87313433,0,0,-0.87313433,-2838.5454,-735.06511)" />
    <path
       transform="matrix(-0.87313433,0,0,-0.87313433,-2838.5454,-735.06511)"
       d="m -1672.8125,-692.06055 c -95.1625,0 -173.123,77.96051 -173.123,173.12305 0,95.16254 77.971,173.0918 173.123,173.0918 95.152,0 173.123,-77.92926 173.123,-173.0918 0,-95.16254 -77.9605,-173.12305 -173.123,-173.12305 z"
       id="path4039-9-1-7"
       style="fill:#000000;fill-opacity:1"
       inkscape:original="M -1672.8125 -654.3125 C -1747.57 -654.3125 -1808.1875 -593.69501 -1808.1875 -518.9375 C -1808.1875 -444.17999 -1747.57 -383.59375 -1672.8125 -383.59375 C -1598.055 -383.59375 -1537.4375 -444.17999 -1537.4375 -518.9375 C -1537.4375 -593.69501 -1598.055 -654.3125 -1672.8125 -654.3125 z "
       inkscape:radius="37.747246"
       sodipodi:type="inkscape:offset" />
    <circle
       transform="matrix(0.87313433,0,0,0.87313433,82.634626,171.16652)"
       id="path3965-0-1-2"
       style="fill:#ffcc00;fill-opacity:1"
       cx="-1672.8126"
       cy="-518.94434"
       r="135.36044" />
    <path
       transform="matrix(-0.87313433,0,0,-0.87313433,-2838.5454,-735.06511)"
       d="m -1672.8125,-692.06055 c -95.1625,0 -173.123,77.96051 -173.123,173.12305 0,95.16254 77.971,173.0918 173.123,173.0918 95.152,0 173.123,-77.92926 173.123,-173.0918 0,-95.16254 -77.9605,-173.12305 -173.123,-173.12305 z"
       id="path4039-9-2-5"
       style="fill:#000000;fill-opacity:1"
       inkscape:original="M -1672.8125 -654.3125 C -1747.57 -654.3125 -1808.1875 -593.69501 -1808.1875 -518.9375 C -1808.1875 -444.17999 -1747.57 -383.59375 -1672.8125 -383.59375 C -1598.055 -383.59375 -1537.4375 -444.17999 -1537.4375 -518.9375 C -1537.4375 -593.69501 -1598.055 -654.3125 -1672.8125 -654.3125 z "
       inkscape:radius="37.747246"
       sodipodi:type="inkscape:offset" />
    <circle
       transform="matrix(0.87313433,0,0,0.87313433,82.634626,171.16652)"
       id="path3965-0-8-3"
       style="fill:#ffcc00;fill-opacity:1"
       cx="-1672.8126"
       cy="-518.94434"
       r="135.36044" />
    <circle
       style="fill:#ffcc00;fill-opacity:1"
       id="path3965-0-5-1"
       transform="matrix(0.87313433,0,0,0.87313433,82.634626,171.16652)"
       cx="-1672.8126"
       cy="-518.94434"
       r="135.36044" />
    <path
       sodipodi:type="inkscape:offset"
       inkscape:radius="37.747246"
       inkscape:original="M -1672.8125 -654.3125 C -1747.57 -654.3125 -1808.1875 -593.69501 -1808.1875 -518.9375 C -1808.1875 -444.17999 -1747.57 -383.59375 -1672.8125 -383.59375 C -1598.055 -383.59375 -1537.4375 -444.17999 -1537.4375 -518.9375 C -1537.4375 -593.69501 -1598.055 -654.3125 -1672.8125 -654.3125 z "
       style="fill:#000000;fill-opacity:1"
       id="path4039-9-20-4"
       d="m -1672.8125,-692.06055 c -95.1625,0 -173.123,77.96051 -173.123,173.12305 0,95.16254 77.971,173.0918 173.123,173.0918 95.152,0 173.123,-77.92926 173.123,-173.0918 0,-95.16254 -77.9605,-173.12305 -173.123,-173.12305 z"
       transform="matrix(-0.87313433,0,0,-0.87313433,-2838.5454,-735.06511)" />
    <circle
       r="135.36044"
       cy="-518.94434"
       cx="-1672.8126"
       transform="matrix(0.87313433,0,0,0.87313433,82.634626,171.16652)"
       id="path3965-0-82"
       style="fill:#ffcc00;fill-opacity:1" />
    <path
       transform="matrix(-0.87313433,0,0,-0.87313433,-2838.5454,-735.06511)"
       d="m -1672.8125,-692.06055 c -95.1625,0 -173.123,77.96051 -173.123,173.12305 0,95.16254 77.971,173.0918 173.123,173.0918 95.152,0 173.123,-77.92926 173.123,-173.0918 0,-95.16254 -77.9605,-173.12305 -173.123,-173.12305 z"
       id="path4039-9-12"
       style="fill:#000000;fill-opacity:1"
       inkscape:original="M -1672.8125 -654.3125 C -1747.57 -654.3125 -1808.1875 -593.69501 -1808.1875 -518.9375 C -1808.1875 -444.17999 -1747.57 -383.59375 -1672.8125 -383.59375 C -1598.055 -383.59375 -1537.4375 -444.17999 -1537.4375 -518.9375 C -1537.4375 -593.69501 -1598.055 -654.3125 -1672.8125 -654.3125 z "
       inkscape:radius="37.747246"
       sodipodi:type="inkscape:offset" />
    <circle
       r="135.36044"
       cy="-518.94434"
       cx="-1672.8126"
       transform="matrix(0.87313433,0,0,0.87313433,82.634626,171.16652)"
       id="path3965-0-3-2"
       style="fill:#ffcc00;fill-opacity:1" />
    <path
       transform="matrix(-0.87313433,0,0,-0.87313433,-2838.5454,-735.06511)"
       d="m -1672.8125,-692.06055 c -95.1625,0 -173.123,77.96051 -173.123,173.12305 0,95.16254 77.971,173.0918 173.123,173.0918 95.152,0 173.123,-77.92926 173.123,-173.0918 0,-95.16254 -77.9605,-173.12305 -173.123,-173.12305 z"
       id="path4039-9-8-7"
       style="fill:#000000;fill-opacity:1"
       inkscape:original="M -1672.8125 -654.3125 C -1747.57 -654.3125 -1808.1875 -593.69501 -1808.1875 -518.9375 C -1808.1875 -444.17999 -1747.57 -383.59375 -1672.8125 -383.59375 C -1598.055 -383.59375 -1537.4375 -444.17999 -1537.4375 -518.9375 C -1537.4375 -593.69501 -1598.055 -654.3125 -1672.8125 -654.3125 z "
       inkscape:radius="37.747246"
       sodipodi:type="inkscape:offset" />
    <path
       sodipodi:type="inkscape:offset"
       inkscape:radius="37.747246"
       inkscape:original="M -1672.8125 -654.3125 C -1747.57 -654.3125 -1808.1875 -593.69501 -1808.1875 -518.9375 C -1808.1875 -444.17999 -1747.57 -383.59375 -1672.8125 -383.59375 C -1598.055 -383.59375 -1537.4375 -444.17999 -1537.4375 -518.9375 C -1537.4375 -593.69501 -1598.055 -654.3125 -1672.8125 -654.3125 z "
       style="fill:#000000;fill-opacity:1"
       id="path4039-9-1-75"
       d="m -1672.8125,-692.06055 c -95.1625,0 -173.123,77.96051 -173.123,173.12305 0,95.16254 77.971,173.0918 173.123,173.0918 95.152,0 173.123,-77.92926 173.123,-173.0918 0,-95.16254 -77.9605,-173.12305 -173.123,-173.12305 z"
       transform="matrix(-0.87313433,0,0,-0.87313433,-2838.5454,-735.06511)" />
    <circle
       r="135.36044"
       cy="-518.94434"
       cx="-1672.8126"
       style="fill:#ffcc00;fill-opacity:1"
       id="path3965-0-1-20"
       transform="matrix(0.87313433,0,0,0.87313433,82.634626,171.16652)" />
    <path
       sodipodi:type="inkscape:offset"
       inkscape:radius="37.747246"
       inkscape:original="M -1672.8125 -654.3125 C -1747.57 -654.3125 -1808.1875 -593.69501 -1808.1875 -518.9375 C -1808.1875 -444.17999 -1747.57 -383.59375 -1672.8125 -383.59375 C -1598.055 -383.59375 -1537.4375 -444.17999 -1537.4375 -518.9375 C -1537.4375 -593.69501 -1598.055 -654.3125 -1672.8125 -654.3125 z "
       style="fill:#000000;fill-opacity:1"
       id="path4039-9-2-31"
       d="m -1672.8125,-692.06055 c -95.1625,0 -173.123,77.96051 -173.123,173.12305 0,95.16254 77.971,173.0918 173.123,173.0918 95.152,0 173.123,-77.92926 173.123,-173.0918 0,-95.16254 -77.9605,-173.12305 -173.123,-173.12305 z"
       transform="matrix(-0.87313433,0,0,-0.87313433,-2838.5454,-735.06511)" />
    <circle
       r="135.36044"
       cy="-518.94434"
       cx="-1672.8126"
       style="fill:#ffcc00;fill-opacity:1"
       id="path3965-0-8-2"
       transform="matrix(0.87313433,0,0,0.87313433,82.634626,171.16652)" />
    <circle
       r="135.36044"
       cy="-518.94434"
       cx="-1672.8126"
       transform="matrix(0.87313433,0,0,0.87313433,82.634626,171.16652)"
       id="path3965-0-5-11"
       style="fill:#ffcc00;fill-opacity:1" />
    <path
       transform="matrix(-0.87313433,0,0,-0.87313433,-2838.5454,-735.06511)"
       d="m -1672.8125,-692.06055 c -95.1625,0 -173.123,77.96051 -173.123,173.12305 0,95.16254 77.971,173.0918 173.123,173.0918 95.152,0 173.123,-77.92926 173.123,-173.0918 0,-95.16254 -77.9605,-173.12305 -173.123,-173.12305 z"
       id="path4039-9-20-5"
       style="fill:#000000;fill-opacity:1"
       inkscape:original="M -1672.8125 -654.3125 C -1747.57 -654.3125 -1808.1875 -593.69501 -1808.1875 -518.9375 C -1808.1875 -444.17999 -1747.57 -383.59375 -1672.8125 -383.59375 C -1598.055 -383.59375 -1537.4375 -444.17999 -1537.4375 -518.9375 C -1537.4375 -593.69501 -1598.055 -654.3125 -1672.8125 -654.3125 z "
       inkscape:radius="37.747246"
       sodipodi:type="inkscape:offset" />
    <path
       sodipodi:type="inkscape:offset"
       inkscape:radius="37.747246"
       inkscape:original="M -1672.8125 -654.3125 C -1747.57 -654.3125 -1808.1875 -593.69501 -1808.1875 -518.9375 C -1808.1875 -444.17999 -1747.57 -383.59375 -1672.8125 -383.59375 C -1598.055 -383.59375 -1537.4375 -444.17999 -1537.4375 -518.9375 C -1537.4375 -593.69501 -1598.055 -654.3125 -1672.8125 -654.3125 z "
       style="fill:#000000;fill-opacity:1"
       id="path4039-9-84"
       d="m -1672.8125,-692.06055 c -95.1625,0 -173.123,77.96051 -173.123,173.12305 0,95.16254 77.971,173.0918 173.123,173.0918 95.152,0 173.123,-77.92926 173.123,-173.0918 0,-95.16254 -77.9605,-173.12305 -173.123,-173.12305 z"
       transform="matrix(-0.87313433,0,0,-0.87313433,-2838.5454,-735.06511)" />
    <circle
       r="135.36044"
       cy="-518.94434"
       cx="-1672.8126"
       style="fill:#ffcc00;fill-opacity:1"
       id="path3965-0-6"
       transform="matrix(0.87313433,0,0,0.87313433,82.634626,171.16652)" />
    <path
       sodipodi:type="inkscape:offset"
       inkscape:radius="37.747246"
       inkscape:original="M -1672.8125 -654.3125 C -1747.57 -654.3125 -1808.1875 -593.69501 -1808.1875 -518.9375 C -1808.1875 -444.17999 -1747.57 -383.59375 -1672.8125 -383.59375 C -1598.055 -383.59375 -1537.4375 -444.17999 -1537.4375 -518.9375 C -1537.4375 -593.69501 -1598.055 -654.3125 -1672.8125 -654.3125 z "
       style="fill:#000000;fill-opacity:1"
       id="path4039-9-2-12"
       d="m -1672.8125,-692.06055 c -95.1625,0 -173.123,77.96051 -173.123,173.12305 0,95.16254 77.971,173.0918 173.123,173.0918 95.152,0 173.123,-77.92926 173.123,-173.0918 0,-95.16254 -77.9605,-173.12305 -173.123,-173.12305 z"
       transform="matrix(-0.87313433,0,0,-0.87313433,-2838.5454,-735.06511)" />
    <circle
       r="135.36044"
       cy="-518.94434"
       cx="-1672.8126"
       style="fill:#ffcc00;fill-opacity:1"
       id="path3965-0-8-9"
       transform="matrix(0.87313433,0,0,0.87313433,82.634626,171.16652)" />
    <path
       sodipodi:type="inkscape:offset"
       inkscape:radius="37.747246"
       inkscape:original="M -1672.8125 -654.3125 C -1747.57 -654.3125 -1808.1875 -593.69501 -1808.1875 -518.9375 C -1808.1875 -444.17999 -1747.57 -383.59375 -1672.8125 -383.59375 C -1598.055 -383.59375 -1537.4375 -444.17999 -1537.4375 -518.9375 C -1537.4375 -593.69501 -1598.055 -654.3125 -1672.8125 -654.3125 z "
       style="fill:#000000;fill-opacity:1"
       id="path4039-9-9"
       d="m -1672.8125,-692.06055 c -95.1625,0 -173.123,77.96051 -173.123,173.12305 0,95.16254 77.971,173.0918 173.123,173.0918 95.152,0 173.123,-77.92926 173.123,-173.0918 0,-95.16254 -77.9605,-173.12305 -173.123,-173.12305 z"
       transform="matrix(-0.87313433,0,0,-0.87313433,-2838.5454,-735.06511)" />
    <circle
       r="135.36044"
       cy="-518.94434"
       cx="-1672.8126"
       style="fill:#ffcc00;fill-opacity:1"
       id="path3965-0-9"
       transform="matrix(0.87313433,0,0,0.87313433,82.634626,171.16652)" />
    <path
       sodipodi:type="inkscape:offset"
       inkscape:radius="37.747246"
       inkscape:original="M -1672.8125 -654.3125 C -1747.57 -654.3125 -1808.1875 -593.69501 -1808.1875 -518.9375 C -1808.1875 -444.17999 -1747.57 -383.59375 -1672.8125 -383.59375 C -1598.055 -383.59375 -1537.4375 -444.17999 -1537.4375 -518.9375 C -1537.4375 -593.69501 -1598.055 -654.3125 -1672.8125 -654.3125 z "
       style="fill:#000000;fill-opacity:1"
       id="path4039-9-2-2"
       d="m -1672.8125,-692.06055 c -95.1625,0 -173.123,77.96051 -173.123,173.12305 0,95.16254 77.971,173.0918 173.123,173.0918 95.152,0 173.123,-77.92926 173.123,-173.0918 0,-95.16254 -77.9605,-173.12305 -173.123,-173.12305 z"
       transform="matrix(-0.87313433,0,0,-0.87313433,-2838.5454,-735.06511)" />
    <circle
       r="135.36044"
       cy="-518.94434"
       cx="-1672.8126"
       style="fill:#ffcc00;fill-opacity:1"
       id="path3965-0-8-1"
       transform="matrix(0.87313433,0,0,0.87313433,82.634626,171.16652)" />
    <path
       sodipodi:type="inkscape:offset"
       inkscape:radius="37.747246"
       inkscape:original="M -1672.8125 -654.3125 C -1747.57 -654.3125 -1808.1875 -593.69501 -1808.1875 -518.9375 C -1808.1875 -444.17999 -1747.57 -383.59375 -1672.8125 -383.59375 C -1598.055 -383.59375 -1537.4375 -444.17999 -1537.4375 -518.9375 C -1537.4375 -593.69501 -1598.055 -654.3125 -1672.8125 -654.3125 z "
       style="fill:#000000;fill-opacity:1"
       id="path4039-9-28"
       d="m -1672.8125,-692.06055 c -95.1625,0 -173.123,77.96051 -173.123,173.12305 0,95.16254 77.971,173.0918 173.123,173.0918 95.152,0 173.123,-77.92926 173.123,-173.0918 0,-95.16254 -77.9605,-173.12305 -173.123,-173.12305 z"
       transform="matrix(-0.87313433,0,0,-0.87313433,-2838.5454,-735.06511)" />
    <circle
       r="135.36044"
       cy="-518.94434"
       cx="-1672.8126"
       style="fill:#ffcc00;fill-opacity:1"
       id="path3965-0-87"
       transform="matrix(0.87313433,0,0,0.87313433,82.634626,171.16652)" />
    <path
       sodipodi:type="inkscape:offset"
       inkscape:radius="37.747246"
       inkscape:original="M -1672.8125 -654.3125 C -1747.57 -654.3125 -1808.1875 -593.69501 -1808.1875 -518.9375 C -1808.1875 -444.17999 -1747.57 -383.59375 -1672.8125 -383.59375 C -1598.055 -383.59375 -1537.4375 -444.17999 -1537.4375 -518.9375 C -1537.4375 -593.69501 -1598.055 -654.3125 -1672.8125 -654.3125 z "
       style="fill:#000000;fill-opacity:1"
       id="path4039-9-2-9"
       d="m -1672.8125,-692.06055 c -95.1625,0 -173.123,77.96051 -173.123,173.12305 0,95.16254 77.971,173.0918 173.123,173.0918 95.152,0 173.123,-77.92926 173.123,-173.0918 0,-95.16254 -77.9605,-173.12305 -173.123,-173.12305 z"
       transform="matrix(-0.87313433,0,0,-0.87313433,-2838.5454,-735.06511)" />
    <circle
       r="135.36044"
       cy="-518.94434"
       cx="-1672.8126"
       style="fill:#ffcc00;fill-opacity:1"
       id="path3965-0-8-54"
       transform="matrix(0.87313433,0,0,0.87313433,82.634626,171.16652)" />
    <path
       sodipodi:type="inkscape:offset"
       inkscape:radius="37.747246"
       inkscape:original="M -1672.8125 -654.3125 C -1747.57 -654.3125 -1808.1875 -593.69501 -1808.1875 -518.9375 C -1808.1875 -444.17999 -1747.57 -383.59375 -1672.8125 -383.59375 C -1598.055 -383.59375 -1537.4375 -444.17999 -1537.4375 -518.9375 C -1537.4375 -593.69501 -1598.055 -654.3125 -1672.8125 -654.3125 z "
       style="fill:#000000;fill-opacity:1"
       id="path4039-9-19"
       d="m -1672.8125,-692.06055 c -95.1625,0 -173.123,77.96051 -173.123,173.12305 0,95.16254 77.971,173.0918 173.123,173.0918 95.152,0 173.123,-77.92926 173.123,-173.0918 0,-95.16254 -77.9605,-173.12305 -173.123,-173.12305 z"
       transform="matrix(-0.87313433,0,0,-0.87313433,-2838.5454,-735.06511)" />
    <circle
       r="135.36044"
       cy="-518.94434"
       cx="-1672.8126"
       style="fill:#ffcc00;fill-opacity:1"
       id="path3965-0-7"
       transform="matrix(0.87313433,0,0,0.87313433,82.634626,171.16652)" />
    <path
       sodipodi:type="inkscape:offset"
       inkscape:radius="37.747246"
       inkscape:original="M -1672.8125 -654.3125 C -1747.57 -654.3125 -1808.1875 -593.69501 -1808.1875 -518.9375 C -1808.1875 -444.17999 -1747.57 -383.59375 -1672.8125 -383.59375 C -1598.055 -383.59375 -1537.4375 -444.17999 -1537.4375 -518.9375 C -1537.4375 -593.69501 -1598.055 -654.3125 -1672.8125 -654.3125 z "
       style="fill:#000000;fill-opacity:1"
       id="path4039-9-2-14"
       d="m -1672.8125,-692.06055 c -95.1625,0 -173.123,77.96051 -173.123,173.12305 0,95.16254 77.971,173.0918 173.123,173.0918 95.152,0 173.123,-77.92926 173.123,-173.0918 0,-95.16254 -77.9605,-173.12305 -173.123,-173.12305 z"
       transform="matrix(-0.87313433,0,0,-0.87313433,-2838.5454,-735.06511)" />
    <circle
       r="135.36044"
       cy="-518.94434"
       cx="-1672.8126"
       style="fill:#ffcc00;fill-opacity:1"
       id="path3965-0-8-7"
       transform="matrix(0.87313433,0,0,0.87313433,82.634626,171.16652)" />
    <path
       sodipodi:type="inkscape:offset"
       inkscape:radius="37.747246"
       inkscape:original="M -1672.8125 -654.3125 C -1747.57 -654.3125 -1808.1875 -593.69501 -1808.1875 -518.9375 C -1808.1875 -444.17999 -1747.57 -383.59375 -1672.8125 -383.59375 C -1598.055 -383.59375 -1537.4375 -444.17999 -1537.4375 -518.9375 C -1537.4375 -593.69501 -1598.055 -654.3125 -1672.8125 -654.3125 z "
       style="fill:#000000;fill-opacity:1"
       id="path4039-9-15"
       d="m -1672.8125,-692.06055 c -95.1625,0 -173.123,77.96051 -173.123,173.12305 0,95.16254 77.971,173.0918 173.123,173.0918 95.152,0 173.123,-77.92926 173.123,-173.0918 0,-95.16254 -77.9605,-173.12305 -173.123,-173.12305 z"
       transform="matrix(-0.87313433,0,0,-0.87313433,-2838.5454,-735.06511)" />
    <circle
       r="135.36044"
       cy="-518.94434"
       cx="-1672.8126"
       style="fill:#ffcc00;fill-opacity:1"
       id="path3965-0-0"
       transform="matrix(0.87313433,0,0,0.87313433,82.634626,171.16652)" />
    <path
       sodipodi:type="inkscape:offset"
       inkscape:radius="37.747246"
       inkscape:original="M -1672.8125 -654.3125 C -1747.57 -654.3125 -1808.1875 -593.69501 -1808.1875 -518.9375 C -1808.1875 -444.17999 -1747.57 -383.59375 -1672.8125 -383.59375 C -1598.055 -383.59375 -1537.4375 -444.17999 -1537.4375 -518.9375 C -1537.4375 -593.69501 -1598.055 -654.3125 -1672.8125 -654.3125 z "
       style="fill:#000000;fill-opacity:1"
       id="path4039-9-2-311"
       d="m -1672.8125,-692.06055 c -95.1625,0 -173.123,77.96051 -173.123,173.12305 0,95.16254 77.971,173.0918 173.123,173.0918 95.152,0 173.123,-77.92926 173.123,-173.0918 0,-95.16254 -77.9605,-173.12305 -173.123,-173.12305 z"
       transform="matrix(-0.87313433,0,0,-0.87313433,-2838.5454,-735.06511)" />
    <circle
       r="135.36044"
       cy="-518.94434"
       cx="-1672.8126"
       style="fill:#ffcc00;fill-opacity:1"
       id="path3965-0-8-68"
       transform="matrix(0.87313433,0,0,0.87313433,82.634626,171.16652)" />
  </defs>
  <sodipodi:namedview
     id="base"
     pagecolor="#ffffff"
     bordercolor="#666666"
     borderopacity="1.0"
     inkscape:pageopacity="0.0"
     inkscape:pageshadow="2"
     inkscape:zoom="11.2"
     inkscape:cx="60.168517"
     inkscape:cy="-5.7913556"
     inkscape:document-units="px"
     inkscape:current-layer="layer1-7"
     showgrid="false"
     inkscape:window-width="1920"
     inkscape:window-height="1017"
     inkscape:window-x="1916"
     inkscape:window-y="-4"
     inkscape:window-maximized="1"
     fit-margin-top="0"
     fit-margin-left="0"
     fit-margin-right="0"
     fit-margin-bottom="0" />
  <metadata
     id="metadata7">
    <rdf:RDF>
      <cc:Work
         rdf:about="">
        <dc:format>image/svg+xml</dc:format>
        <dc:type
           rdf:resource="http://purl.org/dc/dcmitype/StillImage" />
        <dc:title></dc:title>
      </cc:Work>
    </rdf:RDF>
  </metadata>
  <g
     inkscape:label="Layer 1"
     inkscape:groupmode="layer"
     id="layer1"
     transform="translate(4464.7404,999.56044)">
    <g
       transform="translate(-4559.2214,-1452.3274)"
       id="layer1-7"
       inkscape:label="Layer 1">
      <g
         id="text3336"
         style="font-style:normal;font-weight:normal;font-size:5.70017815px;line-height:125%;font-family:sans-serif;letter-spacing:0px;word-spacing:0px;fill:#ffffff;fill-opacity:1;stroke:none;stroke-width:1px;stroke-linecap:butt;stroke-linejoin:miter;stroke-opacity:1"
         transform="translate(1.607143,-1.7857145)">
        <path
           id="path3341"
           style="font-style:normal;font-variant:normal;font-weight:bold;font-stretch:semi-expanded;font-family:Magneto;-inkscape-font-specification:'Magneto Bold Semi-Expanded';fill:#ffffff"
           d="m 99.571664,456.31029 -1.180115,3.38726 q -0.08628,0.24493 -0.297812,0.38688 -0.21153,0.14195 -0.470376,0.14195 l -2.154266,0 q 0.0668,-0.2505 0.258846,-0.39244 0.192047,-0.14474 0.453676,-0.14474 l 1.202381,0 0.587274,-1.65049 -0.83777,0.88787 q -0.258846,0.27277 -0.690256,0.27277 -0.250496,0 -0.42306,-0.11134 -0.197614,-0.12803 -0.197614,-0.36739 0,-0.11412 0.03897,-0.22823 l 0.587275,-1.64492 -0.500993,0 q 0.01113,0.0779 0.01113,0.13081 0,0.27555 -0.217097,0.47038 -0.214313,0.19483 -0.520475,0.19483 -0.306162,0 -0.523259,-0.19483 -0.217096,-0.19483 -0.217096,-0.47038 0,-0.28946 0.228229,-0.48429 0.217097,-0.1837 0.506559,-0.1837 l 1.809139,0 q 0.192047,0 0.311728,0.11412 0.119682,0.11133 0.119682,0.30337 0,0.10855 -0.03897,0.21988 l -0.592841,1.66441 1.636574,-2.09582 q 0.06402,-0.0835 0.205964,-0.14473 0.141948,-0.0612 0.250496,-0.0612 l 0.654073,0 z"
           inkscape:connector-curvature="0" />
        <path
           id="path3343"
           style="font-style:normal;font-variant:normal;font-weight:bold;font-stretch:semi-expanded;font-family:Magneto;-inkscape-font-specification:'Magneto Bold Semi-Expanded';fill:#ffffff"
           d="m 102.76131,459.78105 q -0.0584,0.21432 -0.26719,0.33678 -0.18648,0.10855 -0.42584,0.10855 l -1.5503,0 q -1.352676,0 -1.352676,-0.8155 0,-0.52326 0.462026,-0.82108 0.39801,-0.25606 0.94632,-0.25606 l 0.40358,0 q 0.35347,0 0.62067,0.10855 0.35626,0.14473 0.37296,0.43976 0.0139,0.29781 -0.28668,0.49543 l -0.92127,0 0.3006,-0.59841 -0.58728,0 -0.22823,0.67077 q -0.0195,0.0584 -0.0195,0.10577 0,0.22544 0.36183,0.22544 l 2.17096,0 z"
           inkscape:connector-curvature="0" />
        <path
           id="path3345"
           style="font-style:normal;font-variant:normal;font-weight:bold;font-stretch:semi-expanded;font-family:Magneto;-inkscape-font-specification:'Magneto Bold Semi-Expanded';fill:#ffffff"
           d="m 104.90166,459.78105 q -0.0696,0.24493 -0.32007,0.36183 -0.17535,0.0835 -0.37575,0.0835 l -1.07156,0 q -0.41193,0 -0.41193,-0.28111 0,-0.0724 0.0306,-0.16422 l 1.03261,-2.91132 0.98528,0 -1.03817,2.91132 1.16898,0 z"
           inkscape:connector-curvature="0" />
        <path
           id="path3347"
           style="font-style:normal;font-variant:normal;font-weight:bold;font-stretch:semi-expanded;font-family:Magneto;-inkscape-font-specification:'Magneto Bold Semi-Expanded';fill:#ffffff"
           d="m 107.03923,459.78105 q -0.0696,0.24493 -0.32008,0.36183 -0.17534,0.0835 -0.37574,0.0835 l -1.07157,0 q -0.41192,0 -0.41192,-0.28111 0,-0.0724 0.0306,-0.16422 l 1.0326,-2.91132 0.98529,0 -1.03817,2.91132 1.16898,0 z"
           inkscape:connector-curvature="0" />
        <path
           id="path3349"
           style="font-style:normal;font-variant:normal;font-weight:bold;font-stretch:semi-expanded;font-family:Magneto;-inkscape-font-specification:'Magneto Bold Semi-Expanded';fill:#ffffff"
           d="m 111.75969,458.33374 q -0.11133,0.44533 -0.66799,0.44533 l -1.74234,0 q 0.0918,0.0612 0.1503,0.22545 0.0584,0.16143 0.0473,0.28111 -0.039,0.46481 -0.40915,0.72922 -0.35348,0.25328 -0.91848,0.25606 -0.65686,0.006 -1.01034,-0.25884 -0.31451,-0.2338 -0.31451,-0.61511 0,-0.0751 0.0139,-0.1503 0.0724,-0.42028 0.41749,-0.65964 0.36739,-0.25328 0.97972,-0.25328 l 3.45406,0 z m -3.03378,0.44533 -0.63738,0 -0.25049,0.71252 q -0.0195,0.0557 -0.0195,0.10577 0,0.23936 0.44533,0.23936 0.0529,0 0.0918,-0.003 l 0.37018,-1.05487 z"
           inkscape:connector-curvature="0" />
        <path
           id="path3351"
           style="font-style:normal;font-variant:normal;font-weight:bold;font-stretch:semi-expanded;font-family:Magneto;-inkscape-font-specification:'Magneto Bold Semi-Expanded';fill:#ffffff"
           d="m 114.81018,458.33374 -0.50378,1.44731 q -0.20596,0.44533 -0.69304,0.44533 l -1.40834,0 q -0.37018,0 -0.41193,-0.24493 -0.20318,0.24493 -0.58727,0.24493 l -0.49543,0 q -0.41193,0 -0.41193,-0.29225 0,-0.0696 0.0306,-0.15308 l 0.50656,-1.44731 1.01033,0 -0.52047,1.44731 0.48429,0 0.52048,-1.44731 0.99641,0 -0.50655,1.44731 0.47315,0 0.5177,-1.44731 0.9992,0 z"
           inkscape:connector-curvature="0" />
        <path
           id="path3353"
           style="font-style:normal;font-variant:normal;font-weight:bold;font-stretch:semi-expanded;font-family:Magneto;-inkscape-font-specification:'Magneto Bold Semi-Expanded';fill:#ffffff"
           d="m 123.68331,459.78105 q -0.1169,0.44533 -0.77376,0.44533 l -0.9992,0 q -0.46759,0 -0.46759,-0.26998 0,-0.0946 0.0584,-0.24771 l 0.46202,-1.20238 -1.38051,1.51411 q -0.22266,0.24771 -0.48707,0.24771 -0.0501,0 -0.10577,-0.008 -0.31729,-0.0362 -0.31729,-0.3173 0,-0.10854 0.0501,-0.23379 l 0.68469,-1.76739 -1.71729,2.07355 q -0.17256,0.21153 -0.50655,0.21153 l -0.56501,0 1.12445,-3.2147 -1.54473,0 0.42028,-0.70139 1.85924,0 q 0.38409,0 0.38409,0.28111 0,0.10855 -0.0529,0.26163 l -0.59841,1.72564 1.19681,-1.35546 q 0.22823,-0.26163 0.3507,-0.33956 0.20318,-0.12803 0.52604,-0.12803 0.0919,0 0.19205,0.064 0.15308,0.1002 0.15308,0.29781 0,0.12247 -0.0612,0.27555 l -0.53996,1.40278 1.07156,-1.07713 q 0.22823,-0.22823 0.30338,-0.27555 0.13082,-0.0752 0.37575,-0.0724 0.0974,0 0.20596,0.0724 0.167,0.10855 0.167,0.31729 0,0.11969 -0.0557,0.26442 l -0.6652,1.75625 1.25248,0 z"
           inkscape:connector-curvature="0" />
        <path
           id="path3355"
           style="font-style:normal;font-variant:normal;font-weight:bold;font-stretch:semi-expanded;font-family:Magneto;-inkscape-font-specification:'Magneto Bold Semi-Expanded';fill:#ffffff"
           d="m 127.37117,459.78105 q -0.0585,0.23102 -0.25607,0.3507 -0.15586,0.0946 -0.33121,0.0946 l -1.16341,0 q -0.40915,0 -0.40915,-0.26163 -0.21709,0.26163 -0.58727,0.26163 l -0.48986,0 q -0.22545,0 -0.35069,-0.1169 -0.1169,-0.10855 -0.1169,-0.28668 0,-0.1002 0.039,-0.20596 l 0.4676,-1.2831 1.01033,0 -0.52048,1.44731 0.56501,0 0.51769,-1.44731 0.99921,0 -0.50656,1.44731 1.1328,0 z"
           inkscape:connector-curvature="0" />
        <path
           id="path3357"
           style="font-style:normal;font-variant:normal;font-weight:bold;font-stretch:semi-expanded;font-family:Magneto;-inkscape-font-specification:'Magneto Bold Semi-Expanded';fill:#ffffff"
           d="m 129.83716,459.78105 q -0.13081,0.44533 -0.69582,0.44533 l -1.41948,0 q -0.41193,0 -0.41193,-0.28946 0,-0.0724 0.0306,-0.15587 l 0.35348,-1.00198 -0.45646,0 0.17535,-0.44533 q 0.48707,-0.12525 0.72365,-0.32008 0.2672,-0.21988 0.57057,-0.79602 l 0.54275,0 -0.39245,1.1161 0.71809,0 q -0.17256,0.44533 -0.70139,0.44533 l -0.18369,0 -0.34792,1.00198 1.49463,0 z"
           inkscape:connector-curvature="0" />
        <path
           id="path3359"
           style="font-style:normal;font-variant:normal;font-weight:bold;font-stretch:semi-expanded;font-family:Magneto;-inkscape-font-specification:'Magneto Bold Semi-Expanded';fill:#ffffff"
           d="m 132.30872,459.78105 q -0.13081,0.44533 -0.69582,0.44533 l -1.41948,0 q -0.41193,0 -0.41193,-0.28946 0,-0.0724 0.0306,-0.15587 l 0.35348,-1.00198 -0.45646,0 0.17535,-0.44533 q 0.48707,-0.12525 0.72365,-0.32008 0.2672,-0.21988 0.57058,-0.79602 l 0.54274,0 -0.39245,1.1161 0.71809,0 q -0.17256,0.44533 -0.70139,0.44533 l -0.18369,0 -0.34791,1.00198 1.49462,0 z"
           inkscape:connector-curvature="0" />
        <path
           id="path3361"
           style="font-style:normal;font-variant:normal;font-weight:bold;font-stretch:semi-expanded;font-family:Magneto;-inkscape-font-specification:'Magneto Bold Semi-Expanded';fill:#ffffff"
           d="m 139.57311,457.18703 q 0,0.40914 -0.43141,0.7654 -0.25885,0.21431 -0.78767,0.47316 0.21431,0.37018 0.21431,0.67077 0,0.62068 -0.80159,0.91849 -0.57335,0.21153 -1.33598,0.21153 l -1.44731,0 1.00477,-2.85566 1.00198,0 -0.85447,2.41033 0.14195,0 q 0.48708,0 0.82386,-0.11133 0.49821,-0.16978 0.49821,-0.55387 0,-0.12247 -0.11134,-0.29225 -0.11133,-0.17256 -0.11133,-0.25049 0,-0.039 0.006,-0.0557 0.0557,-0.12247 0.30338,-0.23936 0.34234,-0.16422 0.50099,-0.30338 0.2672,-0.23102 0.2672,-0.53439 0,-0.42863 -0.65408,-0.42863 l -3.25645,0 0.42863,-0.70139 3.2481,0 q 0.64016,0 0.96023,0.17256 0.39245,0.21153 0.39245,0.70418 z"
           inkscape:connector-curvature="0" />
        <path
           id="path3363"
           style="font-style:normal;font-variant:normal;font-weight:bold;font-stretch:semi-expanded;font-family:Magneto;-inkscape-font-specification:'Magneto Bold Semi-Expanded';fill:#ffffff"
           d="m 142.44547,459.78105 q 0,0.19483 -0.21432,0.32843 -0.18926,0.1169 -0.39522,0.1169 l -1.066,0 q -0.42306,0 -0.42306,-0.3507 0,-0.0891 0.0362,-0.19204 l 0.31451,-0.90457 -0.59284,0 -0.30895,0.7988 q -0.0779,0.20318 -0.33677,0.20318 l -0.29503,0 0.36461,-1.00198 q -0.17257,-0.039 -0.28111,-0.17257 -0.10577,-0.13638 -0.10577,-0.31172 0,-0.32008 0.29781,-0.49543 0.24772,-0.14473 0.59006,-0.14473 l 0.45089,0 -0.23379,0.67912 1.53916,0 -0.50656,1.44731 1.1662,0 z"
           inkscape:connector-curvature="0" />
        <path
           id="path3365"
           style="font-style:normal;font-variant:normal;font-weight:bold;font-stretch:semi-expanded;font-family:Magneto;-inkscape-font-specification:'Magneto Bold Semi-Expanded';fill:#ffffff"
           d="m 145.94685,459.78105 q -0.0585,0.21432 -0.2672,0.33678 -0.18648,0.10855 -0.42584,0.10855 l -1.5503,0 q -1.35268,0 -1.35268,-0.8155 0,-0.52326 0.46203,-0.82108 0.39801,-0.25606 0.94632,-0.25606 l 0.40358,0 q 0.35347,0 0.62067,0.10855 0.35626,0.14473 0.37296,0.43976 0.0139,0.29781 -0.28668,0.49543 l -0.92127,0 0.3006,-0.59841 -0.58728,0 -0.22823,0.67077 q -0.0195,0.0584 -0.0195,0.10577 0,0.22544 0.36183,0.22544 l 2.17097,0 z"
           inkscape:connector-curvature="0" />
        <path
           id="path3367"
           style="font-style:normal;font-variant:normal;font-weight:bold;font-stretch:semi-expanded;font-family:Magneto;-inkscape-font-specification:'Magneto Bold Semi-Expanded';fill:#ffffff"
           d="m 150.40289,458.33374 -0.50378,1.44731 q -0.20596,0.44533 -0.69303,0.44533 l -1.40835,0 q -0.37018,0 -0.41193,-0.24493 -0.20318,0.24493 -0.58727,0.24493 l -0.49543,0 q -0.41192,0 -0.41192,-0.29225 0,-0.0696 0.0306,-0.15308 l 0.50656,-1.44731 1.01034,0 -0.52048,1.44731 0.48429,0 0.52048,-1.44731 0.99642,0 -0.50656,1.44731 0.47316,0 0.51769,-1.44731 0.9992,0 z"
           inkscape:connector-curvature="0" />
        <path
           id="path3369"
           style="font-style:normal;font-variant:normal;font-weight:bold;font-stretch:semi-expanded;font-family:Magneto;-inkscape-font-specification:'Magneto Bold Semi-Expanded';fill:#ffffff"
           d="m 154.15198,459.78105 q -0.0584,0.21432 -0.26719,0.33678 -0.18648,0.10855 -0.42584,0.10855 l -1.5503,0 q -1.35268,0 -1.35268,-0.8155 0,-0.52326 0.46203,-0.82108 0.39801,-0.25606 0.94632,-0.25606 l 0.40358,0 q 0.35347,0 0.62067,0.10855 0.35626,0.14473 0.37296,0.43976 0.0139,0.29781 -0.28668,0.49543 l -0.92127,0 0.3006,-0.59841 -0.58728,0 -0.22823,0.67077 q -0.0195,0.0584 -0.0195,0.10577 0,0.22544 0.36183,0.22544 l 2.17096,0 z"
           inkscape:connector-curvature="0" />
        <path
           id="path3371"
           style="font-style:normal;font-variant:normal;font-weight:bold;font-stretch:semi-expanded;font-family:Magneto;-inkscape-font-specification:'Magneto Bold Semi-Expanded';fill:#ffffff"
           d="m 157.3973,459.78105 q 0,0.19483 -0.21432,0.32843 -0.18926,0.1169 -0.39522,0.1169 l -1.066,0 q -0.42306,0 -0.42306,-0.3507 0,-0.0891 0.0362,-0.19204 l 0.31451,-0.90457 -0.59284,0 -0.30894,0.7988 q -0.0779,0.20318 -0.33678,0.20318 l -0.29503,0 0.36461,-1.00198 q -0.17256,-0.039 -0.28111,-0.17257 -0.10577,-0.13638 -0.10577,-0.31172 0,-0.32008 0.29781,-0.49543 0.24772,-0.14473 0.59006,-0.14473 l 0.4509,0 -0.2338,0.67912 1.53916,0 -0.50656,1.44731 1.1662,0 z"
           inkscape:connector-curvature="0" />
        <path
           id="path3373"
           style="font-style:normal;font-variant:normal;font-weight:bold;font-stretch:semi-expanded;font-family:Magneto;-inkscape-font-specification:'Magneto Bold Semi-Expanded';fill:#ffffff"
           d="m 161.10464,459.78105 q -0.16421,0.44533 -0.61511,0.44533 l -0.67912,0 q -0.24215,0.65686 -0.50934,0.97415 -0.37296,0.43976 -0.92684,0.43976 -0.34791,0 -0.53717,-0.20318 -0.16422,-0.17813 -0.16422,-0.45924 0,-0.22267 0.0946,-0.43141 0.0974,-0.20875 0.25328,-0.32008 l -0.21153,0 q -0.1837,0 -0.30617,-0.11133 -0.11968,-0.11412 -0.11968,-0.2839 0,-0.0779 0.0278,-0.15865 l 0.4843,-1.33876 1.01033,0 -0.52047,1.44731 0.565,0 0.51213,-1.44731 1.00477,0 -0.51213,1.44731 1.1495,0 z m -2.32961,0.52048 q -0.1837,0 -0.34235,0.20596 -0.15586,0.20875 -0.15586,0.41471 0,0.1837 0.16143,0.29503 l 0.33678,-0.9157 z"
           inkscape:connector-curvature="0" />
      </g>
    </g>
  </g>
</svg>
