<?xml version="1.0" encoding="UTF-8" standalone="no"?>
<!-- Created with Inkscape (http://www.inkscape.org/) -->

<svg
   xmlns:dc="http://purl.org/dc/elements/1.1/"
   xmlns:cc="http://creativecommons.org/ns#"
   xmlns:rdf="http://www.w3.org/1999/02/22-rdf-syntax-ns#"
   xmlns:svg="http://www.w3.org/2000/svg"
   xmlns="http://www.w3.org/2000/svg"
   xmlns:sodipodi="http://sodipodi.sourceforge.net/DTD/sodipodi-0.dtd"
   xmlns:inkscape="http://www.inkscape.org/namespaces/inkscape"
   width="8.77946in"
   height="8.1714296in"
   viewBox="0 0 790.15139 735.42863"
   id="svg2"
   version="1.1"
   inkscape:version="0.91 r13725"
   sodipodi:docname="YellowPawWhiteInitialsLARGE.svg">
  <defs
     id="defs4" />
  <sodipodi:namedview
     id="base"
     pagecolor="#ffffff"
     bordercolor="#666666"
     borderopacity="1.0"
     inkscape:pageopacity="0.0"
     inkscape:pageshadow="2"
     inkscape:zoom="1.4"
     inkscape:cx="33.209023"
     inkscape:cy="87.657764"
     inkscape:document-units="px"
     inkscape:current-layer="layer1"
     showgrid="false"
     inkscape:window-width="1440"
     inkscape:window-height="764"
     inkscape:window-x="13"
     inkscape:window-y="45"
     inkscape:window-maximized="0"
     fit-margin-top="0"
     fit-margin-left="0"
     fit-margin-right="0"
     fit-margin-bottom="0"
     units="in" />
  <metadata
     id="metadata7">
    <rdf:RDF>
      <cc:Work
         rdf:about="">
        <dc:format>image/svg+xml</dc:format>
        <dc:type
           rdf:resource="http://purl.org/dc/dcmitype/StillImage" />
        <dc:title></dc:title>
      </cc:Work>
    </rdf:RDF>
  </metadata>
  <g
     inkscape:label="Layer 1"
     inkscape:groupmode="layer"
     id="layer1"
     transform="translate(1260.7444,-669.19902)">
    <g
       id="g3362"
       transform="matrix(3.8915687,0,0,3.8915687,3689.1009,-2244.5633)">
      <path
         inkscape:connector-curvature="0"
         id="path3381"
         d="m -1148.9702,825.59133 c -2.7621,0.021 -5.535,0.29199 -8.2578,0.66993 -4.7245,1.50887 -9.5597,2.65483 -14.3653,3.8789 -7.3518,1.90881 -14.2929,6.03236 -18.6152,12.39649 -4.0261,6.03959 -4.4419,13.86978 -2.4336,20.71679 0.1599,3.70894 -0.2414,7.76967 -2.5176,10.87891 -1.8931,3.72961 -4.7067,7.15927 -8.3086,9.35156 -3.317,1.64965 -6.0534,4.50806 -6.7812,8.23633 -0.3653,4.60824 -0.109,9.4069 1.9648,13.63867 2.6611,5.79531 6.1162,11.74744 12.0059,14.74023 4.006,2.86996 8.7219,4.45012 13.6094,4.90821 11.8871,0.45162 23.5141,-2.57484 35.0371,-5.10938 6.0659,-1.47773 12.1433,-3.04744 18.0215,-5.15429 7.7258,-2.97682 15.6806,-5.4071 23.041,-9.24415 4.9512,-1.81829 9.0675,-5.25326 12.4316,-9.25585 3.0762,-2.87719 4.8979,-6.68939 6.2383,-10.61524 0.6982,-3.60282 0.4119,-7.42199 0.7324,-11.10742 -0.411,-3.25045 -1.0356,-6.61809 -2.3789,-9.64063 -1.7693,-3.18364 -4.0046,-6.48551 -7.1836,-8.33789 -4.4886,-2.81722 -10.1476,0.11649 -14.7207,-2.46093 -4.2995,-2.47675 -9.0093,-4.63357 -12.0918,-8.69727 -0.6484,-4.45725 -3.5622,-8.02059 -6.0722,-11.59765 -3.8168,-4.01054 -8.8345,-7.1738 -14.4102,-7.93164 -1.6351,-0.20011 -3.2881,-0.27629 -4.9453,-0.26368 z m 38.8984,33.19141 c 0.1831,0.006 0.3583,0.0202 0.5274,0.043 1.6584,0.22275 2.8153,1.20911 3.4707,2.95898 0.5443,1.45329 0.2975,3.1027 -0.7422,4.94922 -0.6231,1.10987 -1.6901,2.48157 -3.2012,4.11328 1.2445,1.02622 2.0669,2.07293 2.4668,3.14063 0.8258,2.20464 0.03,4.37617 -2.3867,6.51367 -1.7303,1.52362 -3.9317,2.79898 -6.6074,3.82617 l -7.6172,2.92383 -0.4121,-17.24414 5.2734,-2.02539 0.3145,14.56836 0.7461,-0.28711 c 1.709,-0.65606 3.0798,-1.40875 4.1132,-2.25782 1.5222,-1.2741 2.0286,-2.59273 1.5176,-3.95703 -0.1629,-0.435 -0.5534,-0.87893 -1.1699,-1.33203 -0.6203,-0.46299 -0.9823,-0.83254 -1.0859,-1.10937 -0.052,-0.13854 -0.079,-0.24198 -0.082,-0.3086 0.032,-0.50998 0.4052,-1.13786 1.1192,-1.88672 0.9827,-1.04438 1.6598,-1.92089 2.0312,-2.6289 0.6302,-1.18046 0.7435,-2.31107 0.3399,-3.38867 -0.5703,-1.52248 -2.002,-1.84193 -4.2969,-0.96094 l -17.1387,6.57812 0.8555,-4.60156 17.0957,-6.5625 c 1.9653,-0.75445 3.5878,-1.10936 4.8691,-1.06445 z m -39.2051,17.05468 c 0.1898,-0.008 0.395,0.0123 0.6133,0.0586 0.6704,0.14973 1.1375,0.57543 1.4004,1.27734 0.163,0.435 0.2379,0.96554 0.2266,1.5918 l -0.043,8.56445 3.4902,-7.90234 c 0.4972,-1.11811 0.8463,-1.81277 1.0469,-2.08203 0.359,-0.4432 0.9709,-0.82445 1.834,-1.14453 0.3418,-0.13121 0.7513,-0.14219 1.2285,-0.0312 0.7304,0.16062 1.234,0.61206 1.5117,1.35351 0.1593,0.42511 0.2372,0.93242 0.2344,1.52149 l 0,10.70117 6.5918,-2.53125 0,0 c 0.1824,1.73925 -0.8789,3.05278 -3.1836,3.9375 l -5.2578,2.01758 c -1.6406,0.6298 -2.6408,0.46483 -3,-0.49414 -0.1259,-0.33615 -0.1888,-0.81507 -0.1875,-1.4375 l 0.033,-7.33985 -4.2441,10.85742 c -0.4517,1.17979 -1.1406,1.94659 -2.0684,2.30274 -0.1756,0.0674 -0.3677,0.12462 -0.5742,0.16992 -1.1614,0.29893 -1.9287,-0.0502 -2.3027,-1.04883 -0.1444,-0.38556 -0.2124,-0.83525 -0.2032,-1.34765 l 0.076,-10.80079 -4.9004,14.51758 c -0.3241,0.98379 -1.0723,1.70053 -2.2441,2.15039 l -2.9727,1.14258 -0.498,-19.40039 -8.1309,3.12109 0.8125,-4.58593 9.7852,-3.75586 c 1.3476,-0.51735 2.2099,-0.27781 2.584,0.7207 0.1444,0.38557 0.2241,0.88694 0.2421,1.50195 l 0.295,10.40235 3.5937,-9.64063 c 0.4527,-1.2367 0.842,-2.07579 1.168,-2.51758 0.5425,-0.7284 1.3808,-1.30926 2.5137,-1.74414 0.1611,-0.0619 0.3356,-0.0977 0.5253,-0.10547 z m -24.5664,6.6211 0.5489,20.43164 c 0.023,0.98619 -0.2414,1.87298 -0.795,2.66211 -0.5532,0.78911 -1.2831,1.35838 -2.1914,1.70703 l -11.3379,4.35156 c -0.099,-0.97972 0.093,-1.85039 0.5782,-2.61328 0.4812,-0.77273 1.1816,-1.3351 2.0996,-1.6875 l 6.3281,-2.42969 -0.2031,-9.98047 -2.6367,6.42383 c -0.5453,1.31749 -1.5761,2.26659 -3.0899,2.84766 -0.8788,0.33739 -1.6956,0.42472 -2.4492,0.26172 -0.8637,-0.18861 -1.453,-0.70839 -1.7715,-1.5586 -0.1518,-0.40533 -0.2369,-0.83702 -0.2519,-1.29492 l -0.1914,-9.95117 -2.6368,1.01367 c 0.1428,0.26181 0.25,0.48598 0.3204,0.67383 0.3666,0.97874 0.2974,1.96086 -0.2051,2.94531 -0.4928,0.9807 -1.2754,1.67747 -2.3496,2.08985 -1.0742,0.41236 -2.1217,0.41721 -3.1426,0.0176 -1.0209,-0.39963 -1.7154,-1.08767 -2.082,-2.06641 -0.3852,-1.02819 -0.3073,-2.04158 0.2343,-3.04102 0.5173,-0.9449 1.2851,-1.61402 2.3008,-2.0039 l 9.5215,-3.6543 c 0.6739,-0.25867 1.2954,-0.26562 1.8672,-0.0215 0.568,0.23426 0.9808,0.69286 1.2363,1.375 0.1445,0.38558 0.2212,0.80203 0.2324,1.25 l 0.2032,10.06445 4.4296,-14.47266 c 0.1136,-0.38282 0.3784,-0.77884 0.795,-1.1875 0.4165,-0.40882 0.8164,-0.68582 1.1972,-0.83203 l 3.4414,-1.32031 z"
         style="fill:#ffcc00;fill-opacity:1;stroke:none;stroke-width:0.21668185px;stroke-linecap:butt;stroke-linejoin:miter;stroke-opacity:1" />
      <path
         inkscape:connector-curvature="0"
         id="path3379"
         d="m -1248.0625,816.19933 c -3.325,0.21802 -6.1038,2.48001 -7.5952,5.36133 -1.1831,1.65298 -2.437,3.26688 -3.0894,5.21899 -0.7274,1.64157 -1.5728,3.24934 -1.6284,5.08343 -0.7377,4.95299 -0.3755,10.11306 1.1418,14.88524 2.0741,4.81299 3.7243,9.89679 7.0066,14.07404 1.8677,2.7171 4.5738,4.66519 6.7712,7.0902 2.7507,1.88981 5.7924,3.42508 8.9359,4.56254 3.2824,0.78114 6.7096,0.20655 10.0448,0.13918 4.5229,-0.61807 8.8808,-2.42835 12.7675,-4.77982 3.672,-3.29829 6.3793,-7.67742 7.9764,-12.33173 1.9972,-5.84714 0.3482,-12.76225 -4.1612,-16.99125 -2.744,-2.2772 -5.886,-3.944 -9.0387,-5.56456 -2.9777,-1.88603 -5.9567,-3.76453 -8.9989,-5.53837 -4.4678,-3.07744 -7.8934,-7.58718 -12.9998,-9.73501 -2.2529,-0.92257 -4.6674,-1.7422 -7.1326,-1.47421 z"
         style="fill:#ffcc00;fill-opacity:1;stroke:none;stroke-width:0.21668187px;stroke-linecap:butt;stroke-linejoin:miter;stroke-opacity:1" />
      <path
         inkscape:connector-curvature="0"
         id="path3383"
         d="m -1202.1172,771.26353 c -2.5997,0.58491 -5.0013,1.82939 -7.5688,2.52809 -2.2917,1.18482 -4.4437,2.65034 -6.2428,4.51583 -1.9569,1.54293 -3.7216,3.34795 -4.758,5.65963 -3.4795,5.91723 -4.4402,12.86087 -4.6536,19.61334 -0.8256,7.01301 1.0112,14.32892 5.0084,20.14156 2.8843,3.29416 6.05,6.5627 10.252,8.11291 3.3617,1.67575 7.092,2.2098 10.7542,2.79991 5.1526,0.63208 9.8967,-2.03238 14.0905,-4.68047 3.1339,-2.45296 6.5915,-5.22306 7.565,-9.27847 1.511,-5.15453 0.3396,-10.98564 -2.6244,-15.40779 -2.5447,-3.00474 -5.317,-5.85505 -7.3025,-9.2967 -1.5131,-1.90263 -2.6613,-4.10903 -2.749,-6.58703 -0.349,-2.47862 0.5499,-5.01908 -0.4422,-7.41973 -0.5288,-4.03092 -2.8541,-7.78454 -6.1688,-10.10159 -1.633,-0.55423 -3.4579,-0.60778 -5.16,-0.59949 z"
         style="fill:#ffcc00;fill-opacity:1;stroke:none;stroke-width:0.21668187px;stroke-linecap:butt;stroke-linejoin:miter;stroke-opacity:1" />
      <path
         inkscape:connector-curvature="0"
         id="path3385"
         d="m -1163.0814,759.19949 c -3.3606,0.0615 -6.6671,0.85091 -9.8946,1.69347 -1.7338,0.9807 -3.5422,1.99737 -4.997,3.3215 -0.4997,1.47052 -1.407,2.87129 -1.086,4.48224 0.1263,2.6281 0.081,5.3233 0.7117,7.88077 0.5635,1.68878 1.2822,3.29782 2.3768,4.71375 0.8054,1.41412 2.2197,2.5428 2.3312,4.2592 0.8021,3.05353 0.1766,6.24432 0.032,9.34907 -0.3051,2.81057 -0.3892,5.62646 -0.2099,8.44867 0.05,1.94332 0.4144,3.89547 0.8841,5.77105 0.6421,1.46845 0.9086,3.16986 2.2306,4.21669 1.1894,1.35086 2.5343,2.59074 3.9206,3.71708 1.8016,0.78889 3.6062,1.56827 5.5777,1.8013 1.959,0.35903 3.9905,0.33109 5.9766,0.31439 2.4109,-0.19676 4.8396,-0.28904 7.152,-1.06727 1.5695,-0.48485 3.3344,-0.54475 4.5785,-1.73671 2.1335,-1.31632 3.8646,-3.15118 5.6064,-4.92507 1.6108,-2.18157 3.5009,-4.18533 4.574,-6.70924 0.9439,-1.65646 1.739,-3.37203 2.1335,-5.24691 0.7073,-2.13148 0.4086,-4.42828 0.6331,-6.6391 -0.484,-3.78322 -1.6853,-7.43195 -2.9559,-11.0081 -1.5751,-2.47508 -2.9114,-5.11993 -4.6436,-7.48338 -2.2232,-2.6385 -4.3462,-5.40884 -6.9053,-7.72422 -2.7796,-2.10024 -5.7475,-3.91025 -8.768,-5.63912 -1.7419,-0.96261 -3.7678,-1.41512 -5.7367,-1.59429 -1.1739,-0.0653 -2.3479,-0.13051 -3.5219,-0.19577 z"
         style="fill:#ffcc00;fill-opacity:1;stroke:none;stroke-width:0.21668187px;stroke-linecap:butt;stroke-linejoin:miter;stroke-opacity:1" />
      <path
         inkscape:connector-curvature="0"
         id="path3387"
         d="m -1104.3535,773.21064 c -3.3484,0.10414 -6.6631,1.61376 -8.5394,4.46306 -2.7558,3.10133 -3.1657,7.42231 -4.0667,11.30619 -0.8593,3.04369 -3.0898,5.4799 -3.8652,8.55881 -1.5516,3.51517 -3.3391,6.91701 -5.1427,10.31405 -1.8522,2.97323 -2.7852,6.22793 -2.2378,9.73759 -0.4902,3.14205 0.5985,6.08316 2.2801,8.7041 2.9998,3.64874 7.3566,5.80672 11.6654,7.53949 2.5613,1.51809 5.5543,1.61649 8.4517,1.49723 3.6889,-0.16234 7.0714,-1.82484 10.5103,-3.0141 4.1745,-1.69384 7.3735,-5.11889 10.107,-8.594 2.4318,-3.63149 3.6514,-8.01172 4.1695,-12.31524 0.4581,-5.1703 0.041,-10.37674 -0.676,-15.50434 -1.0056,-5.35447 -3.1323,-10.61645 -6.9685,-14.57747 -2.5919,-2.94562 -6.0288,-4.98916 -9.4189,-6.87492 -1.9429,-0.98923 -4.155,-1.04768 -6.2688,-1.24045 z"
         style="fill:#ffcc00;fill-opacity:1;stroke:none;stroke-width:0.21668187px;stroke-linecap:butt;stroke-linejoin:miter;stroke-opacity:1" />
    </g>
  </g>
</svg>
