<?xml version="1.0" encoding="UTF-8" standalone="no"?>
<!-- Created with Inkscape (http://www.inkscape.org/) -->

<svg
   xmlns:dc="http://purl.org/dc/elements/1.1/"
   xmlns:cc="http://creativecommons.org/ns#"
   xmlns:rdf="http://www.w3.org/1999/02/22-rdf-syntax-ns#"
   xmlns:svg="http://www.w3.org/2000/svg"
   xmlns="http://www.w3.org/2000/svg"
   xmlns:sodipodi="http://sodipodi.sourceforge.net/DTD/sodipodi-0.dtd"
   xmlns:inkscape="http://www.inkscape.org/namespaces/inkscape"
   width="31.968849mm"
   height="9.0818796mm"
   viewBox="0 0 113.27546 32.179888"
   id="svg3364"
   version="1.1"
   inkscape:version="0.91 r13725"
   sodipodi:docname="YMB.svg">
  <defs
     id="defs3366" />
  <sodipodi:namedview
     id="base"
     pagecolor="#ffffff"
     bordercolor="#666666"
     borderopacity="1.0"
     inkscape:pageopacity="0.0"
     inkscape:pageshadow="2"
     inkscape:zoom="2.8284271"
     inkscape:cx="44.079002"
     inkscape:cy="18.839686"
     inkscape:document-units="px"
     inkscape:current-layer="layer1"
     showgrid="false"
     fit-margin-top="0"
     fit-margin-left="0"
     fit-margin-right="0"
     fit-margin-bottom="0"
     inkscape:window-width="1440"
     inkscape:window-height="837"
     inkscape:window-x="-4"
     inkscape:window-y="-4"
     inkscape:window-maximized="1" />
  <metadata
     id="metadata3369">
    <rdf:RDF>
      <cc:Work
         rdf:about="">
        <dc:format>image/svg+xml</dc:format>
        <dc:type
           rdf:resource="http://purl.org/dc/dcmitype/StillImage" />
        <dc:title></dc:title>
      </cc:Work>
    </rdf:RDF>
  </metadata>
  <g
     inkscape:label="Layer 1"
     inkscape:groupmode="layer"
     id="layer1"
     transform="translate(-324.53668,-565.23318)">
    <g
       id="g4168"
       transform="matrix(1.6637666,0,0,1.6599197,-1355.9682,-88.436143)">
      <g
         id="text4152"
         style="font-style:normal;font-weight:normal;font-size:22.00421715px;line-height:125%;font-family:sans-serif;letter-spacing:0px;word-spacing:0px;fill:#000000;fill-opacity:1;stroke:none;stroke-width:1px;stroke-linecap:butt;stroke-linejoin:miter;stroke-opacity:1">
        <path
           id="path4193"
           style="font-style:normal;font-variant:normal;font-weight:bold;font-stretch:semi-expanded;font-family:Magneto;-inkscape-font-specification:'Magneto Bold Semi-Expanded'"
           d="m 1032.4742,395.93506 -4.5555,13.07575 q -0.3331,0.94549 -1.1496,1.49345 -0.8166,0.54796 -1.8158,0.54796 l -8.3161,0 q 0.2579,-0.96699 0.9992,-1.51494 0.7414,-0.5587 1.7514,-0.5587 l 4.6415,0 2.267,-6.37134 -3.234,3.42741 q -0.9992,1.05294 -2.6646,1.05294 -0.967,0 -1.6331,-0.42977 -0.7629,-0.49424 -0.7629,-1.41824 0,-0.44052 0.1505,-0.88103 l 2.267,-6.34985 -1.934,0 q 0.043,0.30084 0.043,0.50498 0,1.06368 -0.838,1.81578 -0.8273,0.75209 -2.0092,0.75209 -1.1819,0 -2.0199,-0.75209 -0.8381,-0.7521 -0.8381,-1.81578 0,-1.1174 0.881,-1.8695 0.8381,-0.70912 1.9555,-0.70912 l 6.9838,0 q 0.7413,0 1.2033,0.44051 0.462,0.42977 0.462,1.17113 0,0.41902 -0.1504,0.84879 l -2.2885,6.42506 6.3176,-8.09042 q 0.2471,-0.32232 0.7951,-0.5587 0.5479,-0.23637 0.9669,-0.23637 l 2.5249,0 z"
           inkscape:connector-curvature="0" />
      </g>
      <g
         id="text4160"
         style="font-style:normal;font-weight:normal;font-size:21.86062241px;line-height:125%;font-family:sans-serif;letter-spacing:0px;word-spacing:0px;fill:#000000;fill-opacity:1;stroke:none;stroke-width:1px;stroke-linecap:butt;stroke-linejoin:miter;stroke-opacity:1"
         transform="scale(1.0040759,0.99594064)">
        <path
           id="path4196"
           style="font-style:normal;font-variant:normal;font-weight:bold;font-stretch:semi-expanded;font-family:Magneto;-inkscape-font-specification:'Magneto Bold Semi-Expanded'"
           d="m 1053.3512,410.85958 q -0.4483,1.70786 -2.9674,1.70786 l -3.832,0 q -1.7933,0 -1.7933,-1.03539 0,-0.36292 0.2242,-0.94999 l 1.7719,-4.61123 -5.2944,5.80673 q -0.8539,0.95 -1.868,0.95 -0.1921,0 -0.4056,-0.032 -1.2168,-0.13876 -1.2168,-1.21685 0,-0.41629 0.1921,-0.89662 l 2.6258,-6.77808 -6.5859,7.95223 q -0.6618,0.81123 -1.9427,0.81123 l -2.1668,0 4.3123,-12.32862 -5.9241,0 1.6118,-2.68988 7.1303,0 q 1.473,0 1.473,1.07809 0,0.41629 -0.2028,1.00337 l -2.2949,6.61796 4.5898,-5.1983 q 0.8753,-1.00337 1.345,-1.30225 0.7792,-0.49101 2.0174,-0.49101 0.3522,0 0.7365,0.24551 0.5871,0.38426 0.5871,1.14213 0,0.46966 -0.2349,1.05674 l -2.0707,5.37976 4.1095,-4.13089 q 0.8753,-0.87528 1.1635,-1.05674 0.5017,-0.2882 1.441,-0.27753 0.3736,0 0.7899,0.27753 0.6404,0.41629 0.6404,1.21685 0,0.45899 -0.2135,1.01405 l -2.5511,6.73537 4.8034,0 z"
           inkscape:connector-curvature="0" />
      </g>
      <g
         id="text4164"
         style="font-style:normal;font-weight:normal;font-size:21.26290512px;line-height:125%;font-family:sans-serif;letter-spacing:0px;word-spacing:0px;fill:#000000;fill-opacity:1;stroke:none;stroke-width:1px;stroke-linecap:butt;stroke-linejoin:miter;stroke-opacity:1"
         transform="scale(0.96632044,1.0348534)">
        <path
           id="path4199"
           style="font-style:normal;font-variant:normal;font-weight:bold;font-stretch:semi-expanded;font-family:Magneto;-inkscape-font-specification:'Magneto Bold Semi-Expanded';letter-spacing:2.20071006px;baseline-shift:baseline"
           d="m 1114.172,385.87065 q 0,1.52619 -1.6092,2.85512 -0.9656,0.79944 -2.9382,1.76499 0.7994,1.38084 0.7994,2.50213 0,2.31525 -2.9901,3.42615 -2.1387,0.78906 -4.9835,0.78906 l -5.3987,0 3.748,-10.65222 3.7376,0 -3.1874,8.99105 0.5295,0 q 1.8169,0 3.0732,-0.41529 1.8584,-0.63332 1.8584,-2.06607 0,-0.45682 -0.4153,-1.09014 -0.4153,-0.6437 -0.4153,-0.93441 0,-0.14535 0.021,-0.20764 0.2076,-0.45682 1.1316,-0.89288 1.2771,-0.61255 1.8689,-1.13167 0.9967,-0.86173 0.9967,-1.99339 0,-1.59888 -2.4399,-1.59888 l -12.1472,0 1.5988,-2.61633 12.1161,0 q 2.388,0 3.5819,0.6437 1.4639,0.78906 1.4639,2.62672 z"
           inkscape:connector-curvature="0" />
      </g>
    </g>
  </g>
</svg>
