<?xml version="1.0" encoding="UTF-8" standalone="no"?>
<!-- Created with Inkscape (http://www.inkscape.org/) -->

<svg
   xmlns:dc="http://purl.org/dc/elements/1.1/"
   xmlns:cc="http://creativecommons.org/ns#"
   xmlns:rdf="http://www.w3.org/1999/02/22-rdf-syntax-ns#"
   xmlns:svg="http://www.w3.org/2000/svg"
   xmlns="http://www.w3.org/2000/svg"
   xmlns:sodipodi="http://sodipodi.sourceforge.net/DTD/sodipodi-0.dtd"
   xmlns:inkscape="http://www.inkscape.org/namespaces/inkscape"
   width="103.2746mm"
   height="34.013142mm"
   viewBox="0 0 365.93365 120.519"
   id="svg3405"
   version="1.1"
   inkscape:version="0.91 r13725"
   sodipodi:docname="YMBspelledOut.svg">
  <defs
     id="defs3407" />
  <sodipodi:namedview
     id="base"
     pagecolor="#ffffff"
     bordercolor="#666666"
     borderopacity="1.0"
     inkscape:pageopacity="0.0"
     inkscape:pageshadow="2"
     inkscape:zoom="0.88867187"
     inkscape:cx="92.360728"
     inkscape:cy="136.54487"
     inkscape:document-units="px"
     inkscape:current-layer="layer1"
     showgrid="false"
     fit-margin-top="0"
     fit-margin-left="0"
     fit-margin-right="0"
     fit-margin-bottom="0"
     inkscape:window-width="1440"
     inkscape:window-height="837"
     inkscape:window-x="-4"
     inkscape:window-y="-4"
     inkscape:window-maximized="1" />
  <metadata
     id="metadata3410">
    <rdf:RDF>
      <cc:Work
         rdf:about="">
        <dc:format>image/svg+xml</dc:format>
        <dc:type
           rdf:resource="http://purl.org/dc/dcmitype/StillImage" />
        <dc:title></dc:title>
      </cc:Work>
    </rdf:RDF>
  </metadata>
  <g
     inkscape:label="Layer 1"
     inkscape:groupmode="layer"
     id="layer1"
     transform="translate(-137.47884,-548.38809)">
    <g
       id="g3425"
       transform="matrix(1.3518481,0,0,1.3518481,-44.995843,-197.81469)">
      <g
         style="font-style:normal;font-weight:normal;font-size:40px;line-height:125%;font-family:sans-serif;letter-spacing:0px;word-spacing:0px;fill:#000000;fill-opacity:1;stroke:none;stroke-width:1px;stroke-linecap:butt;stroke-linejoin:miter;stroke-opacity:1"
         id="text3413">
        <path
           d="m 173.20149,559.01801 -8.28125,23.76953 q -0.60547,1.71875 -2.08984,2.71484 -1.48438,0.99609 -3.30078,0.99609 l -15.11719,0 q 0.46875,-1.75781 1.81641,-2.7539 1.34765,-1.01563 3.18359,-1.01563 l 8.4375,0 4.12109,-11.58203 -5.8789,6.23047 q -1.81641,1.91406 -4.84375,1.91406 -1.75782,0 -2.96875,-0.78125 -1.38672,-0.89843 -1.38672,-2.57812 0,-0.80078 0.27344,-1.60156 l 4.12109,-11.54297 -3.51563,0 q 0.0781,0.54687 0.0781,0.91797 0,1.93359 -1.52344,3.30078 -1.5039,1.36718 -3.65234,1.36718 -2.14844,0 -3.67188,-1.36718 -1.52343,-1.36719 -1.52343,-3.30078 0,-2.03125 1.60156,-3.39844 1.52344,-1.28906 3.55469,-1.28906 l 12.69531,0 q 1.34765,0 2.1875,0.80078 0.83984,0.78125 0.83984,2.1289 0,0.76172 -0.27344,1.54297 l -4.16015,11.67969 11.48437,-14.70703 q 0.44922,-0.58594 1.44532,-1.01563 0.99609,-0.42968 1.75781,-0.42968 l 4.58984,0 z"
           style="font-style:normal;font-variant:normal;font-weight:bold;font-stretch:semi-expanded;font-family:Magneto;-inkscape-font-specification:'Magneto Bold Semi-Expanded'"
           id="path3432" />
        <path
           d="m 195.5843,583.37347 q -0.41015,1.50391 -1.875,2.36329 -1.30859,0.76171 -2.98828,0.76171 l -10.8789,0 q -9.49219,0 -9.49219,-5.72265 0,-3.67188 3.24219,-5.76172 2.79297,-1.79688 6.64062,-1.79688 l 2.83203,0 q 2.48047,0 4.35547,0.76172 2.5,1.01563 2.61719,3.08594 0.0977,2.08984 -2.01172,3.47656 l -6.46484,0 2.10937,-4.19922 -4.12109,0 -1.60156,4.70704 q -0.13672,0.41015 -0.13672,0.74218 0,1.58203 2.53906,1.58203 l 15.23437,0 z"
           style="font-style:normal;font-variant:normal;font-weight:bold;font-stretch:semi-expanded;font-family:Magneto;-inkscape-font-specification:'Magneto Bold Semi-Expanded'"
           id="path3434" />
        <path
           d="m 210.60384,583.37347 q -0.48829,1.71875 -2.2461,2.53907 -1.23047,0.58593 -2.63672,0.58593 l -7.51953,0 q -2.89062,0 -2.89062,-1.97265 0,-0.50781 0.21484,-1.15235 l 7.24609,-20.42968 6.91407,0 -7.28516,20.42968 8.20313,0 z"
           style="font-style:normal;font-variant:normal;font-weight:bold;font-stretch:semi-expanded;font-family:Magneto;-inkscape-font-specification:'Magneto Bold Semi-Expanded'"
           id="path3436" />
        <path
           d="m 225.60384,583.37347 q -0.48829,1.71875 -2.2461,2.53907 -1.23047,0.58593 -2.63672,0.58593 l -7.51953,0 q -2.89062,0 -2.89062,-1.97265 0,-0.50781 0.21484,-1.15235 l 7.24609,-20.42968 6.91407,0 -7.28516,20.42968 8.20313,0 z"
           style="font-style:normal;font-variant:normal;font-weight:bold;font-stretch:semi-expanded;font-family:Magneto;-inkscape-font-specification:'Magneto Bold Semi-Expanded'"
           id="path3438" />
        <path
           d="m 258.72884,573.21722 q -0.78125,3.125 -4.6875,3.125 l -12.22657,0 q 0.64453,0.42969 1.05469,1.58204 0.41016,1.13281 0.33203,1.97265 -0.27344,3.26172 -2.87109,5.11719 -2.48047,1.77734 -6.44531,1.79687 -4.60938,0.0391 -7.08985,-1.8164 -2.20703,-1.64063 -2.20703,-4.31641 0,-0.52734 0.0977,-1.05469 0.50781,-2.94921 2.92968,-4.6289 2.57813,-1.77735 6.875,-1.77735 l 24.23829,0 z m -21.28907,3.125 -4.47265,0 -1.75782,5 q -0.13671,0.39063 -0.13671,0.74219 0,1.67969 3.125,1.67969 0.37109,0 0.64453,-0.0195 l 2.59765,-7.40235 z"
           style="font-style:normal;font-variant:normal;font-weight:bold;font-stretch:semi-expanded;font-family:Magneto;-inkscape-font-specification:'Magneto Bold Semi-Expanded'"
           id="path3440" />
        <path
           d="m 280.13509,573.21722 -3.53516,10.15625 q -1.44531,3.125 -4.86328,3.125 l -9.88281,0 q -2.59766,0 -2.89063,-1.71875 -1.42578,1.71875 -4.12109,1.71875 l -3.47657,0 q -2.89062,0 -2.89062,-2.05078 0,-0.48828 0.21484,-1.07422 l 3.55469,-10.15625 7.08984,0 -3.65234,10.15625 3.39844,0 3.65234,-10.15625 6.99219,0 -3.55469,10.15625 3.32031,0 3.63282,-10.15625 7.01172,0 z"
           style="font-style:normal;font-variant:normal;font-weight:bold;font-stretch:semi-expanded;font-family:Magneto;-inkscape-font-specification:'Magneto Bold Semi-Expanded'"
           id="path3442" />
        <path
           d="m 342.40071,583.37347 q -0.82031,3.125 -5.42969,3.125 l -7.01172,0 q -3.28125,0 -3.28125,-1.89453 0,-0.66406 0.41016,-1.73828 l 3.24219,-8.4375 -9.6875,10.625 q -1.5625,1.73828 -3.41797,1.73828 -0.35156,0 -0.74219,-0.0586 -2.22656,-0.25391 -2.22656,-2.22656 0,-0.76172 0.35156,-1.64063 l 4.80469,-12.40234 -12.05078,14.55078 q -1.21094,1.48437 -3.55469,1.48437 l -3.96484,0 7.89062,-22.55859 -10.83984,0 2.94922,-4.92187 13.04687,0 q 2.69531,0 2.69531,1.97265 0,0.76172 -0.37109,1.83594 l -4.19922,12.10937 8.39844,-9.51171 q 1.60156,-1.83594 2.46094,-2.38282 1.42578,-0.89843 3.6914,-0.89843 0.64453,0 1.34766,0.44921 1.07422,0.70313 1.07422,2.08985 0,0.85937 -0.42969,1.93359 l -3.78906,9.84375 7.51953,-7.55859 q 1.60156,-1.60156 2.12891,-1.9336 0.91796,-0.52734 2.63671,-0.50781 0.6836,0 1.44532,0.50781 1.17187,0.76172 1.17187,2.22657 0,0.83984 -0.39062,1.85547 l -4.66797,12.32421 8.78906,0 z"
           style="font-style:normal;font-variant:normal;font-weight:bold;font-stretch:semi-expanded;font-family:Magneto;-inkscape-font-specification:'Magneto Bold Semi-Expanded'"
           id="path3444" />
        <path
           d="m 368.27962,583.37347 q -0.41016,1.6211 -1.79688,2.46094 -1.09375,0.66406 -2.32422,0.66406 l -8.16406,0 q -2.87109,0 -2.87109,-1.83593 -1.52344,1.83593 -4.1211,1.83593 l -3.4375,0 q -1.58203,0 -2.46093,-0.82031 -0.82032,-0.76172 -0.82032,-2.01172 0,-0.70312 0.27344,-1.44531 l 3.28125,-9.00391 7.08984,0 -3.65234,10.15625 3.96484,0 3.63282,-10.15625 7.01172,0 -3.55469,10.15625 7.94922,0 z"
           style="font-style:normal;font-variant:normal;font-weight:bold;font-stretch:semi-expanded;font-family:Magneto;-inkscape-font-specification:'Magneto Bold Semi-Expanded'"
           id="path3446" />
        <path
           d="m 385.5843,583.37347 q -0.91796,3.125 -4.88281,3.125 l -9.96094,0 q -2.89062,0 -2.89062,-2.03125 0,-0.50781 0.21484,-1.09375 l 2.48047,-7.03125 -3.20312,0 1.23047,-3.125 q 3.41796,-0.8789 5.07812,-2.24609 1.875,-1.54297 4.00391,-5.58594 l 3.80859,0 -2.75391,7.83203 5.03907,0 q -1.21094,3.125 -4.92188,3.125 l -1.28906,0 -2.44141,7.03125 10.48828,0 z"
           style="font-style:normal;font-variant:normal;font-weight:bold;font-stretch:semi-expanded;font-family:Magneto;-inkscape-font-specification:'Magneto Bold Semi-Expanded'"
           id="path3448" />
        <path
           d="m 402.92805,583.37347 q -0.91796,3.125 -4.88281,3.125 l -9.96094,0 q -2.89062,0 -2.89062,-2.03125 0,-0.50781 0.21484,-1.09375 l 2.48047,-7.03125 -3.20312,0 1.23047,-3.125 q 3.41796,-0.8789 5.07812,-2.24609 1.875,-1.54297 4.00391,-5.58594 l 3.80859,0 -2.75391,7.83203 5.03907,0 q -1.21094,3.125 -4.92188,3.125 l -1.28906,0 -2.44141,7.03125 10.48828,0 z"
           style="font-style:normal;font-variant:normal;font-weight:bold;font-stretch:semi-expanded;font-family:Magneto;-inkscape-font-specification:'Magneto Bold Semi-Expanded'"
           id="path3450" />
      </g>
      <g
         style="font-style:normal;font-weight:normal;font-size:40px;line-height:125%;font-family:sans-serif;letter-spacing:0px;word-spacing:0px;fill:#000000;fill-opacity:1;stroke:none;stroke-width:1px;stroke-linecap:butt;stroke-linejoin:miter;stroke-opacity:1"
         id="text3421">
        <path
           d="m 212.30305,609.05603 q 0,2.87109 -3.02734,5.37109 -1.81641,1.50391 -5.52734,3.32032 1.5039,2.59765 1.5039,4.70703 0,4.35547 -5.625,6.44531 -4.02343,1.48438 -9.375,1.48438 l -10.15625,0 7.05078,-20.03907 7.03125,0 -5.99609,16.91407 0.99609,0 q 3.41797,0 5.78125,-0.78125 3.4961,-1.19141 3.4961,-3.88672 0,-0.85938 -0.78125,-2.05078 -0.78125,-1.21094 -0.78125,-1.75782 0,-0.27343 0.0391,-0.39062 0.39063,-0.85938 2.12891,-1.67969 2.40234,-1.15234 3.51562,-2.12891 1.875,-1.62109 1.875,-3.75 0,-3.00781 -4.58984,-3.00781 l -22.85156,0 3.00781,-4.92187 22.79297,0 q 4.49218,0 6.73828,1.21093 2.7539,1.48438 2.7539,4.94141 z"
           style="font-style:normal;font-variant:normal;font-weight:bold;font-stretch:semi-expanded;font-family:Magneto;-inkscape-font-specification:'Magneto Bold Semi-Expanded'"
           id="path3453" />
        <path
           d="m 232.4593,627.25916 q 0,1.36718 -1.5039,2.30468 -1.32813,0.82032 -2.77344,0.82032 l -7.48047,0 q -2.96875,0 -2.96875,-2.46094 0,-0.625 0.25391,-1.34766 l 2.20703,-6.34765 -4.16016,0 -2.16797,5.60546 q -0.54687,1.42579 -2.36328,1.42579 l -2.07031,0 2.55859,-7.03125 q -1.21093,-0.27344 -1.97265,-1.21094 -0.74219,-0.95703 -0.74219,-2.1875 0,-2.2461 2.08984,-3.47656 1.73829,-1.01563 4.14063,-1.01563 l 3.16406,0 -1.64062,4.76563 10.80078,0 -3.55469,10.15625 8.18359,0 z"
           style="font-style:normal;font-variant:normal;font-weight:bold;font-stretch:semi-expanded;font-family:Magneto;-inkscape-font-specification:'Magneto Bold Semi-Expanded'"
           id="path3455" />
        <path
           d="m 257.02962,627.25916 q -0.41016,1.5039 -1.875,2.36328 -1.3086,0.76172 -2.98828,0.76172 l -10.87891,0 q -9.49219,0 -9.49219,-5.72266 0,-3.67188 3.24219,-5.76172 2.79297,-1.79687 6.64062,-1.79687 l 2.83204,0 q 2.48046,0 4.35546,0.76171 2.5,1.01563 2.61719,3.08594 0.0977,2.08985 -2.01172,3.47656 l -6.46484,0 2.10937,-4.19921 -4.12109,0 -1.60156,4.70703 q -0.13672,0.41015 -0.13672,0.74218 0,1.58204 2.53906,1.58204 l 15.23438,0 z"
           style="font-style:normal;font-variant:normal;font-weight:bold;font-stretch:semi-expanded;font-family:Magneto;-inkscape-font-specification:'Magneto Bold Semi-Expanded'"
           id="path3457" />
        <path
           d="m 288.29915,617.10291 -3.53516,10.15625 q -1.44531,3.125 -4.86328,3.125 l -9.88281,0 q -2.59766,0 -2.89063,-1.71875 -1.42578,1.71875 -4.12109,1.71875 l -3.47656,0 q -2.89063,0 -2.89063,-2.05079 0,-0.48828 0.21485,-1.07421 l 3.55468,-10.15625 7.08985,0 -3.65235,10.15625 3.39844,0 3.65234,-10.15625 6.99219,0 -3.55469,10.15625 3.32032,0 3.63281,-10.15625 7.01172,0 z"
           style="font-style:normal;font-variant:normal;font-weight:bold;font-stretch:semi-expanded;font-family:Magneto;-inkscape-font-specification:'Magneto Bold Semi-Expanded'"
           id="path3459" />
        <path
           d="m 314.60774,627.25916 q -0.41015,1.5039 -1.875,2.36328 -1.30859,0.76172 -2.98828,0.76172 l -10.87891,0 q -9.49218,0 -9.49218,-5.72266 0,-3.67188 3.24218,-5.76172 2.79297,-1.79687 6.64063,-1.79687 l 2.83203,0 q 2.48047,0 4.35547,0.76171 2.5,1.01563 2.61719,3.08594 0.0976,2.08985 -2.01172,3.47656 l -6.46485,0 2.10938,-4.19921 -4.12109,0 -1.60157,4.70703 q -0.13672,0.41015 -0.13672,0.74218 0,1.58204 2.53907,1.58204 l 15.23437,0 z"
           style="font-style:normal;font-variant:normal;font-weight:bold;font-stretch:semi-expanded;font-family:Magneto;-inkscape-font-specification:'Magneto Bold Semi-Expanded'"
           id="path3461" />
        <path
           d="m 337.38118,627.25916 q 0,1.36718 -1.50391,2.30468 -1.32812,0.82032 -2.77343,0.82032 l -7.48047,0 q -2.96875,0 -2.96875,-2.46094 0,-0.625 0.2539,-1.34766 l 2.20703,-6.34765 -4.16015,0 -2.16797,5.60546 q -0.54688,1.42579 -2.36328,1.42579 l -2.07031,0 2.55859,-7.03125 q -1.21094,-0.27344 -1.97266,-1.21094 -0.74218,-0.95703 -0.74218,-2.1875 0,-2.2461 2.08984,-3.47656 1.73828,-1.01563 4.14062,-1.01563 l 3.16407,0 -1.64063,4.76563 10.80078,0 -3.55468,10.15625 8.18359,0 z"
           style="font-style:normal;font-variant:normal;font-weight:bold;font-stretch:semi-expanded;font-family:Magneto;-inkscape-font-specification:'Magneto Bold Semi-Expanded'"
           id="path3463" />
        <path
           d="m 363.3968,627.25916 q -1.15234,3.125 -4.3164,3.125 l -4.76563,0 q -1.69922,4.60937 -3.57422,6.83593 -2.61718,3.08594 -6.5039,3.08594 -2.44141,0 -3.76953,-1.42578 -1.15235,-1.25 -1.15235,-3.22266 0,-1.5625 0.66407,-3.02734 0.68359,-1.46484 1.77734,-2.24609 l -1.48438,0 q -1.28906,0 -2.14843,-0.78125 -0.83985,-0.80079 -0.83985,-1.99219 0,-0.54688 0.19532,-1.11328 l 3.39843,-9.39453 7.08985,0 -3.65235,10.15625 3.96485,0 3.59375,-10.15625 7.05078,0 -3.59375,10.15625 8.0664,0 z m -16.34765,3.65234 q -1.28906,0 -2.40235,1.44531 -1.09375,1.46485 -1.09375,2.91016 0,1.28906 1.13282,2.07031 l 2.36328,-6.42578 z"
           style="font-style:normal;font-variant:normal;font-weight:bold;font-stretch:semi-expanded;font-family:Magneto;-inkscape-font-specification:'Magneto Bold Semi-Expanded'"
           id="path3465" />
      </g>
    </g>
  </g>
</svg>
