<?xml version="1.0" encoding="UTF-8" standalone="no"?>
<!-- Created with Inkscape (http://www.inkscape.org/) -->

<svg
   xmlns:dc="http://purl.org/dc/elements/1.1/"
   xmlns:cc="http://creativecommons.org/ns#"
   xmlns:rdf="http://www.w3.org/1999/02/22-rdf-syntax-ns#"
   xmlns:svg="http://www.w3.org/2000/svg"
   xmlns="http://www.w3.org/2000/svg"
   xmlns:sodipodi="http://sodipodi.sourceforge.net/DTD/sodipodi-0.dtd"
   xmlns:inkscape="http://www.inkscape.org/namespaces/inkscape"
   width="88.173073mm"
   height="34.035191mm"
   viewBox="0 0 312.42427 120.59713"
   id="svg4379"
   version="1.1"
   inkscape:version="0.91 r13725"
   sodipodi:docname="YMBwords_yellow.svg">
  <defs
     id="defs4381">
    <circle
       style="fill:#ffcc00;fill-opacity:1"
       id="path3965-0"
       transform="matrix(0.87313433,0,0,0.87313433,82.634626,171.16652)"
       cx="-1672.8126"
       cy="-518.94434"
       r="135.36044" />
    <path
       sodipodi:type="inkscape:offset"
       inkscape:radius="37.747246"
       inkscape:original="M -1672.8125 -654.3125 C -1747.57 -654.3125 -1808.1875 -593.69501 -1808.1875 -518.9375 C -1808.1875 -444.17999 -1747.57 -383.59375 -1672.8125 -383.59375 C -1598.055 -383.59375 -1537.4375 -444.17999 -1537.4375 -518.9375 C -1537.4375 -593.69501 -1598.055 -654.3125 -1672.8125 -654.3125 z "
       style="fill:#000000;fill-opacity:1"
       id="path4039-9"
       d="m -1672.8125,-692.06055 c -95.1625,0 -173.123,77.96051 -173.123,173.12305 0,95.16254 77.971,173.0918 173.123,173.0918 95.152,0 173.123,-77.92926 173.123,-173.0918 0,-95.16254 -77.9605,-173.12305 -173.123,-173.12305 z"
       transform="matrix(-0.87313433,0,0,-0.87313433,-2838.5454,-735.06511)" />
    <circle
       style="fill:#ffcc00;fill-opacity:1"
       id="path3965-0-3"
       transform="matrix(0.87313433,0,0,0.87313433,82.634626,171.16652)"
       cx="-1672.8126"
       cy="-518.94434"
       r="135.36044" />
    <path
       sodipodi:type="inkscape:offset"
       inkscape:radius="37.747246"
       inkscape:original="M -1672.8125 -654.3125 C -1747.57 -654.3125 -1808.1875 -593.69501 -1808.1875 -518.9375 C -1808.1875 -444.17999 -1747.57 -383.59375 -1672.8125 -383.59375 C -1598.055 -383.59375 -1537.4375 -444.17999 -1537.4375 -518.9375 C -1537.4375 -593.69501 -1598.055 -654.3125 -1672.8125 -654.3125 z "
       style="fill:#000000;fill-opacity:1"
       id="path4039-9-8"
       d="m -1672.8125,-692.06055 c -95.1625,0 -173.123,77.96051 -173.123,173.12305 0,95.16254 77.971,173.0918 173.123,173.0918 95.152,0 173.123,-77.92926 173.123,-173.0918 0,-95.16254 -77.9605,-173.12305 -173.123,-173.12305 z"
       transform="matrix(-0.87313433,0,0,-0.87313433,-2838.5454,-735.06511)" />
    <path
       transform="matrix(-0.87313433,0,0,-0.87313433,-2838.5454,-735.06511)"
       d="m -1672.8125,-692.06055 c -95.1625,0 -173.123,77.96051 -173.123,173.12305 0,95.16254 77.971,173.0918 173.123,173.0918 95.152,0 173.123,-77.92926 173.123,-173.0918 0,-95.16254 -77.9605,-173.12305 -173.123,-173.12305 z"
       id="path4039-9-1"
       style="fill:#000000;fill-opacity:1"
       inkscape:original="M -1672.8125 -654.3125 C -1747.57 -654.3125 -1808.1875 -593.69501 -1808.1875 -518.9375 C -1808.1875 -444.17999 -1747.57 -383.59375 -1672.8125 -383.59375 C -1598.055 -383.59375 -1537.4375 -444.17999 -1537.4375 -518.9375 C -1537.4375 -593.69501 -1598.055 -654.3125 -1672.8125 -654.3125 z "
       inkscape:radius="37.747246"
       sodipodi:type="inkscape:offset" />
    <circle
       transform="matrix(0.87313433,0,0,0.87313433,82.634626,171.16652)"
       id="path3965-0-1"
       style="fill:#ffcc00;fill-opacity:1"
       cx="-1672.8126"
       cy="-518.94434"
       r="135.36044" />
    <path
       transform="matrix(-0.87313433,0,0,-0.87313433,-2838.5454,-735.06511)"
       d="m -1672.8125,-692.06055 c -95.1625,0 -173.123,77.96051 -173.123,173.12305 0,95.16254 77.971,173.0918 173.123,173.0918 95.152,0 173.123,-77.92926 173.123,-173.0918 0,-95.16254 -77.9605,-173.12305 -173.123,-173.12305 z"
       id="path4039-9-2"
       style="fill:#000000;fill-opacity:1"
       inkscape:original="M -1672.8125 -654.3125 C -1747.57 -654.3125 -1808.1875 -593.69501 -1808.1875 -518.9375 C -1808.1875 -444.17999 -1747.57 -383.59375 -1672.8125 -383.59375 C -1598.055 -383.59375 -1537.4375 -444.17999 -1537.4375 -518.9375 C -1537.4375 -593.69501 -1598.055 -654.3125 -1672.8125 -654.3125 z "
       inkscape:radius="37.747246"
       sodipodi:type="inkscape:offset" />
    <circle
       transform="matrix(0.87313433,0,0,0.87313433,82.634626,171.16652)"
       id="path3965-0-8"
       style="fill:#ffcc00;fill-opacity:1"
       cx="-1672.8126"
       cy="-518.94434"
       r="135.36044" />
    <circle
       style="fill:#ffcc00;fill-opacity:1"
       id="path3965-0-5"
       transform="matrix(0.87313433,0,0,0.87313433,82.634626,171.16652)"
       cx="-1672.8126"
       cy="-518.94434"
       r="135.36044" />
    <path
       sodipodi:type="inkscape:offset"
       inkscape:radius="37.747246"
       inkscape:original="M -1672.8125 -654.3125 C -1747.57 -654.3125 -1808.1875 -593.69501 -1808.1875 -518.9375 C -1808.1875 -444.17999 -1747.57 -383.59375 -1672.8125 -383.59375 C -1598.055 -383.59375 -1537.4375 -444.17999 -1537.4375 -518.9375 C -1537.4375 -593.69501 -1598.055 -654.3125 -1672.8125 -654.3125 z "
       style="fill:#000000;fill-opacity:1"
       id="path4039-9-20"
       d="m -1672.8125,-692.06055 c -95.1625,0 -173.123,77.96051 -173.123,173.12305 0,95.16254 77.971,173.0918 173.123,173.0918 95.152,0 173.123,-77.92926 173.123,-173.0918 0,-95.16254 -77.9605,-173.12305 -173.123,-173.12305 z"
       transform="matrix(-0.87313433,0,0,-0.87313433,-2838.5454,-735.06511)" />
    <circle
       style="fill:#ffcc00;fill-opacity:1"
       id="path3965-0-19"
       transform="matrix(0.87313433,0,0,0.87313433,82.634626,171.16652)"
       cx="-1672.8126"
       cy="-518.94434"
       r="135.36044" />
    <path
       sodipodi:type="inkscape:offset"
       inkscape:radius="37.747246"
       inkscape:original="M -1672.8125 -654.3125 C -1747.57 -654.3125 -1808.1875 -593.69501 -1808.1875 -518.9375 C -1808.1875 -444.17999 -1747.57 -383.59375 -1672.8125 -383.59375 C -1598.055 -383.59375 -1537.4375 -444.17999 -1537.4375 -518.9375 C -1537.4375 -593.69501 -1598.055 -654.3125 -1672.8125 -654.3125 z "
       style="fill:#000000;fill-opacity:1"
       id="path4039-9-26"
       d="m -1672.8125,-692.06055 c -95.1625,0 -173.123,77.96051 -173.123,173.12305 0,95.16254 77.971,173.0918 173.123,173.0918 95.152,0 173.123,-77.92926 173.123,-173.0918 0,-95.16254 -77.9605,-173.12305 -173.123,-173.12305 z"
       transform="matrix(-0.87313433,0,0,-0.87313433,-2838.5454,-735.06511)" />
    <circle
       style="fill:#ffcc00;fill-opacity:1"
       id="path3965-0-3-1"
       transform="matrix(0.87313433,0,0,0.87313433,82.634626,171.16652)"
       cx="-1672.8126"
       cy="-518.94434"
       r="135.36044" />
    <path
       sodipodi:type="inkscape:offset"
       inkscape:radius="37.747246"
       inkscape:original="M -1672.8125 -654.3125 C -1747.57 -654.3125 -1808.1875 -593.69501 -1808.1875 -518.9375 C -1808.1875 -444.17999 -1747.57 -383.59375 -1672.8125 -383.59375 C -1598.055 -383.59375 -1537.4375 -444.17999 -1537.4375 -518.9375 C -1537.4375 -593.69501 -1598.055 -654.3125 -1672.8125 -654.3125 z "
       style="fill:#000000;fill-opacity:1"
       id="path4039-9-8-1"
       d="m -1672.8125,-692.06055 c -95.1625,0 -173.123,77.96051 -173.123,173.12305 0,95.16254 77.971,173.0918 173.123,173.0918 95.152,0 173.123,-77.92926 173.123,-173.0918 0,-95.16254 -77.9605,-173.12305 -173.123,-173.12305 z"
       transform="matrix(-0.87313433,0,0,-0.87313433,-2838.5454,-735.06511)" />
    <path
       transform="matrix(-0.87313433,0,0,-0.87313433,-2838.5454,-735.06511)"
       d="m -1672.8125,-692.06055 c -95.1625,0 -173.123,77.96051 -173.123,173.12305 0,95.16254 77.971,173.0918 173.123,173.0918 95.152,0 173.123,-77.92926 173.123,-173.0918 0,-95.16254 -77.9605,-173.12305 -173.123,-173.12305 z"
       id="path4039-9-1-7"
       style="fill:#000000;fill-opacity:1"
       inkscape:original="M -1672.8125 -654.3125 C -1747.57 -654.3125 -1808.1875 -593.69501 -1808.1875 -518.9375 C -1808.1875 -444.17999 -1747.57 -383.59375 -1672.8125 -383.59375 C -1598.055 -383.59375 -1537.4375 -444.17999 -1537.4375 -518.9375 C -1537.4375 -593.69501 -1598.055 -654.3125 -1672.8125 -654.3125 z "
       inkscape:radius="37.747246"
       sodipodi:type="inkscape:offset" />
    <circle
       transform="matrix(0.87313433,0,0,0.87313433,82.634626,171.16652)"
       id="path3965-0-1-2"
       style="fill:#ffcc00;fill-opacity:1"
       cx="-1672.8126"
       cy="-518.94434"
       r="135.36044" />
    <path
       transform="matrix(-0.87313433,0,0,-0.87313433,-2838.5454,-735.06511)"
       d="m -1672.8125,-692.06055 c -95.1625,0 -173.123,77.96051 -173.123,173.12305 0,95.16254 77.971,173.0918 173.123,173.0918 95.152,0 173.123,-77.92926 173.123,-173.0918 0,-95.16254 -77.9605,-173.12305 -173.123,-173.12305 z"
       id="path4039-9-2-5"
       style="fill:#000000;fill-opacity:1"
       inkscape:original="M -1672.8125 -654.3125 C -1747.57 -654.3125 -1808.1875 -593.69501 -1808.1875 -518.9375 C -1808.1875 -444.17999 -1747.57 -383.59375 -1672.8125 -383.59375 C -1598.055 -383.59375 -1537.4375 -444.17999 -1537.4375 -518.9375 C -1537.4375 -593.69501 -1598.055 -654.3125 -1672.8125 -654.3125 z "
       inkscape:radius="37.747246"
       sodipodi:type="inkscape:offset" />
    <circle
       transform="matrix(0.87313433,0,0,0.87313433,82.634626,171.16652)"
       id="path3965-0-8-3"
       style="fill:#ffcc00;fill-opacity:1"
       cx="-1672.8126"
       cy="-518.94434"
       r="135.36044" />
    <circle
       style="fill:#ffcc00;fill-opacity:1"
       id="path3965-0-5-1"
       transform="matrix(0.87313433,0,0,0.87313433,82.634626,171.16652)"
       cx="-1672.8126"
       cy="-518.94434"
       r="135.36044" />
    <path
       sodipodi:type="inkscape:offset"
       inkscape:radius="37.747246"
       inkscape:original="M -1672.8125 -654.3125 C -1747.57 -654.3125 -1808.1875 -593.69501 -1808.1875 -518.9375 C -1808.1875 -444.17999 -1747.57 -383.59375 -1672.8125 -383.59375 C -1598.055 -383.59375 -1537.4375 -444.17999 -1537.4375 -518.9375 C -1537.4375 -593.69501 -1598.055 -654.3125 -1672.8125 -654.3125 z "
       style="fill:#000000;fill-opacity:1"
       id="path4039-9-20-4"
       d="m -1672.8125,-692.06055 c -95.1625,0 -173.123,77.96051 -173.123,173.12305 0,95.16254 77.971,173.0918 173.123,173.0918 95.152,0 173.123,-77.92926 173.123,-173.0918 0,-95.16254 -77.9605,-173.12305 -173.123,-173.12305 z"
       transform="matrix(-0.87313433,0,0,-0.87313433,-2838.5454,-735.06511)" />
  </defs>
  <sodipodi:namedview
     id="base"
     pagecolor="#ffffff"
     bordercolor="#666666"
     borderopacity="1.0"
     inkscape:pageopacity="0.0"
     inkscape:pageshadow="2"
     inkscape:zoom="1.4"
     inkscape:cx="122.55866"
     inkscape:cy="3.0151144"
     inkscape:document-units="px"
     inkscape:current-layer="layer1"
     showgrid="false"
     inkscape:window-width="1920"
     inkscape:window-height="1018"
     inkscape:window-x="1912"
     inkscape:window-y="-8"
     inkscape:window-maximized="1"
     fit-margin-top="0"
     fit-margin-left="0"
     fit-margin-right="0"
     fit-margin-bottom="0" />
  <metadata
     id="metadata4384">
    <rdf:RDF>
      <cc:Work
         rdf:about="">
        <dc:format>image/svg+xml</dc:format>
        <dc:type
           rdf:resource="http://purl.org/dc/dcmitype/StillImage" />
        <dc:title></dc:title>
      </cc:Work>
    </rdf:RDF>
  </metadata>
  <g
     inkscape:label="Layer 1"
     inkscape:groupmode="layer"
     id="layer1"
     transform="translate(427.6407,-432.06364)">
    <g
       id="g5190"
       transform="translate(-334.28571,17.142857)">
      <path
         sodipodi:nodetypes="scsccccccsssscsscscccsssscsssscsscsssccs"
         inkscape:connector-curvature="0"
         id="path3010-5"
         d="m 88.145881,441.78891 c -0.14948,0.0122 -0.314216,0.0531 -0.456828,0.0952 -0.237614,0.0703 -0.450736,0.1912 -0.647169,0.34261 -0.339086,0.26139 -0.492582,0.62254 -0.732828,0.9327 l -0.352132,0.49489 -0.51393,1.1611 -0.08568,0.57579 -0.06662,0.60435 c 0,0 0.0064,0.8581 0.05713,1.2753 0.04394,0.3659 0.102692,0.73228 0.209371,1.08496 0.121535,0.40171 0.312155,0.77477 0.475871,1.1611 0.164679,0.38865 0.308753,0.79233 0.513929,1.16109 0.290723,0.52254 0.621571,1.01045 1.008823,1.46566 0.162653,0.1912 0.370911,0.34038 0.551995,0.51393 0.243684,0.23358 0.452997,0.5023 0.723307,0.70428 0.196675,0.14685 0.430459,0.24659 0.647162,0.36166 0.208728,0.11079 0.410631,0.23133 0.628154,0.32357 0.27767,0.11789 0.560133,0.24924 0.856539,0.30456 0.329287,0.0614 1.008823,0.0182 1.008823,0.0182 0,0 0.880932,-0.002 1.313375,-0.0762 0.323538,-0.0553 0.640421,-0.16225 0.95172,-0.2665 0.307455,-0.10289 0.602243,-0.22139 0.894627,-0.36165 0.28896,-0.13854 0.598533,-0.26196 0.837503,-0.47585 0.563093,-0.50399 0.989986,-1.16288 1.351454,-1.82731 0.210818,-0.3875 0.360363,-0.80655 0.456835,-1.23724 0.06804,-0.30348 0.08993,-0.62195 0.07616,-0.93268 -0.01419,-0.30123 -0.05185,-0.61044 -0.152318,-0.89462 -0.167711,-0.47411 -0.402915,-0.9263 -0.723307,-1.31338 -0.192831,-0.23285 -0.459852,-0.39355 -0.704285,-0.57103 -0.196882,-0.143 -0.398279,-0.27852 -0.60909,-0.39973 -0.264896,-0.15232 -0.55223,-0.26889 -0.818488,-0.41875 -0.196468,-0.11059 -0.379171,-0.22416 -0.571024,-0.34262 -0.246487,-0.15211 -0.494715,-0.32564 -0.742351,-0.47587 -0.241944,-0.14685 -0.505927,-0.26319 -0.742343,-0.41875 -0.307997,-0.20263 -0.588612,-0.43459 -0.875583,-0.66621 -0.319993,-0.25823 -0.606557,-0.56809 -0.932685,-0.81846 -0.294994,-0.22649 -0.6067,-0.43044 -0.932684,-0.60911 -0.197488,-0.10816 -0.395461,-0.19587 -0.609111,-0.26648 -0.276015,-0.0911 -0.566652,-0.18938 -0.856539,-0.20939 -0.148268,-0.0101 -0.288355,-0.0121 -0.437792,0 z"
         style="fill:#ffcc00;fill-opacity:1;stroke:none;stroke-width:0.21668187px;stroke-linecap:butt;stroke-linejoin:miter;stroke-opacity:1" />
      <path
         inkscape:connector-curvature="0"
         id="path3012-5"
         d="m 99.096295,462.08247 -0.347738,-0.91056 -0.115858,-0.83307 0,-1.22055 0.173787,-0.54247 0.212516,-0.40684 0.425032,-0.48434 0.676186,-0.42623 0.52163,-0.32934 0.34774,-0.34873 0.32844,-0.34873 0.40571,-0.48434 0.21251,-0.42623 0.27048,-0.4262 0.25115,-0.50373 0.11586,-0.63933 0.0774,-0.8912 -0.17379,-0.67807 -0.1353,-0.96868 0.0387,-1.02681 0.27046,-1.1043 0.42503,-0.85243 0.5796,-0.73621 0.71482,-0.69746 0.92734,-0.61995 1.10122,-0.52308 1.27507,-0.38748 1.37169,-0.30999 1.46829,-0.44559 1.10122,-0.1357 1.66148,-0.0203 1.04326,0.2131 0.85006,0.34873 0.90801,0.60059 0.63755,0.54246 0.69549,0.96868 0.48301,0.79432 0.23181,0.71683 0.0387,0.2131 0.44435,0.48436 0.52163,0.44559 0.46366,0.27123 0.5796,0.32935 0.57957,0.34873 0.61823,0.25185 0.65687,0.0776 c 0,0 0.86938,-0.0776 0.96597,-0.0387 0.0966,0.0387 0.75347,0.0968 0.75347,0.0968 l 0.6955,0.32935 0.5989,0.60058 0.44435,0.58121 0.27049,0.42621 0.23182,0.52309 0.17378,0.69746 0.19324,0.91056 -0.0387,0.83307 -0.0387,0.87182 -0.0387,0.77493 -0.17379,0.40687 -0.25116,0.67807 -0.46368,0.77494 -0.77277,0.85245 -0.65687,0.67808 -0.96598,0.71683 -1.37169,0.61996 -1.04325,0.5037 -4.44349,1.62739 -1.00462,0.27124 -1.58419,0.44559 -2.41495,0.54247 -2.62746,0.52308 -2.00923,0.23249 -1.52624,0.0203 -0.88871,-0.1357 -0.85006,-0.21311 -0.86937,-0.42622 -0.46368,-0.2906 -0.71482,-0.42623 -0.77279,-0.73619 -0.734139,-1.06555 z"
         style="fill:#ffcc00;fill-opacity:1;stroke:none;stroke-width:0.21668185px;stroke-linecap:butt;stroke-linejoin:miter;stroke-opacity:1" />
      <path
         sodipodi:nodetypes="cccscccccccsscccsscsscccsccscscscssssssscccccscscccc"
         inkscape:connector-curvature="0"
         id="path3014-5"
         d="m 98.234136,425.1338 c -0.139552,0.0162 -0.285109,0.0703 -0.418748,0.11423 -0.228478,0.0751 -0.439432,0.16731 -0.666213,0.24746 -0.172774,0.061 -0.179864,0.0695 -0.358066,0.11262 -0.08224,0.0202 -0.23611,0.063 -0.352945,0.13793 -0.146441,0.0458 -0.165278,0.1112 -0.182089,0.0952 l -0.628111,0.39969 -0.590025,0.53929 -0.353758,0.28793 c -0.03502,0.0529 -0.201332,0.21948 -0.264126,0.29503 -0.145229,0.20134 -0.287904,0.44762 -0.411622,0.68286 -0.134288,0.25544 -0.272086,0.51294 -0.38069,0.78041 -0.127406,0.31399 -0.220861,0.62324 -0.304552,0.95172 -0.09257,0.36323 -0.159815,0.73242 -0.209378,1.104 -0.05649,0.42365 -0.06804,0.86776 -0.0952,1.29434 -0.02389,0.37431 -0.07555,0.74844 -0.05713,1.12303 0.02126,0.43057 0.09216,0.85562 0.190399,1.2753 0.08183,0.34997 0.183508,0.69702 0.323595,1.02786 0.154337,0.36435 0.436065,0.85316 0.551988,1.0469 0.115858,0.19384 0.678159,0.75703 1.046902,1.104 0.146641,0.13814 0.309594,0.26706 0.47585,0.3807 0.188166,0.12861 0.384441,0.22556 0.590067,0.32357 0.200933,0.0958 0.401516,0.18635 0.609111,0.26647 0.211032,0.0814 0.42914,0.16832 0.647169,0.22842 0.265459,0.0733 0.547651,0.10249 0.818481,0.15232 0.218671,0.0403 0.425339,0.099 0.647169,0.11424 0.327932,0.0223 0.667525,0.0267 0.98978,-0.0381 0.397586,-0.08 0.774186,-0.24768 1.142056,-0.41876 0.38191,-0.17763 0.7577,-0.38812 1.104,-0.62812 0.21436,-0.14847 0.40231,-0.31377 0.59007,-0.49492 0.26941,-0.25989 0.5594,-0.52205 0.76138,-0.8375 0.13247,-0.20692 0.21529,-0.44962 0.28552,-0.68525 0.0843,-0.2828 0.1424,-0.58059 0.15232,-0.87558 0.0121,-0.35708 -0.0403,-0.7164 -0.11424,-1.06592 -0.0658,-0.31169 -0.15596,-0.60374 -0.28552,-0.89462 -0.1037,-0.23257 -0.24751,-0.46226 -0.39971,-0.66621 -0.16933,-0.2268 -0.3849,-0.41507 -0.57102,-0.62813 -0.18089,-0.20711 -0.35007,-0.40721 -0.51394,-0.62813 -0.19931,-0.26874 -0.38614,-0.55859 -0.57104,-0.83752 -0.12356,-0.18635 -0.26875,-0.34841 -0.36166,-0.55199 -0.078,-0.17096 -0.11829,-0.36706 -0.15232,-0.55201 -0.0409,-0.22311 -0.0537,-0.45841 -0.0571,-0.68523 -0.004,-0.23283 0.0573,-0.45323 0.0381,-0.68525 -0.0162,-0.20451 -0.0895,-0.40858 -0.13328,-0.60911 -0.0267,-0.12254 -0.0417,-0.24111 -0.0761,-0.36165 -0.0567,-0.1983 -0.12437,-0.42927 -0.22842,-0.59007 -0.1669,-0.25799 -0.14807,-0.29289 -0.30455,-0.47585 0,0 -0.213512,-0.27666 -0.342615,-0.39973 -0.129837,-0.12376 -0.255195,-0.26958 -0.418755,-0.34262 -0.197281,-0.0881 -0.432442,-0.0907 -0.647162,-0.11423 -0.172981,-0.0182 -0.341198,-0.0401 -0.513936,-0.0182 z"
         style="fill:#ffcc00;fill-opacity:1;stroke:none;stroke-width:0.21668187px;stroke-linecap:butt;stroke-linejoin:miter;stroke-opacity:1" />
      <path
         sodipodi:nodetypes="cccccccccccccccccccccccccccccccccccccccccccccc"
         inkscape:connector-curvature="0"
         id="path3016-8"
         d="m 108.36787,422.45233 -0.54227,0.0302 -0.18837,0.0245 -0.62815,0.11424 -0.83751,0.19039 -0.57102,0.32358 -0.57104,0.39973 -0.26649,0.68525 0.0183,0.64717 0.0381,0.7233 0.0761,0.62813 0.26648,0.68525 0.38069,0.57103 0.38069,0.53297 0.15232,0.66619 0,0.70428 -0.0762,1.00882 -0.0762,0.95173 0.0381,1.21819 0.15232,0.89463 0.30455,0.7804 0.4949,0.53297 0.59006,0.53297 0.74235,0.30454 0.76136,0.15232 0.98981,0.0381 1.14205,-0.0952 1.35146,-0.34262 0.74235,-0.51393 0.76136,-0.7233 0.79945,-1.02787 0.59007,-1.12303 0.24745,-0.85655 0.0571,-1.18014 -0.11424,-0.68522 -0.22841,-0.81849 -0.30455,-0.91366 -0.47586,-0.78041 -0.47587,-0.7804 -0.91364,-1.08496 -0.66621,-0.70429 -0.95172,-0.66621 -1.23723,-0.7233 -0.33646,-0.12316 -0.61527,-0.1432 z"
         style="fill:#ffcc00;fill-opacity:1;stroke:none;stroke-width:0.21668187px;stroke-linecap:butt;stroke-linejoin:miter;stroke-opacity:1" />
      <path
         sodipodi:nodetypes="ccccccccccccccccccccccccccccccccccccccccccccccccccccscccccccccccccccc"
         inkscape:connector-curvature="0"
         id="path3018-4"
         d="m 124.48262,431.56744 c -0.082,0.0273 -0.47587,0.0571 -0.47587,0.0571 l -0.3807,0.0952 -0.47585,0.24745 -0.26647,0.20938 -0.2665,0.32357 -0.24744,0.2665 -0.30455,0.62813 -0.17136,0.49489 -0.11424,0.59007 -0.0952,0.43779 -0.11424,0.43779 -0.26649,0.47587 -0.28552,0.47585 -0.15232,0.51393 -0.19039,0.34262 -0.15232,0.39973 -0.17136,0.26648 -0.15231,0.36165 -0.1904,0.34263 -0.17136,0.32358 -0.17135,0.28551 -0.1904,0.47587 -0.17136,0.24744 -0.13327,0.32359 -0.0952,0.30456 0.0381,0.45681 0,0.89462 -0.0183,0.41879 0.1904,0.41876 c 0,0 0.17663,0.40204 0.1904,0.45683 0.0142,0.0547 0.26649,0.38069 0.26649,0.38069 l 0.41876,0.36165 0.51393,0.39972 0.53296,0.30455 0.47586,0.20938 0.83752,0.36165 0.39972,0.17136 0.81848,0.0571 0.81849,-0.0381 0.41874,-0.0952 0.53298,-0.1904 0.79944,-0.26647 0.76137,-0.34262 0.57103,-0.43779 0.55201,-0.51393 0.57103,-0.64717 0.26647,-0.43779 0.22841,-0.45683 0.22843,-0.72331 0.15231,-0.49489 0.0952,-0.68525 c 0,0 0.0571,-1.12532 0.0571,-1.18013 0,-0.0547 -0.0762,-0.98979 -0.0762,-0.98979 l -0.0761,-0.98978 -0.20938,-0.95172 -0.20938,-0.62815 -0.1904,-0.45683 -0.28551,-0.57103 -0.57103,-0.74235 -0.28553,-0.30453 -0.20494,-0.21381 -0.28996,-0.24302 -0.93268,-0.62813 -0.49353,-0.28533 -0.33243,-0.13875 -0.259,-0.0707 -0.53297,-0.0571 c 0,0 -0.27968,-0.0654 -0.36165,-0.0381 z"
         style="fill:#ffcc00;fill-opacity:1;stroke:none;stroke-width:0.21668187px;stroke-linecap:butt;stroke-linejoin:miter;stroke-opacity:1" />
      <g
         transform="matrix(0.71323614,0,0,0.71323614,250.33635,446.36363)"
         id="text3823"
         style="font-style:normal;font-variant:normal;font-weight:bold;font-stretch:semi-expanded;font-size:105.40497589px;line-height:125%;font-family:Magneto;-inkscape-font-specification:'Magneto Bold Semi-Expanded';letter-spacing:0px;word-spacing:0px;fill:#ffcc00;fill-opacity:1;stroke:none;stroke-width:1px;stroke-linecap:butt;stroke-linejoin:miter;stroke-opacity:1">
        <path
           inkscape:connector-curvature="0"
           id="path3432"
           style="font-style:normal;font-variant:normal;font-weight:bold;font-stretch:semi-expanded;font-size:105.40497589px;font-family:Magneto;-inkscape-font-specification:'Magneto Bold Semi-Expanded';fill:#ffcc00;fill-opacity:1"
           d="m -387.74231,-44.084768 -21.82212,62.635671 q -1.59549,4.52912 -5.507,7.153951 -3.91151,2.624831 -8.69797,2.624831 l -39.83567,0 q 1.23521,-4.632054 4.78646,-7.256885 3.55124,-2.676299 8.38916,-2.676299 l 22.23386,0 10.8596,-30.520093 -15.49165,16.4180605 q -4.78646,5.0437928 -12.76388,5.0437928 -4.63206,0 -7.82303,-2.0586909 -3.65418,-2.3674946 -3.65418,-6.79368009 0,-2.11015821 0.72055,-4.22031641 l 10.85959,-30.4171589 -9.26411,0 q 0.20587,1.441084 0.20587,2.418962 0,5.09526 -4.01445,8.697969 -3.96298,3.60271 -9.62438,3.60271 -5.6614,0 -9.67584,-3.60271 -4.01445,-3.602709 -4.01445,-8.697969 0,-5.352596 4.22031,-8.955305 4.01445,-3.39684 9.36705,-3.39684 l 33.45373,0 q 3.55124,0 5.76433,2.110158 2.21309,2.058691 2.21309,5.609933 0,2.007223 -0.72054,4.065914 l -10.96253,30.7774296 30.26276,-38.7548566 q 1.18375,-1.544018 3.80858,-2.676298 2.62483,-1.13228 4.63205,-1.13228 l 12.09481,0 z" />
      </g>
      <g
         transform="matrix(0.71323614,0,0,0.71323614,250.33635,446.36363)"
         id="text3829"
         style="font-style:normal;font-variant:normal;font-weight:bold;font-stretch:semi-expanded;font-size:105.40497589px;line-height:125%;font-family:Magneto;-inkscape-font-specification:'Magneto Bold Semi-Expanded';letter-spacing:0px;word-spacing:0px;fill:#ffcc00;fill-opacity:1;stroke:none;stroke-width:1px;stroke-linecap:butt;stroke-linejoin:miter;stroke-opacity:1">
        <path
           inkscape:connector-curvature="0"
           id="path3435"
           d="m -333.06433,20.094921 q -1.08082,3.962981 -4.94086,6.227541 -3.44831,2.007223 -7.8745,2.007223 l -28.66727,0 q -25.01309,0 -25.01309,-15.079911 0,-9.6758473 8.54357,-15.1828455 7.35982,-4.7349892 17.49887,-4.7349892 l 7.46275,0 q 6.53635,0 11.4772,2.0072237 6.58782,2.6762982 6.89662,8.1318292 0.25734,5.5069982 -5.30113,9.1611748 l -17.03567,0 5.55847,-11.0654639 -10.8596,0 -4.22031,12.4036129 q -0.36027,1.080813 -0.36027,1.955756 0,4.168849 6.69074,4.168849 l 40.14448,0 z"
           style="fill:#ffcc00;fill-opacity:1" />
      </g>
      <g
         transform="matrix(0.71323614,0,0,0.71323614,250.33635,446.36363)"
         id="text3833"
         style="font-style:normal;font-variant:normal;font-weight:bold;font-stretch:semi-expanded;font-size:105.40497589px;line-height:125%;font-family:Magneto;-inkscape-font-specification:'Magneto Bold Semi-Expanded';letter-spacing:0px;word-spacing:0px;fill:#ffcc00;fill-opacity:1;stroke:none;stroke-width:1px;stroke-linecap:butt;stroke-linejoin:miter;stroke-opacity:1">
        <path
           inkscape:connector-curvature="0"
           id="path3438"
           d="m -285.5678,20.094921 q -1.28669,4.529121 -5.91874,6.690746 -3.24244,1.544018 -6.94808,1.544018 l -19.8149,0 q -7.61716,0 -7.61716,-5.198194 0,-1.33815 0.56614,-3.03657 l 19.09436,-53.834767 18.21941,0 -19.19729,53.834767 21.61626,0 z"
           style="fill:#ffcc00;fill-opacity:1" />
      </g>
      <g
         transform="matrix(0.71323614,0,0,0.71323614,250.33635,446.36363)"
         id="text3837"
         style="font-style:normal;font-variant:normal;font-weight:bold;font-stretch:semi-expanded;font-size:105.40497589px;line-height:125%;font-family:Magneto;-inkscape-font-specification:'Magneto Bold Semi-Expanded';letter-spacing:0px;word-spacing:0px;fill:#ffcc00;fill-opacity:1;stroke:none;stroke-width:1px;stroke-linecap:butt;stroke-linejoin:miter;stroke-opacity:1">
        <path
           inkscape:connector-curvature="0"
           id="path3441"
           d="m -237.90765,20.094921 q -1.28668,4.529121 -5.91873,6.690746 -3.24244,1.544018 -6.94809,1.544018 l -19.8149,0 q -7.61715,0 -7.61715,-5.198194 0,-1.33815 0.56614,-3.03657 l 19.09436,-53.834767 18.21941,0 -19.19729,53.834767 21.61625,0 z"
           style="fill:#ffcc00;fill-opacity:1" />
      </g>
      <g
         transform="matrix(0.71323614,0,0,0.71323614,250.33635,446.36363)"
         id="text3841"
         style="font-style:normal;font-variant:normal;font-weight:bold;font-stretch:semi-expanded;font-size:105.40497589px;line-height:125%;font-family:Magneto;-inkscape-font-specification:'Magneto Bold Semi-Expanded';letter-spacing:0px;word-spacing:0px;fill:#ffcc00;fill-opacity:1;stroke:none;stroke-width:1px;stroke-linecap:butt;stroke-linejoin:miter;stroke-opacity:1">
        <path
           inkscape:connector-curvature="0"
           id="path3444"
           d="m -80.253563,-6.6680607 -9.315576,26.7629817 q -3.808578,8.234764 -12.815351,8.234764 l -26.04244,0 q -6.84515,0 -7.61716,-4.52912 -3.75711,4.52912 -10.85959,4.52912 l -9.16118,0 q -7.61715,0 -7.61715,-5.404063 0,-1.286682 0.56614,-2.830701 l 9.36704,-26.7629817 18.68262,0 -9.62438,26.7629817 8.95531,0 9.62438,-26.7629817 18.42528,0 -9.36704,26.7629817 8.74943,0 9.572916,-26.7629817 18.476751,0 z"
           style="fill:#ffcc00;fill-opacity:1" />
      </g>
      <g
         transform="matrix(0.71323614,0,0,0.71323614,250.33635,446.36363)"
         id="text3845"
         style="font-style:normal;font-variant:normal;font-weight:bold;font-stretch:semi-expanded;font-size:105.40497589px;line-height:125%;font-family:Magneto;-inkscape-font-specification:'Magneto Bold Semi-Expanded';letter-spacing:0px;word-spacing:0px;fill:#ffcc00;fill-opacity:1;stroke:none;stroke-width:1px;stroke-linecap:butt;stroke-linejoin:miter;stroke-opacity:1">
        <path
           inkscape:connector-curvature="0"
           id="path3447"
           d="m -221.32129,115.99289 q -2.16163,8.23476 -14.30791,8.23476 l -18.47675,0 q -8.6465,0 -8.6465,-4.99232 0,-1.74989 1.08081,-4.58059 l 8.54357,-22.233861 -25.52777,27.998201 q -4.11738,4.58058 -9.00677,4.58058 -0.92641,0 -1.95576,-0.1544 -5.86727,-0.66907 -5.86727,-5.86727 0,-2.00722 0.92642,-4.32325 l 12.66094,-32.681718 -31.7553,38.343118 q -3.19097,3.91151 -9.36705,3.91151 l -10.44785,0 20.79278,-59.444697 -28.56434,0 7.77156,-12.969753 34.38014,0 q 7.10248,0 7.10248,5.198194 0,2.007224 -0.97788,4.837924 l -11.06546,31.90971 22.13092,-25.064562 q 4.22032,-4.837924 6.48488,-6.279008 3.75711,-2.367494 9.72732,-2.367494 1.69842,0 3.55124,1.183747 2.8307,1.852822 2.8307,5.506998 0,2.26456 -1.13228,5.09526 l -9.98465,25.939506 19.8149,-19.917835 q 4.22031,-4.220316 5.60993,-5.09526 2.41896,-1.389616 6.94808,-1.338149 1.80136,0 3.80858,1.338149 3.08804,2.007224 3.08804,5.867269 0,2.213093 -1.02935,4.889391 l -12.30068,32.47585 23.16028,0 z"
           style="fill:#ffcc00;fill-opacity:1" />
      </g>
      <g
         transform="matrix(0.71323614,0,0,0.71323614,250.33635,446.36363)"
         id="text3849"
         style="font-style:normal;font-variant:normal;font-weight:bold;font-stretch:semi-expanded;font-size:105.40497589px;line-height:125%;font-family:Magneto;-inkscape-font-specification:'Magneto Bold Semi-Expanded';letter-spacing:0px;word-spacing:0px;fill:#ffcc00;fill-opacity:1;stroke:none;stroke-width:1px;stroke-linecap:butt;stroke-linejoin:miter;stroke-opacity:1">
        <path
           inkscape:connector-curvature="0"
           id="path3450"
           d="m -148.85974,116.76491 q -1.08082,4.27178 -4.73499,6.48487 -2.88217,1.74989 -6.12461,1.74989 l -21.51332,0 q -7.56569,0 -7.56569,-4.83792 -4.01444,4.83792 -10.85959,4.83792 l -9.05824,0 q -4.16885,0 -6.48488,-2.16162 -2.16162,-2.00723 -2.16162,-5.30113 0,-1.85282 0.72054,-3.80858 l 8.6465,-23.726414 18.68262,0 -9.62438,26.762984 10.44786,0 9.57291,-26.762984 18.47675,0 -9.36704,26.762984 20.94718,0 z"
           style="fill:#ffcc00;fill-opacity:1" />
      </g>
      <g
         transform="matrix(0.71323614,0,0,0.71323614,250.33635,446.36363)"
         id="text3853"
         style="font-style:normal;font-variant:normal;font-weight:bold;font-stretch:semi-expanded;font-size:105.40497589px;line-height:125%;font-family:Magneto;-inkscape-font-specification:'Magneto Bold Semi-Expanded';letter-spacing:0px;word-spacing:0px;fill:#ffcc00;fill-opacity:1;stroke:none;stroke-width:1px;stroke-linecap:butt;stroke-linejoin:miter;stroke-opacity:1">
        <path
           inkscape:connector-curvature="0"
           id="path3453"
           d="m -43.838322,116.76491 q -2.418961,8.23476 -12.866818,8.23476 l -26.248309,0 q -7.617157,0 -7.617157,-5.35259 0,-1.33815 0.56614,-2.88217 l 6.536344,-18.52822 -8.440633,0 3.242438,-8.234764 q 9.006773,-2.316027 13.381491,-5.918736 4.940859,-4.065915 10.550791,-14.719641 l 10.036119,0 -7.256886,20.638377 13.278557,0 q -3.190971,8.234764 -12.969753,8.234764 l -3.39684,0 -6.433409,18.52822 27.637925,0 z"
           style="fill:#ffcc00;fill-opacity:1" />
      </g>
      <g
         transform="matrix(0.71323614,0,0,0.71323614,250.33635,446.36363)"
         id="text3857"
         style="font-style:normal;font-variant:normal;font-weight:bold;font-stretch:semi-expanded;font-size:105.40497589px;line-height:125%;font-family:Magneto;-inkscape-font-specification:'Magneto Bold Semi-Expanded';letter-spacing:0px;word-spacing:0px;fill:#ffcc00;fill-opacity:1;stroke:none;stroke-width:1px;stroke-linecap:butt;stroke-linejoin:miter;stroke-opacity:1">
        <path
           inkscape:connector-curvature="0"
           id="path3456"
           d="m -96.434071,116.76491 q -2.418961,8.23476 -12.866819,8.23476 l -26.24831,0 q -7.61715,0 -7.61715,-5.35259 0,-1.33815 0.56614,-2.88217 l 6.53634,-18.52822 -8.44063,0 3.24243,-8.234764 q 9.00678,-2.316027 13.3815,-5.918736 4.94085,-4.065915 10.55079,-14.719641 l 10.03611,0 -7.25688,20.638377 13.27856,0 q -3.19098,8.234764 -12.96976,8.234764 l -3.39684,0 -6.43341,18.52822 27.637929,0 z"
           style="fill:#ffcc00;fill-opacity:1" />
      </g>
    </g>
  </g>
</svg>
