<?xml version="1.0" encoding="UTF-8" standalone="no"?>
<!-- Created with Inkscape (http://www.inkscape.org/) -->

<svg
   xmlns:dc="http://purl.org/dc/elements/1.1/"
   xmlns:cc="http://creativecommons.org/ns#"
   xmlns:rdf="http://www.w3.org/1999/02/22-rdf-syntax-ns#"
   xmlns:svg="http://www.w3.org/2000/svg"
   xmlns="http://www.w3.org/2000/svg"
   xmlns:sodipodi="http://sodipodi.sourceforge.net/DTD/sodipodi-0.dtd"
   xmlns:inkscape="http://www.inkscape.org/namespaces/inkscape"
   width="12.559676mm"
   height="12.420194mm"
   viewBox="0 0 44.50279 44.00856"
   id="svg4884"
   version="1.1"
   inkscape:version="0.91 r13725"
   sodipodi:docname="YellowPaw.svg">
  <defs
     id="defs4886" />
  <sodipodi:namedview
     id="base"
     pagecolor="#ffffff"
     bordercolor="#666666"
     borderopacity="1.0"
     inkscape:pageopacity="0.0"
     inkscape:pageshadow="2"
     inkscape:zoom="2.8"
     inkscape:cx="-8.0394437"
     inkscape:cy="-49.256187"
     inkscape:document-units="px"
     inkscape:current-layer="layer1"
     showgrid="false"
     fit-margin-top="0"
     fit-margin-left="0"
     fit-margin-right="0"
     fit-margin-bottom="0"
     inkscape:window-width="1920"
     inkscape:window-height="1018"
     inkscape:window-x="1912"
     inkscape:window-y="-8"
     inkscape:window-maximized="1" />
  <metadata
     id="metadata4889">
    <rdf:RDF>
      <cc:Work
         rdf:about="">
        <dc:format>image/svg+xml</dc:format>
        <dc:type
           rdf:resource="http://purl.org/dc/dcmitype/StillImage" />
        <dc:title></dc:title>
      </cc:Work>
    </rdf:RDF>
  </metadata>
  <g
     inkscape:label="Layer 1"
     inkscape:groupmode="layer"
     id="layer1"
     transform="translate(-46.32003,-218.92935)">
    <g
       transform="translate(-606.42858,-157.14286)"
       style="fill:#000000"
       id="g4863">
      <path
         style="fill:#ffcc00;fill-opacity:1;stroke:none;stroke-width:0.21668187px;stroke-linecap:butt;stroke-linejoin:miter;stroke-opacity:1"
         d="m 655.6038,395.40879 c -0.14948,0.0122 -0.31422,0.0531 -0.45683,0.0952 -0.23761,0.0703 -0.45074,0.1912 -0.64717,0.34261 -0.33909,0.26139 -0.49258,0.62254 -0.73283,0.9327 l -0.35213,0.49489 -0.51393,1.1611 -0.0857,0.57579 -0.0666,0.60435 c 0,0 0.006,0.8581 0.0571,1.2753 0.0439,0.3659 0.10269,0.73228 0.20937,1.08496 0.12154,0.40171 0.31216,0.77477 0.47587,1.1611 0.16468,0.38865 0.30876,0.79233 0.51393,1.16109 0.29072,0.52254 0.62157,1.01045 1.00882,1.46566 0.16266,0.1912 0.37092,0.34038 0.552,0.51393 0.24368,0.23358 0.453,0.5023 0.72331,0.70428 0.19667,0.14685 0.43046,0.24659 0.64716,0.36166 0.20873,0.11079 0.41063,0.23133 0.62815,0.32357 0.27767,0.11789 0.56014,0.24924 0.85654,0.30456 0.32929,0.0614 1.00882,0.0182 1.00882,0.0182 0,0 0.88094,-0.002 1.31338,-0.0762 0.32354,-0.0553 0.64042,-0.16225 0.95172,-0.2665 0.30745,-0.10289 0.60224,-0.22139 0.89463,-0.36165 0.28896,-0.13854 0.59853,-0.26196 0.8375,-0.47585 0.56309,-0.50399 0.98999,-1.16288 1.35145,-1.82731 0.21082,-0.3875 0.36037,-0.80655 0.45684,-1.23724 0.068,-0.30348 0.0899,-0.62195 0.0762,-0.93268 -0.0142,-0.30123 -0.0519,-0.61044 -0.15232,-0.89462 -0.16771,-0.47411 -0.40291,-0.9263 -0.72331,-1.31338 -0.19283,-0.23285 -0.45985,-0.39355 -0.70428,-0.57103 -0.19688,-0.143 -0.39828,-0.27852 -0.60909,-0.39973 -0.2649,-0.15232 -0.55223,-0.26889 -0.81849,-0.41875 -0.19647,-0.11059 -0.37917,-0.22416 -0.57102,-0.34262 -0.24649,-0.15211 -0.49472,-0.32564 -0.74235,-0.47587 -0.24195,-0.14685 -0.50593,-0.26319 -0.74235,-0.41875 -0.30799,-0.20263 -0.58861,-0.43459 -0.87558,-0.66621 -0.31999,-0.25823 -0.60656,-0.56809 -0.93269,-0.81846 -0.29499,-0.22649 -0.6067,-0.43044 -0.93268,-0.60911 -0.19749,-0.10816 -0.39546,-0.19587 -0.60911,-0.26648 -0.27602,-0.0911 -0.56665,-0.18938 -0.85654,-0.20939 -0.14827,-0.0101 -0.28835,-0.0121 -0.43779,0 z"
         id="path3010-5-1"
         inkscape:connector-curvature="0"
         sodipodi:nodetypes="scsccccccsssscsscscccsssscsssscsscsssccs" />
      <path
         style="fill:#ffcc00;fill-opacity:1;stroke:none;stroke-width:0.21668185px;stroke-linecap:butt;stroke-linejoin:miter;stroke-opacity:1"
         d="m 666.55421,415.70235 -0.34774,-0.91056 -0.11586,-0.83307 0,-1.22055 0.17379,-0.54247 0.21252,-0.40684 0.42503,-0.48434 0.67619,-0.42623 0.52163,-0.32934 0.34774,-0.34873 0.32844,-0.34873 0.40571,-0.48434 0.21251,-0.42623 0.27048,-0.4262 0.25115,-0.50373 0.11586,-0.63933 0.0774,-0.8912 -0.17379,-0.67807 -0.1353,-0.96868 0.0387,-1.02681 0.27046,-1.1043 0.42503,-0.85243 0.5796,-0.73621 0.71482,-0.69746 0.92734,-0.61995 1.10122,-0.52308 1.27507,-0.38748 1.37169,-0.30999 1.46829,-0.44559 1.10122,-0.1357 1.66148,-0.0203 1.04326,0.2131 0.85006,0.34873 0.90801,0.60059 0.63755,0.54246 0.69549,0.96868 0.48301,0.79432 0.23181,0.71683 0.0387,0.2131 0.44435,0.48436 0.52163,0.44559 0.46366,0.27123 0.5796,0.32935 0.57957,0.34873 0.61823,0.25185 0.65687,0.0776 c 0,0 0.86938,-0.0776 0.96597,-0.0387 0.0966,0.0387 0.75347,0.0968 0.75347,0.0968 l 0.6955,0.32935 0.5989,0.60058 0.44435,0.58121 0.27049,0.42621 0.23182,0.52309 0.17378,0.69746 0.19324,0.91056 -0.0387,0.83307 -0.0387,0.87182 -0.0387,0.77493 -0.17379,0.40687 -0.25116,0.67807 -0.46368,0.77494 -0.77277,0.85245 -0.65687,0.67808 -0.96598,0.71683 -1.37169,0.61996 -1.04325,0.5037 -4.44349,1.62739 -1.00462,0.27124 -1.58419,0.44559 -2.41495,0.54247 -2.62746,0.52308 -2.00923,0.23249 -1.52624,0.0203 -0.88871,-0.1357 -0.85006,-0.21311 -0.86937,-0.42622 -0.46368,-0.2906 -0.71482,-0.42623 -0.77279,-0.73619 -0.73414,-1.06555 z"
         id="path3012-5-3"
         inkscape:connector-curvature="0" />
      <path
         style="fill:#ffcc00;fill-opacity:1;stroke:none;stroke-width:0.21668187px;stroke-linecap:butt;stroke-linejoin:miter;stroke-opacity:1"
         d="m 665.69205,378.75368 c -0.13955,0.0162 -0.28511,0.0703 -0.41875,0.11423 -0.22847,0.0751 -0.43943,0.16731 -0.66621,0.24746 -0.17277,0.061 -0.17986,0.0695 -0.35807,0.11262 -0.0822,0.0202 -0.23611,0.063 -0.35294,0.13793 -0.14644,0.0458 -0.16528,0.1112 -0.18209,0.0952 l -0.62811,0.39969 -0.59002,0.53929 -0.35376,0.28793 c -0.035,0.0529 -0.20133,0.21948 -0.26413,0.29503 -0.14523,0.20134 -0.2879,0.44762 -0.41162,0.68286 -0.13429,0.25544 -0.27209,0.51294 -0.38069,0.78041 -0.12741,0.31399 -0.22086,0.62324 -0.30455,0.95172 -0.0926,0.36323 -0.15982,0.73242 -0.20938,1.104 -0.0565,0.42365 -0.068,0.86776 -0.0952,1.29434 -0.0239,0.37431 -0.0755,0.74844 -0.0571,1.12303 0.0213,0.43057 0.0922,0.85562 0.1904,1.2753 0.0818,0.34997 0.18351,0.69702 0.32359,1.02786 0.15434,0.36435 0.43607,0.85316 0.55199,1.0469 0.11586,0.19384 0.67816,0.75703 1.0469,1.104 0.14664,0.13814 0.3096,0.26706 0.47585,0.3807 0.18817,0.12861 0.38444,0.22556 0.59007,0.32357 0.20093,0.0958 0.40152,0.18635 0.60911,0.26647 0.21103,0.0814 0.42914,0.16832 0.64717,0.22842 0.26546,0.0733 0.54765,0.10249 0.81848,0.15232 0.21867,0.0403 0.42534,0.099 0.64717,0.11424 0.32793,0.0223 0.66752,0.0267 0.98978,-0.0381 0.39759,-0.08 0.77419,-0.24768 1.14206,-0.41876 0.38191,-0.17763 0.7577,-0.38812 1.104,-0.62812 0.21436,-0.14847 0.40231,-0.31377 0.59007,-0.49492 0.26941,-0.25989 0.5594,-0.52205 0.76138,-0.8375 0.13247,-0.20692 0.21529,-0.44962 0.28552,-0.68525 0.0843,-0.2828 0.1424,-0.58059 0.15232,-0.87558 0.0121,-0.35708 -0.0403,-0.7164 -0.11424,-1.06592 -0.0658,-0.31169 -0.15596,-0.60374 -0.28552,-0.89462 -0.1037,-0.23257 -0.24751,-0.46226 -0.39971,-0.66621 -0.16933,-0.2268 -0.3849,-0.41507 -0.57102,-0.62813 -0.18089,-0.20711 -0.35007,-0.40721 -0.51394,-0.62813 -0.19931,-0.26874 -0.38614,-0.55859 -0.57104,-0.83752 -0.12356,-0.18635 -0.26875,-0.34841 -0.36166,-0.55199 -0.078,-0.17096 -0.11829,-0.36706 -0.15232,-0.55201 -0.0409,-0.22311 -0.0537,-0.45841 -0.0571,-0.68523 -0.004,-0.23283 0.0573,-0.45323 0.0381,-0.68525 -0.0162,-0.20451 -0.0895,-0.40858 -0.13328,-0.60911 -0.0267,-0.12254 -0.0417,-0.24111 -0.0761,-0.36165 -0.0567,-0.1983 -0.12437,-0.42927 -0.22842,-0.59007 -0.1669,-0.25799 -0.14807,-0.29289 -0.30455,-0.47585 0,0 -0.21352,-0.27666 -0.34262,-0.39973 -0.12984,-0.12376 -0.25519,-0.26958 -0.41875,-0.34262 -0.19728,-0.0881 -0.43245,-0.0907 -0.64717,-0.11423 -0.17298,-0.0182 -0.34119,-0.0401 -0.51393,-0.0182 z"
         id="path3014-5-8"
         inkscape:connector-curvature="0"
         sodipodi:nodetypes="cccscccccccsscccsscsscccsccscscscssssssscccccscscccc" />
      <path
         style="fill:#ffcc00;fill-opacity:1;stroke:none;stroke-width:0.21668187px;stroke-linecap:butt;stroke-linejoin:miter;stroke-opacity:1"
         d="m 675.82579,376.07221 -0.54227,0.0302 -0.18837,0.0245 -0.62815,0.11424 -0.83751,0.19039 -0.57102,0.32358 -0.57104,0.39973 -0.26649,0.68525 0.0183,0.64717 0.0381,0.7233 0.0761,0.62813 0.26648,0.68525 0.38069,0.57103 0.38069,0.53297 0.15232,0.66619 0,0.70428 -0.0762,1.00882 -0.0762,0.95173 0.0381,1.21819 0.15232,0.89463 0.30455,0.7804 0.4949,0.53297 0.59006,0.53297 0.74235,0.30454 0.76136,0.15232 0.98981,0.0381 1.14205,-0.0952 1.35146,-0.34262 0.74235,-0.51393 0.76136,-0.7233 0.79945,-1.02787 0.59007,-1.12303 0.24745,-0.85655 0.0571,-1.18014 -0.11424,-0.68522 -0.22841,-0.81849 -0.30455,-0.91366 -0.47586,-0.78041 -0.47587,-0.7804 -0.91364,-1.08496 -0.66621,-0.70429 -0.95172,-0.66621 -1.23723,-0.7233 -0.33646,-0.12316 -0.61527,-0.1432 z"
         id="path3016-8-5"
         inkscape:connector-curvature="0"
         sodipodi:nodetypes="cccccccccccccccccccccccccccccccccccccccccccccc" />
      <path
         style="fill:#ffcc00;fill-opacity:1;stroke:none;stroke-width:0.21668187px;stroke-linecap:butt;stroke-linejoin:miter;stroke-opacity:1"
         d="m 691.94054,385.18732 c -0.082,0.0273 -0.47587,0.0571 -0.47587,0.0571 l -0.3807,0.0952 -0.47585,0.24745 -0.26647,0.20938 -0.2665,0.32357 -0.24744,0.2665 -0.30455,0.62813 -0.17136,0.49489 -0.11424,0.59007 -0.0952,0.43779 -0.11424,0.43779 -0.26649,0.47587 -0.28552,0.47585 -0.15232,0.51393 -0.19039,0.34262 -0.15232,0.39973 -0.17136,0.26648 -0.15231,0.36165 -0.1904,0.34263 -0.17136,0.32358 -0.17135,0.28551 -0.1904,0.47587 -0.17136,0.24744 -0.13327,0.32359 -0.0952,0.30456 0.0381,0.45681 0,0.89462 -0.0183,0.41879 0.1904,0.41876 c 0,0 0.17663,0.40204 0.1904,0.45683 0.0142,0.0547 0.26649,0.38069 0.26649,0.38069 l 0.41876,0.36165 0.51393,0.39972 0.53296,0.30455 0.47586,0.20938 0.83752,0.36165 0.39972,0.17136 0.81848,0.0571 0.81849,-0.0381 0.41874,-0.0952 0.53298,-0.1904 0.79944,-0.26647 0.76137,-0.34262 0.57103,-0.43779 0.55201,-0.51393 0.57103,-0.64717 0.26647,-0.43779 0.22841,-0.45683 0.22843,-0.72331 0.15231,-0.49489 0.0952,-0.68525 c 0,0 0.0571,-1.12532 0.0571,-1.18013 0,-0.0547 -0.0762,-0.98979 -0.0762,-0.98979 l -0.0761,-0.98978 -0.20938,-0.95172 -0.20938,-0.62815 -0.1904,-0.45683 -0.28551,-0.57103 -0.57103,-0.74235 -0.28553,-0.30453 -0.20494,-0.21381 -0.28996,-0.24302 -0.93268,-0.62813 -0.49353,-0.28533 -0.33243,-0.13875 -0.259,-0.0707 -0.53297,-0.0571 c 0,0 -0.27968,-0.0654 -0.36165,-0.0381 z"
         id="path3018-4-2"
         inkscape:connector-curvature="0"
         sodipodi:nodetypes="ccccccccccccccccccccccccccccccccccccccccccccccccccccscccccccccccccccc" />
    </g>
  </g>
</svg>
