<?xml version="1.0" encoding="UTF-8" standalone="no"?>
<!-- Created with Inkscape (http://www.inkscape.org/) -->

<svg
   xmlns:dc="http://purl.org/dc/elements/1.1/"
   xmlns:cc="http://creativecommons.org/ns#"
   xmlns:rdf="http://www.w3.org/1999/02/22-rdf-syntax-ns#"
   xmlns:svg="http://www.w3.org/2000/svg"
   xmlns="http://www.w3.org/2000/svg"
   xmlns:sodipodi="http://sodipodi.sourceforge.net/DTD/sodipodi-0.dtd"
   xmlns:inkscape="http://www.inkscape.org/namespaces/inkscape"
   width="153.39999mm"
   height="102.6mm"
   viewBox="0 0 543.54329 363.5433"
   id="svg2"
   version="1.1"
   inkscape:version="0.91 r13725"
   sodipodi:docname="sticker_CircleLogoWithBlackTextandYellowPaw.svg">
  <defs
     id="defs4">
    <circle
       style="fill:#ffcc00;fill-opacity:1"
       id="path3965-0"
       transform="matrix(0.87313433,0,0,0.87313433,82.634626,171.16652)"
       cx="-1672.8126"
       cy="-518.94434"
       r="135.36044" />
    <path
       sodipodi:type="inkscape:offset"
       inkscape:radius="37.747246"
       inkscape:original="M -1672.8125 -654.3125 C -1747.57 -654.3125 -1808.1875 -593.69501 -1808.1875 -518.9375 C -1808.1875 -444.17999 -1747.57 -383.59375 -1672.8125 -383.59375 C -1598.055 -383.59375 -1537.4375 -444.17999 -1537.4375 -518.9375 C -1537.4375 -593.69501 -1598.055 -654.3125 -1672.8125 -654.3125 z "
       style="fill:#000000;fill-opacity:1"
       id="path4039-9"
       d="m -1672.8125,-692.06055 c -95.1625,0 -173.123,77.96051 -173.123,173.12305 0,95.16254 77.971,173.0918 173.123,173.0918 95.152,0 173.123,-77.92926 173.123,-173.0918 0,-95.16254 -77.9605,-173.12305 -173.123,-173.12305 z"
       transform="matrix(-0.87313433,0,0,-0.87313433,-2838.5454,-735.06511)" />
    <circle
       style="fill:#ffcc00;fill-opacity:1"
       id="path3965-0-3"
       transform="matrix(0.87313433,0,0,0.87313433,82.634626,171.16652)"
       cx="-1672.8126"
       cy="-518.94434"
       r="135.36044" />
    <path
       sodipodi:type="inkscape:offset"
       inkscape:radius="37.747246"
       inkscape:original="M -1672.8125 -654.3125 C -1747.57 -654.3125 -1808.1875 -593.69501 -1808.1875 -518.9375 C -1808.1875 -444.17999 -1747.57 -383.59375 -1672.8125 -383.59375 C -1598.055 -383.59375 -1537.4375 -444.17999 -1537.4375 -518.9375 C -1537.4375 -593.69501 -1598.055 -654.3125 -1672.8125 -654.3125 z "
       style="fill:#000000;fill-opacity:1"
       id="path4039-9-8"
       d="m -1672.8125,-692.06055 c -95.1625,0 -173.123,77.96051 -173.123,173.12305 0,95.16254 77.971,173.0918 173.123,173.0918 95.152,0 173.123,-77.92926 173.123,-173.0918 0,-95.16254 -77.9605,-173.12305 -173.123,-173.12305 z"
       transform="matrix(-0.87313433,0,0,-0.87313433,-2838.5454,-735.06511)" />
    <path
       transform="matrix(-0.87313433,0,0,-0.87313433,-2838.5454,-735.06511)"
       d="m -1672.8125,-692.06055 c -95.1625,0 -173.123,77.96051 -173.123,173.12305 0,95.16254 77.971,173.0918 173.123,173.0918 95.152,0 173.123,-77.92926 173.123,-173.0918 0,-95.16254 -77.9605,-173.12305 -173.123,-173.12305 z"
       id="path4039-9-1"
       style="fill:#000000;fill-opacity:1"
       inkscape:original="M -1672.8125 -654.3125 C -1747.57 -654.3125 -1808.1875 -593.69501 -1808.1875 -518.9375 C -1808.1875 -444.17999 -1747.57 -383.59375 -1672.8125 -383.59375 C -1598.055 -383.59375 -1537.4375 -444.17999 -1537.4375 -518.9375 C -1537.4375 -593.69501 -1598.055 -654.3125 -1672.8125 -654.3125 z "
       inkscape:radius="37.747246"
       sodipodi:type="inkscape:offset" />
    <circle
       transform="matrix(0.87313433,0,0,0.87313433,82.634626,171.16652)"
       id="path3965-0-1"
       style="fill:#ffcc00;fill-opacity:1"
       cx="-1672.8126"
       cy="-518.94434"
       r="135.36044" />
    <path
       transform="matrix(-0.87313433,0,0,-0.87313433,-2838.5454,-735.06511)"
       d="m -1672.8125,-692.06055 c -95.1625,0 -173.123,77.96051 -173.123,173.12305 0,95.16254 77.971,173.0918 173.123,173.0918 95.152,0 173.123,-77.92926 173.123,-173.0918 0,-95.16254 -77.9605,-173.12305 -173.123,-173.12305 z"
       id="path4039-9-2"
       style="fill:#000000;fill-opacity:1"
       inkscape:original="M -1672.8125 -654.3125 C -1747.57 -654.3125 -1808.1875 -593.69501 -1808.1875 -518.9375 C -1808.1875 -444.17999 -1747.57 -383.59375 -1672.8125 -383.59375 C -1598.055 -383.59375 -1537.4375 -444.17999 -1537.4375 -518.9375 C -1537.4375 -593.69501 -1598.055 -654.3125 -1672.8125 -654.3125 z "
       inkscape:radius="37.747246"
       sodipodi:type="inkscape:offset" />
    <circle
       transform="matrix(0.87313433,0,0,0.87313433,82.634626,171.16652)"
       id="path3965-0-8"
       style="fill:#ffcc00;fill-opacity:1"
       cx="-1672.8126"
       cy="-518.94434"
       r="135.36044" />
    <circle
       style="fill:#ffcc00;fill-opacity:1"
       id="path3965-0-5"
       transform="matrix(0.87313433,0,0,0.87313433,82.634626,171.16652)"
       cx="-1672.8126"
       cy="-518.94434"
       r="135.36044" />
    <path
       sodipodi:type="inkscape:offset"
       inkscape:radius="37.747246"
       inkscape:original="M -1672.8125 -654.3125 C -1747.57 -654.3125 -1808.1875 -593.69501 -1808.1875 -518.9375 C -1808.1875 -444.17999 -1747.57 -383.59375 -1672.8125 -383.59375 C -1598.055 -383.59375 -1537.4375 -444.17999 -1537.4375 -518.9375 C -1537.4375 -593.69501 -1598.055 -654.3125 -1672.8125 -654.3125 z "
       style="fill:#000000;fill-opacity:1"
       id="path4039-9-20"
       d="m -1672.8125,-692.06055 c -95.1625,0 -173.123,77.96051 -173.123,173.12305 0,95.16254 77.971,173.0918 173.123,173.0918 95.152,0 173.123,-77.92926 173.123,-173.0918 0,-95.16254 -77.9605,-173.12305 -173.123,-173.12305 z"
       transform="matrix(-0.87313433,0,0,-0.87313433,-2838.5454,-735.06511)" />
    <circle
       style="fill:#ffcc00;fill-opacity:1"
       id="path3965-0-19"
       transform="matrix(0.87313433,0,0,0.87313433,82.634626,171.16652)"
       cx="-1672.8126"
       cy="-518.94434"
       r="135.36044" />
    <path
       sodipodi:type="inkscape:offset"
       inkscape:radius="37.747246"
       inkscape:original="M -1672.8125 -654.3125 C -1747.57 -654.3125 -1808.1875 -593.69501 -1808.1875 -518.9375 C -1808.1875 -444.17999 -1747.57 -383.59375 -1672.8125 -383.59375 C -1598.055 -383.59375 -1537.4375 -444.17999 -1537.4375 -518.9375 C -1537.4375 -593.69501 -1598.055 -654.3125 -1672.8125 -654.3125 z "
       style="fill:#000000;fill-opacity:1"
       id="path4039-9-26"
       d="m -1672.8125,-692.06055 c -95.1625,0 -173.123,77.96051 -173.123,173.12305 0,95.16254 77.971,173.0918 173.123,173.0918 95.152,0 173.123,-77.92926 173.123,-173.0918 0,-95.16254 -77.9605,-173.12305 -173.123,-173.12305 z"
       transform="matrix(-0.87313433,0,0,-0.87313433,-2838.5454,-735.06511)" />
    <circle
       style="fill:#ffcc00;fill-opacity:1"
       id="path3965-0-3-1"
       transform="matrix(0.87313433,0,0,0.87313433,82.634626,171.16652)"
       cx="-1672.8126"
       cy="-518.94434"
       r="135.36044" />
    <path
       sodipodi:type="inkscape:offset"
       inkscape:radius="37.747246"
       inkscape:original="M -1672.8125 -654.3125 C -1747.57 -654.3125 -1808.1875 -593.69501 -1808.1875 -518.9375 C -1808.1875 -444.17999 -1747.57 -383.59375 -1672.8125 -383.59375 C -1598.055 -383.59375 -1537.4375 -444.17999 -1537.4375 -518.9375 C -1537.4375 -593.69501 -1598.055 -654.3125 -1672.8125 -654.3125 z "
       style="fill:#000000;fill-opacity:1"
       id="path4039-9-8-1"
       d="m -1672.8125,-692.06055 c -95.1625,0 -173.123,77.96051 -173.123,173.12305 0,95.16254 77.971,173.0918 173.123,173.0918 95.152,0 173.123,-77.92926 173.123,-173.0918 0,-95.16254 -77.9605,-173.12305 -173.123,-173.12305 z"
       transform="matrix(-0.87313433,0,0,-0.87313433,-2838.5454,-735.06511)" />
    <path
       transform="matrix(-0.87313433,0,0,-0.87313433,-2838.5454,-735.06511)"
       d="m -1672.8125,-692.06055 c -95.1625,0 -173.123,77.96051 -173.123,173.12305 0,95.16254 77.971,173.0918 173.123,173.0918 95.152,0 173.123,-77.92926 173.123,-173.0918 0,-95.16254 -77.9605,-173.12305 -173.123,-173.12305 z"
       id="path4039-9-1-7"
       style="fill:#000000;fill-opacity:1"
       inkscape:original="M -1672.8125 -654.3125 C -1747.57 -654.3125 -1808.1875 -593.69501 -1808.1875 -518.9375 C -1808.1875 -444.17999 -1747.57 -383.59375 -1672.8125 -383.59375 C -1598.055 -383.59375 -1537.4375 -444.17999 -1537.4375 -518.9375 C -1537.4375 -593.69501 -1598.055 -654.3125 -1672.8125 -654.3125 z "
       inkscape:radius="37.747246"
       sodipodi:type="inkscape:offset" />
    <circle
       transform="matrix(0.87313433,0,0,0.87313433,82.634626,171.16652)"
       id="path3965-0-1-2"
       style="fill:#ffcc00;fill-opacity:1"
       cx="-1672.8126"
       cy="-518.94434"
       r="135.36044" />
    <path
       transform="matrix(-0.87313433,0,0,-0.87313433,-2838.5454,-735.06511)"
       d="m -1672.8125,-692.06055 c -95.1625,0 -173.123,77.96051 -173.123,173.12305 0,95.16254 77.971,173.0918 173.123,173.0918 95.152,0 173.123,-77.92926 173.123,-173.0918 0,-95.16254 -77.9605,-173.12305 -173.123,-173.12305 z"
       id="path4039-9-2-5"
       style="fill:#000000;fill-opacity:1"
       inkscape:original="M -1672.8125 -654.3125 C -1747.57 -654.3125 -1808.1875 -593.69501 -1808.1875 -518.9375 C -1808.1875 -444.17999 -1747.57 -383.59375 -1672.8125 -383.59375 C -1598.055 -383.59375 -1537.4375 -444.17999 -1537.4375 -518.9375 C -1537.4375 -593.69501 -1598.055 -654.3125 -1672.8125 -654.3125 z "
       inkscape:radius="37.747246"
       sodipodi:type="inkscape:offset" />
    <circle
       transform="matrix(0.87313433,0,0,0.87313433,82.634626,171.16652)"
       id="path3965-0-8-3"
       style="fill:#ffcc00;fill-opacity:1"
       cx="-1672.8126"
       cy="-518.94434"
       r="135.36044" />
    <circle
       style="fill:#ffcc00;fill-opacity:1"
       id="path3965-0-5-1"
       transform="matrix(0.87313433,0,0,0.87313433,82.634626,171.16652)"
       cx="-1672.8126"
       cy="-518.94434"
       r="135.36044" />
    <path
       sodipodi:type="inkscape:offset"
       inkscape:radius="37.747246"
       inkscape:original="M -1672.8125 -654.3125 C -1747.57 -654.3125 -1808.1875 -593.69501 -1808.1875 -518.9375 C -1808.1875 -444.17999 -1747.57 -383.59375 -1672.8125 -383.59375 C -1598.055 -383.59375 -1537.4375 -444.17999 -1537.4375 -518.9375 C -1537.4375 -593.69501 -1598.055 -654.3125 -1672.8125 -654.3125 z "
       style="fill:#000000;fill-opacity:1"
       id="path4039-9-20-4"
       d="m -1672.8125,-692.06055 c -95.1625,0 -173.123,77.96051 -173.123,173.12305 0,95.16254 77.971,173.0918 173.123,173.0918 95.152,0 173.123,-77.92926 173.123,-173.0918 0,-95.16254 -77.9605,-173.12305 -173.123,-173.12305 z"
       transform="matrix(-0.87313433,0,0,-0.87313433,-2838.5454,-735.06511)" />
    <circle
       style="fill:#ffcc00;fill-opacity:1"
       id="path3965-0-88"
       transform="matrix(0.87313433,0,0,0.87313433,82.634626,171.16652)"
       cx="-1672.8126"
       cy="-518.94434"
       r="135.36044" />
    <path
       sodipodi:type="inkscape:offset"
       inkscape:radius="37.747246"
       inkscape:original="M -1672.8125 -654.3125 C -1747.57 -654.3125 -1808.1875 -593.69501 -1808.1875 -518.9375 C -1808.1875 -444.17999 -1747.57 -383.59375 -1672.8125 -383.59375 C -1598.055 -383.59375 -1537.4375 -444.17999 -1537.4375 -518.9375 C -1537.4375 -593.69501 -1598.055 -654.3125 -1672.8125 -654.3125 z "
       style="fill:#000000;fill-opacity:1"
       id="path4039-9-6"
       d="m -1672.8125,-692.06055 c -95.1625,0 -173.123,77.96051 -173.123,173.12305 0,95.16254 77.971,173.0918 173.123,173.0918 95.152,0 173.123,-77.92926 173.123,-173.0918 0,-95.16254 -77.9605,-173.12305 -173.123,-173.12305 z"
       transform="matrix(-0.87313433,0,0,-0.87313433,-2838.5454,-735.06511)" />
    <circle
       style="fill:#ffcc00;fill-opacity:1"
       id="path3965-0-3-3"
       transform="matrix(0.87313433,0,0,0.87313433,82.634626,171.16652)"
       cx="-1672.8126"
       cy="-518.94434"
       r="135.36044" />
    <path
       sodipodi:type="inkscape:offset"
       inkscape:radius="37.747246"
       inkscape:original="M -1672.8125 -654.3125 C -1747.57 -654.3125 -1808.1875 -593.69501 -1808.1875 -518.9375 C -1808.1875 -444.17999 -1747.57 -383.59375 -1672.8125 -383.59375 C -1598.055 -383.59375 -1537.4375 -444.17999 -1537.4375 -518.9375 C -1537.4375 -593.69501 -1598.055 -654.3125 -1672.8125 -654.3125 z "
       style="fill:#000000;fill-opacity:1"
       id="path4039-9-8-2"
       d="m -1672.8125,-692.06055 c -95.1625,0 -173.123,77.96051 -173.123,173.12305 0,95.16254 77.971,173.0918 173.123,173.0918 95.152,0 173.123,-77.92926 173.123,-173.0918 0,-95.16254 -77.9605,-173.12305 -173.123,-173.12305 z"
       transform="matrix(-0.87313433,0,0,-0.87313433,-2838.5454,-735.06511)" />
    <path
       transform="matrix(-0.87313433,0,0,-0.87313433,-2838.5454,-735.06511)"
       d="m -1672.8125,-692.06055 c -95.1625,0 -173.123,77.96051 -173.123,173.12305 0,95.16254 77.971,173.0918 173.123,173.0918 95.152,0 173.123,-77.92926 173.123,-173.0918 0,-95.16254 -77.9605,-173.12305 -173.123,-173.12305 z"
       id="path4039-9-1-0"
       style="fill:#000000;fill-opacity:1"
       inkscape:original="M -1672.8125 -654.3125 C -1747.57 -654.3125 -1808.1875 -593.69501 -1808.1875 -518.9375 C -1808.1875 -444.17999 -1747.57 -383.59375 -1672.8125 -383.59375 C -1598.055 -383.59375 -1537.4375 -444.17999 -1537.4375 -518.9375 C -1537.4375 -593.69501 -1598.055 -654.3125 -1672.8125 -654.3125 z "
       inkscape:radius="37.747246"
       sodipodi:type="inkscape:offset" />
    <circle
       transform="matrix(0.87313433,0,0,0.87313433,82.634626,171.16652)"
       id="path3965-0-1-6"
       style="fill:#ffcc00;fill-opacity:1"
       cx="-1672.8126"
       cy="-518.94434"
       r="135.36044" />
    <path
       transform="matrix(-0.87313433,0,0,-0.87313433,-2838.5454,-735.06511)"
       d="m -1672.8125,-692.06055 c -95.1625,0 -173.123,77.96051 -173.123,173.12305 0,95.16254 77.971,173.0918 173.123,173.0918 95.152,0 173.123,-77.92926 173.123,-173.0918 0,-95.16254 -77.9605,-173.12305 -173.123,-173.12305 z"
       id="path4039-9-2-2"
       style="fill:#000000;fill-opacity:1"
       inkscape:original="M -1672.8125 -654.3125 C -1747.57 -654.3125 -1808.1875 -593.69501 -1808.1875 -518.9375 C -1808.1875 -444.17999 -1747.57 -383.59375 -1672.8125 -383.59375 C -1598.055 -383.59375 -1537.4375 -444.17999 -1537.4375 -518.9375 C -1537.4375 -593.69501 -1598.055 -654.3125 -1672.8125 -654.3125 z "
       inkscape:radius="37.747246"
       sodipodi:type="inkscape:offset" />
    <circle
       transform="matrix(0.87313433,0,0,0.87313433,82.634626,171.16652)"
       id="path3965-0-8-6"
       style="fill:#ffcc00;fill-opacity:1"
       cx="-1672.8126"
       cy="-518.94434"
       r="135.36044" />
    <circle
       style="fill:#ffcc00;fill-opacity:1"
       id="path3965-0-5-0"
       transform="matrix(0.87313433,0,0,0.87313433,82.634626,171.16652)"
       cx="-1672.8126"
       cy="-518.94434"
       r="135.36044" />
    <path
       sodipodi:type="inkscape:offset"
       inkscape:radius="37.747246"
       inkscape:original="M -1672.8125 -654.3125 C -1747.57 -654.3125 -1808.1875 -593.69501 -1808.1875 -518.9375 C -1808.1875 -444.17999 -1747.57 -383.59375 -1672.8125 -383.59375 C -1598.055 -383.59375 -1537.4375 -444.17999 -1537.4375 -518.9375 C -1537.4375 -593.69501 -1598.055 -654.3125 -1672.8125 -654.3125 z "
       style="fill:#000000;fill-opacity:1"
       id="path4039-9-20-7"
       d="m -1672.8125,-692.06055 c -95.1625,0 -173.123,77.96051 -173.123,173.12305 0,95.16254 77.971,173.0918 173.123,173.0918 95.152,0 173.123,-77.92926 173.123,-173.0918 0,-95.16254 -77.9605,-173.12305 -173.123,-173.12305 z"
       transform="matrix(-0.87313433,0,0,-0.87313433,-2838.5454,-735.06511)" />
    <circle
       style="fill:#ffcc00;fill-opacity:1"
       id="path3965-0-19-8"
       transform="matrix(0.87313433,0,0,0.87313433,82.634626,171.16652)"
       cx="-1672.8126"
       cy="-518.94434"
       r="135.36044" />
    <path
       sodipodi:type="inkscape:offset"
       inkscape:radius="37.747246"
       inkscape:original="M -1672.8125 -654.3125 C -1747.57 -654.3125 -1808.1875 -593.69501 -1808.1875 -518.9375 C -1808.1875 -444.17999 -1747.57 -383.59375 -1672.8125 -383.59375 C -1598.055 -383.59375 -1537.4375 -444.17999 -1537.4375 -518.9375 C -1537.4375 -593.69501 -1598.055 -654.3125 -1672.8125 -654.3125 z "
       style="fill:#000000;fill-opacity:1"
       id="path4039-9-26-8"
       d="m -1672.8125,-692.06055 c -95.1625,0 -173.123,77.96051 -173.123,173.12305 0,95.16254 77.971,173.0918 173.123,173.0918 95.152,0 173.123,-77.92926 173.123,-173.0918 0,-95.16254 -77.9605,-173.12305 -173.123,-173.12305 z"
       transform="matrix(-0.87313433,0,0,-0.87313433,-2838.5454,-735.06511)" />
    <circle
       style="fill:#ffcc00;fill-opacity:1"
       id="path3965-0-3-1-5"
       transform="matrix(0.87313433,0,0,0.87313433,82.634626,171.16652)"
       cx="-1672.8126"
       cy="-518.94434"
       r="135.36044" />
    <path
       sodipodi:type="inkscape:offset"
       inkscape:radius="37.747246"
       inkscape:original="M -1672.8125 -654.3125 C -1747.57 -654.3125 -1808.1875 -593.69501 -1808.1875 -518.9375 C -1808.1875 -444.17999 -1747.57 -383.59375 -1672.8125 -383.59375 C -1598.055 -383.59375 -1537.4375 -444.17999 -1537.4375 -518.9375 C -1537.4375 -593.69501 -1598.055 -654.3125 -1672.8125 -654.3125 z "
       style="fill:#000000;fill-opacity:1"
       id="path4039-9-8-1-5"
       d="m -1672.8125,-692.06055 c -95.1625,0 -173.123,77.96051 -173.123,173.12305 0,95.16254 77.971,173.0918 173.123,173.0918 95.152,0 173.123,-77.92926 173.123,-173.0918 0,-95.16254 -77.9605,-173.12305 -173.123,-173.12305 z"
       transform="matrix(-0.87313433,0,0,-0.87313433,-2838.5454,-735.06511)" />
    <path
       transform="matrix(-0.87313433,0,0,-0.87313433,-2838.5454,-735.06511)"
       d="m -1672.8125,-692.06055 c -95.1625,0 -173.123,77.96051 -173.123,173.12305 0,95.16254 77.971,173.0918 173.123,173.0918 95.152,0 173.123,-77.92926 173.123,-173.0918 0,-95.16254 -77.9605,-173.12305 -173.123,-173.12305 z"
       id="path4039-9-1-7-8"
       style="fill:#000000;fill-opacity:1"
       inkscape:original="M -1672.8125 -654.3125 C -1747.57 -654.3125 -1808.1875 -593.69501 -1808.1875 -518.9375 C -1808.1875 -444.17999 -1747.57 -383.59375 -1672.8125 -383.59375 C -1598.055 -383.59375 -1537.4375 -444.17999 -1537.4375 -518.9375 C -1537.4375 -593.69501 -1598.055 -654.3125 -1672.8125 -654.3125 z "
       inkscape:radius="37.747246"
       sodipodi:type="inkscape:offset" />
    <circle
       transform="matrix(0.87313433,0,0,0.87313433,82.634626,171.16652)"
       id="path3965-0-1-2-4"
       style="fill:#ffcc00;fill-opacity:1"
       cx="-1672.8126"
       cy="-518.94434"
       r="135.36044" />
    <path
       transform="matrix(-0.87313433,0,0,-0.87313433,-2838.5454,-735.06511)"
       d="m -1672.8125,-692.06055 c -95.1625,0 -173.123,77.96051 -173.123,173.12305 0,95.16254 77.971,173.0918 173.123,173.0918 95.152,0 173.123,-77.92926 173.123,-173.0918 0,-95.16254 -77.9605,-173.12305 -173.123,-173.12305 z"
       id="path4039-9-2-5-7"
       style="fill:#000000;fill-opacity:1"
       inkscape:original="M -1672.8125 -654.3125 C -1747.57 -654.3125 -1808.1875 -593.69501 -1808.1875 -518.9375 C -1808.1875 -444.17999 -1747.57 -383.59375 -1672.8125 -383.59375 C -1598.055 -383.59375 -1537.4375 -444.17999 -1537.4375 -518.9375 C -1537.4375 -593.69501 -1598.055 -654.3125 -1672.8125 -654.3125 z "
       inkscape:radius="37.747246"
       sodipodi:type="inkscape:offset" />
    <circle
       transform="matrix(0.87313433,0,0,0.87313433,82.634626,171.16652)"
       id="path3965-0-8-3-3"
       style="fill:#ffcc00;fill-opacity:1"
       cx="-1672.8126"
       cy="-518.94434"
       r="135.36044" />
    <circle
       style="fill:#ffcc00;fill-opacity:1"
       id="path3965-0-5-1-2"
       transform="matrix(0.87313433,0,0,0.87313433,82.634626,171.16652)"
       cx="-1672.8126"
       cy="-518.94434"
       r="135.36044" />
    <path
       sodipodi:type="inkscape:offset"
       inkscape:radius="37.747246"
       inkscape:original="M -1672.8125 -654.3125 C -1747.57 -654.3125 -1808.1875 -593.69501 -1808.1875 -518.9375 C -1808.1875 -444.17999 -1747.57 -383.59375 -1672.8125 -383.59375 C -1598.055 -383.59375 -1537.4375 -444.17999 -1537.4375 -518.9375 C -1537.4375 -593.69501 -1598.055 -654.3125 -1672.8125 -654.3125 z "
       style="fill:#000000;fill-opacity:1"
       id="path4039-9-20-4-5"
       d="m -1672.8125,-692.06055 c -95.1625,0 -173.123,77.96051 -173.123,173.12305 0,95.16254 77.971,173.0918 173.123,173.0918 95.152,0 173.123,-77.92926 173.123,-173.0918 0,-95.16254 -77.9605,-173.12305 -173.123,-173.12305 z"
       transform="matrix(-0.87313433,0,0,-0.87313433,-2838.5454,-735.06511)" />
    <path
       style="fill:none;fill-rule:evenodd;stroke:#000000;stroke-width:1px;stroke-linecap:butt;stroke-linejoin:miter;stroke-opacity:1"
       d="m 547.73548,1652.3956 c 80.94259,29.3831 161.43828,30.6117 241.42857,0"
       id="path4943-6"
       inkscape:connector-curvature="0"
       sodipodi:nodetypes="cc" />
  </defs>
  <sodipodi:namedview
     id="base"
     pagecolor="#ffffff"
     bordercolor="#666666"
     borderopacity="1.0"
     inkscape:pageopacity="0.0"
     inkscape:pageshadow="2"
     inkscape:zoom="0.98994949"
     inkscape:cx="235.92145"
     inkscape:cy="67.682305"
     inkscape:document-units="px"
     inkscape:current-layer="layer1"
     showgrid="false"
     inkscape:window-width="1920"
     inkscape:window-height="1018"
     inkscape:window-x="1912"
     inkscape:window-y="-8"
     inkscape:window-maximized="1"
     fit-margin-top="0"
     fit-margin-left="0"
     fit-margin-right="0"
     fit-margin-bottom="0" />
  <metadata
     id="metadata7">
    <rdf:RDF>
      <cc:Work
         rdf:about="">
        <dc:format>image/svg+xml</dc:format>
        <dc:type
           rdf:resource="http://purl.org/dc/dcmitype/StillImage" />
        <dc:title />
      </cc:Work>
    </rdf:RDF>
  </metadata>
  <g
     inkscape:label="Layer 1"
     inkscape:groupmode="layer"
     id="layer1"
     transform="translate(-177.49971,-135.24746)">
    <path
       style="fill:#ffff00;fill-rule:evenodd;stroke:#ffff00;stroke-width:1px;stroke-linecap:butt;stroke-linejoin:miter;stroke-opacity:1"
       d="m 1.78542,913.79077 735.71429,0"
       id="path4898"
       inkscape:connector-curvature="0" />
    <text
       xml:space="preserve"
       style="font-style:normal;font-weight:normal;font-size:40px;line-height:125%;font-family:sans-serif;letter-spacing:0px;word-spacing:0px;fill:#000000;fill-opacity:1;stroke:none;stroke-width:1px;stroke-linecap:butt;stroke-linejoin:miter;stroke-opacity:1"
       id="text4939"
       sodipodi:linespacing="125%"
       transform="translate(-215.62056,-1195.0105)"
       x="155.24292"
       y="314.03262"><tspan
   id="tspan4941"
   style="font-size:16.25px">www.yellowmuttbrewery.com</tspan></text>
    <g
       id="g4999">
      <path
         sodipodi:nodetypes="scsccccccsssscsscscccsssscsssscsscsssccs"
         inkscape:connector-curvature="0"
         id="path3010-5"
         d="m 506.11377,261.44713 c -0.21773,0.0191 -0.4577,0.0831 -0.66543,0.14901 -0.34612,0.11003 -0.65656,0.29927 -0.9427,0.53626 -0.49393,0.40913 -0.71751,0.97441 -1.06747,1.45988 l -0.51293,0.77461 -0.74861,1.81737 -0.12481,0.90124 -0.097,0.94594 c 0,0 0.009,1.34311 0.0832,1.99612 0.064,0.57271 0.14958,1.14617 0.30498,1.6982 0.17703,0.62876 0.4547,1.21268 0.69317,1.81737 0.23988,0.60832 0.44975,1.24017 0.74861,1.81736 0.42349,0.81789 0.90541,1.58157 1.4695,2.29407 0.23693,0.29927 0.54029,0.53277 0.80406,0.80442 0.35496,0.3656 0.65986,0.7862 1.0536,1.10235 0.28649,0.22985 0.62703,0.38596 0.94269,0.56607 0.30404,0.17341 0.59814,0.36209 0.915,0.50646 0.40446,0.18452 0.81591,0.39012 1.24767,0.4767 0.47966,0.0961 1.4695,0.0285 1.4695,0.0285 0,0 1.2832,-0.003 1.91312,-0.11927 0.47128,-0.0866 0.93287,-0.25396 1.38632,-0.41713 0.44785,-0.16104 0.87725,-0.34652 1.30315,-0.56606 0.42091,-0.21685 0.87185,-0.41002 1.21995,-0.74481 0.82022,-0.78885 1.44206,-1.82016 1.96859,-2.86014 0.30708,-0.60652 0.52492,-1.26242 0.66544,-1.93655 0.0991,-0.47501 0.131,-0.97348 0.11094,-1.45984 -0.0207,-0.47149 -0.0755,-0.95547 -0.22187,-1.40028 -0.2443,-0.74208 -0.58691,-1.44986 -1.0536,-2.05572 -0.28089,-0.36446 -0.66985,-0.61599 -1.0259,-0.89379 -0.28679,-0.22382 -0.58015,-0.43594 -0.88723,-0.62566 -0.38586,-0.23842 -0.8044,-0.42087 -1.19224,-0.65544 -0.28619,-0.1731 -0.55232,-0.35086 -0.83178,-0.53627 -0.35905,-0.23809 -0.72063,-0.5097 -1.08134,-0.74484 -0.35243,-0.22985 -0.73696,-0.41195 -1.08133,-0.65544 -0.44865,-0.31716 -0.8574,-0.68023 -1.27542,-1.04276 -0.46611,-0.40419 -0.88354,-0.88919 -1.35859,-1.28107 -0.4297,-0.3545 -0.88375,-0.67373 -1.35859,-0.95339 -0.28767,-0.16929 -0.57605,-0.30658 -0.88726,-0.4171 -0.40205,-0.14259 -0.82541,-0.29642 -1.24767,-0.32774 -0.21597,-0.0158 -0.42003,-0.0189 -0.63771,0 z"
         style="fill:#ffcc00;fill-opacity:1;stroke:none;stroke-width:0.21668187px;stroke-linecap:butt;stroke-linejoin:miter;stroke-opacity:1" />
      <path
         inkscape:connector-curvature="0"
         id="path3012-5"
         d="m 522.06464,293.21096 -0.50653,-1.42522 -0.16876,-1.30394 0,-1.91042 0.25314,-0.84909 0.30956,-0.63679 0.61912,-0.7581 0.98497,-0.66714 0.75983,-0.51549 0.50653,-0.54584 0.47842,-0.54584 0.59098,-0.75809 0.30955,-0.66715 0.39399,-0.66709 0.36584,-0.78845 0.16877,-1.00069 0.11274,-1.39492 -0.25315,-1.06133 -0.19708,-1.51619 0.0564,-1.60718 0.39396,-1.72847 0.61912,-1.33424 0.84427,-1.15233 1.04124,-1.09168 1.35081,-0.97035 1.60408,-0.81874 1.85733,-0.60649 1.99806,-0.4852 2.13878,-0.69744 1.60409,-0.2124 2.42018,-0.0318 1.51966,0.33355 1.23824,0.54584 1.32265,0.94005 0.92868,0.84907 1.01308,1.51619 0.70358,1.24329 0.33766,1.12199 0.0564,0.33355 0.64726,0.75813 0.75983,0.69744 0.67538,0.42454 0.84428,0.5155 0.84422,0.54584 0.90055,0.3942 0.95682,0.12146 c 0,0 1.26638,-0.12146 1.40708,-0.0606 0.14071,0.0606 1.09754,0.15151 1.09754,0.15151 l 1.01309,0.51551 0.87239,0.94003 0.64726,0.90972 0.39401,0.66712 0.33768,0.81874 0.25313,1.09168 0.28148,1.42523 -0.0564,1.30393 -0.0564,1.36459 -0.0564,1.21293 -0.25315,0.63684 -0.36585,1.06133 -0.67542,1.21295 -1.12565,1.33427 -0.95683,1.06134 -1.40709,1.122 -1.99807,0.97037 -1.51964,0.7884 -6.47259,2.54722 -1.46337,0.42455 -2.30761,0.69744 -3.51772,0.84909 -3.82728,0.81873 -2.92673,0.3639 -2.22319,0.0318 -1.29454,-0.2124 -1.23824,-0.33356 -1.26636,-0.66713 -0.67542,-0.45485 -1.04124,-0.66714 -1.12568,-1.1523 -1.06938,-1.66782 z"
         style="fill:#ffcc00;fill-opacity:1;stroke:none;stroke-width:0.21668185px;stroke-linecap:butt;stroke-linejoin:miter;stroke-opacity:1" />
      <path
         sodipodi:nodetypes="cccscccccccsscccsscsscccsccscscscssssssscccccscscccc"
         inkscape:connector-curvature="0"
         id="path3014-5"
         d="m 520.80878,235.37826 c -0.20328,0.0254 -0.4153,0.11004 -0.60996,0.1788 -0.33282,0.11754 -0.6401,0.26187 -0.97044,0.38732 -0.25167,0.0955 -0.262,0.10879 -0.52158,0.17628 -0.11979,0.0316 -0.34392,0.0986 -0.51411,0.21589 -0.21331,0.0717 -0.24075,0.17405 -0.26524,0.14901 l -0.91494,0.6256 -0.85945,0.84411 -0.5153,0.45067 c -0.051,0.0828 -0.29327,0.34353 -0.38474,0.46179 -0.21155,0.31514 -0.41937,0.70062 -0.59959,1.06882 -0.19561,0.39982 -0.39633,0.80286 -0.55453,1.22151 -0.18558,0.49146 -0.32171,0.97551 -0.44362,1.48965 -0.13484,0.56853 -0.2328,1.1464 -0.30499,1.728 -0.0823,0.6631 -0.0991,1.35823 -0.13867,2.02592 -0.0348,0.58588 -0.11005,1.17147 -0.0832,1.75779 0.031,0.67394 0.13424,1.33923 0.27734,1.99612 0.1192,0.54778 0.26731,1.09099 0.47136,1.60883 0.22482,0.57028 0.6352,1.33538 0.80406,1.63862 0.16876,0.3034 0.98783,1.18492 1.52496,1.728 0.2136,0.21622 0.45097,0.41801 0.69314,0.59588 0.2741,0.2013 0.56,0.35305 0.85952,0.50646 0.29269,0.14995 0.58487,0.29168 0.88726,0.41708 0.3074,0.12741 0.62511,0.26346 0.9427,0.35753 0.38668,0.11473 0.79773,0.16042 1.19223,0.23841 0.31853,0.0631 0.61957,0.15496 0.9427,0.17881 0.47768,0.0349 0.97235,0.0418 1.44176,-0.0596 0.57914,-0.12522 1.12771,-0.38768 1.66357,-0.65545 0.55631,-0.27803 1.1037,-0.6075 1.60813,-0.98315 0.31225,-0.23239 0.58603,-0.49112 0.85953,-0.77465 0.39243,-0.40679 0.81484,-0.81713 1.10906,-1.31087 0.19296,-0.32388 0.3136,-0.70376 0.4159,-1.07257 0.12279,-0.44264 0.20743,-0.90875 0.22188,-1.37047 0.0176,-0.55891 -0.0587,-1.12132 -0.16641,-1.6684 -0.0958,-0.48786 -0.22718,-0.94498 -0.4159,-1.40027 -0.15106,-0.36403 -0.36054,-0.72354 -0.58224,-1.04277 -0.24665,-0.35499 -0.56066,-0.64967 -0.83177,-0.98316 -0.2635,-0.32417 -0.50993,-0.63737 -0.74863,-0.98316 -0.29032,-0.42063 -0.56247,-0.87431 -0.8318,-1.3109 -0.17999,-0.29168 -0.39148,-0.54534 -0.52681,-0.86398 -0.11362,-0.26759 -0.17231,-0.57453 -0.22188,-0.86402 -0.0596,-0.34921 -0.0782,-0.71751 -0.0832,-1.07253 -0.006,-0.36443 0.0835,-0.70941 0.0555,-1.07257 -0.0236,-0.3201 -0.13037,-0.63951 -0.19414,-0.95339 -0.0389,-0.1918 -0.0607,-0.37739 -0.11085,-0.56606 -0.0826,-0.31038 -0.18116,-0.6719 -0.33273,-0.92359 -0.24311,-0.40381 -0.21568,-0.45843 -0.44362,-0.7448 0,0 -0.31101,-0.43304 -0.49907,-0.62567 -0.18912,-0.19371 -0.37172,-0.42195 -0.60997,-0.53627 -0.28737,-0.1379 -0.62992,-0.14197 -0.94269,-0.1788 -0.25197,-0.0285 -0.497,-0.0628 -0.74862,-0.0285 z"
         style="fill:#ffcc00;fill-opacity:1;stroke:none;stroke-width:0.21668187px;stroke-linecap:butt;stroke-linejoin:miter;stroke-opacity:1" />
      <path
         sodipodi:nodetypes="cccccccccccccccccccccccccccccccccccccccccccccc"
         inkscape:connector-curvature="0"
         id="path3016-8"
         d="m 535.57004,231.18118 -0.7899,0.0473 -0.27439,0.0383 -0.91499,0.17882 -1.21995,0.298 -0.83178,0.50647 -0.8318,0.62566 -0.38818,1.07257 0.0267,1.01296 0.0555,1.13212 0.11085,0.98316 0.38816,1.07257 0.55453,0.89378 0.55453,0.83422 0.22188,1.04273 0,1.10235 -0.111,1.57902 -0.11099,1.48967 0.0555,1.90673 0.22188,1.40029 0.44362,1.2215 0.7209,0.83421 0.8595,0.83422 1.08134,0.47667 1.10904,0.23841 1.4418,0.0596 1.66356,-0.14901 1.9686,-0.53628 1.08134,-0.80441 1.10903,-1.13212 1.16451,-1.60884 0.85953,-1.75779 0.36044,-1.34069 0.0832,-1.84717 -0.16641,-1.07252 -0.33271,-1.28111 -0.44362,-1.43008 -0.69316,-1.22151 -0.69318,-1.2215 -1.33084,-1.6982 -0.97044,-1.10236 -1.38631,-1.04277 -1.80221,-1.13212 -0.4901,-0.19277 -0.89623,-0.22414 z"
         style="fill:#ffcc00;fill-opacity:1;stroke:none;stroke-width:0.21668187px;stroke-linecap:butt;stroke-linejoin:miter;stroke-opacity:1" />
      <path
         sodipodi:nodetypes="ccccccccccccccccccccccccccccccccccccccccccccccccccccscccccccccccccccc"
         inkscape:connector-curvature="0"
         id="path3018-4"
         d="m 559.04351,245.44831 c -0.11944,0.0427 -0.69317,0.0894 -0.69317,0.0894 l -0.55455,0.14901 -0.69314,0.38731 -0.38815,0.32773 -0.3882,0.50645 -0.36043,0.41714 -0.44362,0.98316 -0.24961,0.77461 -0.16641,0.92358 -0.13867,0.68524 -0.16641,0.68524 -0.38818,0.74484 -0.4159,0.74481 -0.22188,0.80441 -0.27733,0.53627 -0.22188,0.62567 -0.24961,0.4171 -0.22186,0.56606 -0.27735,0.53629 -0.24961,0.50647 -0.24959,0.44689 -0.27735,0.74484 -0.24961,0.38729 -0.19413,0.50649 -0.13867,0.4767 0.0555,0.71501 0,1.40028 -0.0267,0.65549 0.27735,0.65545 c 0,0 0.25729,0.62928 0.27734,0.71504 0.0207,0.0856 0.38819,0.59586 0.38819,0.59586 l 0.60998,0.56607 0.74861,0.62564 0.77634,0.47669 0.69316,0.32773 1.21997,0.56606 0.58225,0.26821 1.19223,0.0894 1.19225,-0.0596 0.60996,-0.14901 0.77636,-0.29801 1.1645,-0.41709 1.10905,-0.53627 0.83178,-0.68524 0.80409,-0.80441 0.83178,-1.01296 0.38816,-0.68524 0.33271,-0.71504 0.33274,-1.13214 0.22186,-0.77461 0.13868,-1.07256 c 0,0 0.0832,-1.76137 0.0832,-1.84716 0,-0.0856 -0.111,-1.54924 -0.111,-1.54924 l -0.11085,-1.54922 -0.30499,-1.48965 -0.30499,-0.98319 -0.27735,-0.71504 -0.41588,-0.89378 -0.83179,-1.16194 -0.41592,-0.47666 -0.29852,-0.33466 -0.42237,-0.38038 -1.35859,-0.98316 -0.71889,-0.4466 -0.48424,-0.21717 -0.37727,-0.11066 -0.77635,-0.0894 c 0,0 -0.40739,-0.10236 -0.52679,-0.0596 z"
         style="fill:#ffcc00;fill-opacity:1;stroke:none;stroke-width:0.21668187px;stroke-linecap:butt;stroke-linejoin:miter;stroke-opacity:1" />
      <path
         d="m 339.52985,219.39267 -22.6717,69.92455 q -1.65761,5.05618 -5.7214,7.98646 -4.06379,2.93028 -9.0366,2.93028 l -41.38655,0 q 1.2833,-5.17109 4.9728,-8.10137 3.6895,-2.98774 8.71577,-2.98774 l 23.09947,0 11.28239,-34.0717 -16.09478,18.32862 q -4.9728,5.63074 -13.2608,5.63074 -4.81239,0 -8.1276,-2.29826 -3.79644,-2.643 -3.79644,-7.58426 0,-2.35571 0.7486,-4.71143 l 11.28238,-33.95679 -9.62478,0 q 0.21388,1.60878 0.21388,2.70045 0,5.6882 -4.17074,9.71015 -4.11726,4.02196 -9.99907,4.02196 -5.88181,0 -10.05254,-4.02196 -4.17074,-4.02195 -4.17074,-9.71015 0,-5.97547 4.38461,-9.99743 4.17074,-3.79212 9.73173,-3.79212 l 34.75615,0 q 3.6895,0 5.98875,2.35571 2.29925,2.29826 2.29925,6.26276 0,2.2408 -0.7486,4.53906 l -11.38932,34.35899 31.44095,-43.26474 q 1.22984,-1.7237 3.95686,-2.98774 2.72702,-1.26404 4.81238,-1.26404 l 12.56569,0 z"
         style="font-style:normal;font-variant:normal;font-weight:bold;font-stretch:semi-expanded;font-size:105.40497589px;line-height:125%;font-family:Magneto;-inkscape-font-specification:'Magneto Bold Semi-Expanded';letter-spacing:0px;word-spacing:0px;fill:#000000;fill-opacity:1;stroke:none;stroke-width:1px;stroke-linecap:butt;stroke-linejoin:miter;stroke-opacity:1"
         id="path3432"
         inkscape:connector-curvature="0" />
      <path
         style="font-style:normal;font-variant:normal;font-weight:bold;font-stretch:semi-expanded;font-size:medium;line-height:125%;font-family:Magneto;-inkscape-font-specification:'Magneto Bold Semi-Expanded';letter-spacing:0px;word-spacing:0px;fill:#000000;fill-opacity:1;stroke:none;stroke-width:1px;stroke-linecap:butt;stroke-linejoin:miter;stroke-opacity:1"
         d="m 396.33655,291.04092 q -1.1229,4.42415 -5.13322,6.95224 -3.58256,2.2408 -8.18107,2.2408 l -29.78334,0 q -25.9869,0 -25.9869,-16.83476 0,-10.80182 8.87619,-16.94966 7.64635,-5.286 18.18013,-5.286 l 7.75329,0 q 6.79083,0 11.92403,2.2408 6.8443,2.98774 7.16512,9.07813 0.26736,6.14785 -5.50751,10.22726 l -17.6989,0 5.77487,-12.35315 -11.28239,0 -4.38461,13.84702 q -0.3743,1.20658 -0.3743,2.18334 0,4.65398 6.95122,4.65398 l 41.70739,0 z"
         id="path3435"
         inkscape:connector-curvature="0" />
      <path
         style="font-style:normal;font-variant:normal;font-weight:bold;font-stretch:semi-expanded;font-size:medium;line-height:125%;font-family:Magneto;-inkscape-font-specification:'Magneto Bold Semi-Expanded';letter-spacing:0px;word-spacing:0px;fill:#000000;fill-opacity:1;stroke:none;stroke-width:1px;stroke-linecap:butt;stroke-linejoin:miter;stroke-opacity:1"
         d="m 445.68221,291.04092 q -1.33678,5.05617 -6.14916,7.46934 -3.36868,1.7237 -7.21859,1.7237 l -20.58633,0 q -7.91371,0 -7.91371,-5.80311 0,-1.49387 0.58818,-3.38993 l 19.83774,-60.0995 18.92873,0 -19.94468,60.0995 22.45782,0 z"
         id="path3438"
         inkscape:connector-curvature="0" />
      <path
         style="font-style:normal;font-variant:normal;font-weight:bold;font-stretch:semi-expanded;font-size:medium;line-height:125%;font-family:Magneto;-inkscape-font-specification:'Magneto Bold Semi-Expanded';letter-spacing:0px;word-spacing:0px;fill:#000000;fill-opacity:1;stroke:none;stroke-width:1px;stroke-linecap:butt;stroke-linejoin:miter;stroke-opacity:1"
         d="m 495.19787,291.04092 q -1.33677,5.05617 -6.14916,7.46934 -3.36867,1.7237 -7.21859,1.7237 l -20.58634,0 q -7.9137,0 -7.9137,-5.80311 0,-1.49387 0.58818,-3.38993 l 19.83775,-60.0995 18.92872,0 -19.94467,60.0995 22.45781,0 z"
         id="path3441"
         inkscape:connector-curvature="0" />
      <path
         style="font-style:normal;font-variant:normal;font-weight:bold;font-stretch:semi-expanded;font-size:medium;line-height:125%;font-family:Magneto;-inkscape-font-specification:'Magneto Bold Semi-Expanded';letter-spacing:0px;word-spacing:0px;fill:#000000;fill-opacity:1;stroke:none;stroke-width:1px;stroke-linecap:butt;stroke-linejoin:miter;stroke-opacity:1"
         d="m 658.98975,261.16354 -9.67825,29.87738 q -3.95686,9.19304 -13.31428,9.19304 l -27.05633,0 q -7.11164,0 -7.91371,-5.05617 -3.90338,5.05617 -11.28237,5.05617 l -9.51785,0 q -7.9137,0 -7.9137,-6.03293 0,-1.43642 0.58818,-3.16011 l 9.73172,-29.87738 19.40997,0 -9.99907,29.87738 9.30395,0 9.99908,-29.87738 19.14261,0 -9.73171,29.87738 9.09006,0 9.94561,-29.87738 19.19609,0 z"
         id="path3444"
         inkscape:connector-curvature="0" />
      <path
         style="font-style:normal;font-variant:normal;font-weight:bold;font-stretch:semi-expanded;font-size:medium;line-height:125%;font-family:Magneto;-inkscape-font-specification:'Magneto Bold Semi-Expanded';letter-spacing:0px;word-spacing:0px;fill:#000000;fill-opacity:1;stroke:none;stroke-width:1px;stroke-linecap:butt;stroke-linejoin:miter;stroke-opacity:1"
         d="m 474.59701,379.09229 q -2.24579,9.19303 -14.86495,9.19303 l -19.19608,0 q -8.98313,0 -8.98313,-5.57327 0,-1.95353 1.12289,-5.11363 l 8.87619,-24.82121 -26.52162,31.25634 q -4.27768,5.11362 -9.35742,5.11362 -0.96248,0 -2.0319,-0.17237 -6.0957,-0.74693 -6.0957,-6.55004 0,-2.2408 0.96249,-4.82634 l 13.15386,-36.48488 -32.9916,42.80509 q -3.3152,4.36669 -9.73173,4.36669 l -10.8546,0 21.60228,-66.36225 -29.67641,0 8.07413,-14.47904 35.71862,0 q 7.379,0 7.379,5.80311 0,2.2408 -1.01595,5.40091 l -11.49626,35.62303 22.99252,-27.98132 q 4.38462,-5.40091 6.73735,-7.00969 3.90338,-2.643 10.10602,-2.643 1.76454,0 3.6895,1.3215 2.9409,2.06843 2.9409,6.14785 0,2.52808 -1.17636,5.68819 l -10.37337,28.95808 20.58633,-22.23567 q 4.38462,-4.71143 5.82834,-5.68819 2.51313,-1.55133 7.21858,-1.49387 1.87149,0 3.95685,1.49387 3.20827,2.2408 3.20827,6.55004 0,2.47063 -1.06943,5.45836 l -12.77957,36.25506 24.06196,0 z"
         id="path3447"
         inkscape:connector-curvature="0" />
      <path
         style="font-style:normal;font-variant:normal;font-weight:bold;font-stretch:semi-expanded;font-size:medium;line-height:125%;font-family:Magneto;-inkscape-font-specification:'Magneto Bold Semi-Expanded';letter-spacing:0px;word-spacing:0px;fill:#000000;fill-opacity:1;stroke:none;stroke-width:1px;stroke-linecap:butt;stroke-linejoin:miter;stroke-opacity:1"
         d="m 549.87963,379.95415 q -1.1229,4.76888 -4.91933,7.23951 -2.99438,1.95352 -6.36305,1.95352 l -22.35088,0 q -7.86024,0 -7.86024,-5.40091 -4.17073,5.40091 -11.28237,5.40091 l -9.4109,0 q -4.33115,0 -6.73735,-2.41317 -2.24577,-2.24081 -2.24577,-5.91802 0,-2.06843 0.74859,-4.25178 l 8.98312,-26.48745 19.40998,0 -9.99908,29.87739 10.85462,0 9.9456,-29.87739 19.19608,0 -9.73171,29.87739 21.76269,0 z"
         id="path3450"
         inkscape:connector-curvature="0" />
      <path
         style="font-style:normal;font-variant:normal;font-weight:bold;font-stretch:semi-expanded;font-size:medium;line-height:125%;font-family:Magneto;-inkscape-font-specification:'Magneto Bold Semi-Expanded';letter-spacing:0px;word-spacing:0px;fill:#000000;fill-opacity:1;stroke:none;stroke-width:1px;stroke-linecap:butt;stroke-linejoin:miter;stroke-opacity:1"
         d="m 658.98974,379.95415 q -2.51313,9.19303 -13.36774,9.19303 l -27.27021,0 q -7.91371,0 -7.91371,-5.97547 0,-1.49387 0.58818,-3.21756 l 6.79082,-20.68435 -8.76925,0 3.36868,-9.19304 q 9.35742,-2.58554 13.90246,-6.60749 5.13321,-4.53907 10.96155,-16.43256 l 10.42684,0 -7.53941,23.04005 13.79552,0 q -3.3152,9.19304 -13.47469,9.19304 l -3.52909,0 -6.68387,20.68435 28.71392,0 z"
         id="path3453"
         inkscape:connector-curvature="0" />
      <path
         style="font-style:normal;font-variant:normal;font-weight:bold;font-stretch:semi-expanded;font-size:medium;line-height:125%;font-family:Magneto;-inkscape-font-specification:'Magneto Bold Semi-Expanded';letter-spacing:0px;word-spacing:0px;fill:#000000;fill-opacity:1;stroke:none;stroke-width:1px;stroke-linecap:butt;stroke-linejoin:miter;stroke-opacity:1"
         d="m 604.34634,379.95415 q -2.51314,9.19303 -13.36775,9.19303 l -27.27021,0 q -7.9137,0 -7.9137,-5.97547 0,-1.49387 0.58818,-3.21756 l 6.79081,-20.68435 -8.76924,0 3.36867,-9.19304 q 9.35743,-2.58554 13.90246,-6.60749 5.13321,-4.53907 10.96156,-16.43256 l 10.42683,0 -7.5394,23.04005 13.79552,0 q -3.31521,9.19304 -13.4747,9.19304 l -3.52909,0 -6.68387,20.68435 28.71393,0 z"
         id="path3456"
         inkscape:connector-curvature="0" />
      <path
         d="m 326.61228,425.50641 0,-0.57797 1.79249,0 q 2.24729,0 3.69198,-0.5308 1.44469,-0.54259 1.44469,-2.63037 l 0,-13.63544 q 0,-2.08778 -1.39118,-2.61857 -1.36443,-0.54259 -3.74549,-0.54259 l -1.79249,0 0,-0.57797 20.68046,0 q 20.17213,0 20.17213,5.63818 0,3.46785 -8.64138,4.70636 10.86192,1.0026 10.86192,4.98944 0,1.88726 -2.83587,3.34989 -2.80912,1.45082 -6.79539,1.94623 -3.98627,0.48361 -10.83516,0.48361 l -22.60671,0 z m 13.69779,-19.72186 0,8.10342 q 2.62185,0.22412 6.68838,0.22412 13.08246,0 13.08246,-4.21095 0,-2.11137 -3.77225,-3.29091 -3.77224,-1.17954 -9.63125,-1.17954 -3.53147,0 -6.36734,0.35386 z m 0,9.54246 0,8.65779 q 4.09329,0.41284 8.07956,0.41284 5.85901,0 9.47074,-1.15594 3.63847,-1.16775 3.63847,-3.24373 0,-2.3001 -3.95952,-3.5504 -3.95951,-1.26211 -10.96893,-1.26211 -4.54809,0 -6.26032,0.14155 z"
         style="font-style:normal;font-variant:normal;font-weight:normal;font-stretch:normal;font-size:medium;line-height:125%;font-family:'Angsana New';-inkscape-font-specification:'Angsana New';letter-spacing:0px;word-spacing:0px;fill:#000000;fill-opacity:1;stroke:none;stroke-width:1px;stroke-linecap:butt;stroke-linejoin:miter;stroke-opacity:1"
         id="path4227"
         inkscape:connector-curvature="0" />
      <path
         d="m 385.2827,415.3388 0,6.84131 q 0,1.38006 1.07014,2.07599 1.07014,0.68413 4.57485,0.68413 l 0,0.56618 -16.56042,0 0,-0.56618 q 2.03327,0 3.23718,-0.25949 1.23066,-0.2713 1.52495,-0.67234 0.32104,-0.40105 0.32104,-1.71033 l 0,-5.53203 q 0,-2.3001 -0.48156,-3.07859 -0.45481,-0.79029 -2.11353,-0.79029 -1.09689,0 -2.48808,0.23591 l -0.34779,-0.56618 9.79178,-1.74572 1.47144,0 0,3.20834 q 4.06653,-3.20834 8.34709,-3.20834 1.63196,0 3.0499,0.46003 1.41793,0.46001 1.41793,1.27389 0,1.43904 -3.1034,1.43904 -0.82936,0 -2.78236,-0.53079 -1.92626,-0.54259 -2.27405,-0.54259 -1.81924,0 -4.65511,2.41805 z"
         style="font-style:normal;font-variant:normal;font-weight:normal;font-stretch:normal;font-size:medium;line-height:125%;font-family:'Angsana New';-inkscape-font-specification:'Angsana New';letter-spacing:0px;word-spacing:0px;fill:#000000;fill-opacity:1;stroke:none;stroke-width:1px;stroke-linecap:butt;stroke-linejoin:miter;stroke-opacity:1"
         id="path4229"
         inkscape:connector-curvature="0" />
      <path
         d="m 427.79401,420.30465 q -0.82936,2.41805 -4.60161,4.03402 -3.74549,1.60416 -8.64137,1.60416 -6.31383,0 -10.21984,-2.12316 -3.90601,-2.12317 -3.90601,-5.26073 0,-3.42066 4.01302,-5.57921 4.01303,-2.17035 10.94218,-2.17035 6.26032,0 9.33697,1.75751 3.07666,1.75751 3.07666,4.04581 l -22.33917,0 q 0,2.90166 3.21042,4.84789 3.23717,1.94624 8.58787,1.94624 6.5546,0 9.44398,-3.40886 l 1.0969,0.30668 z m -7.38397,-4.58839 q -0.45481,-3.79811 -7.00941,-3.79811 -3.21042,0 -5.40421,1.07337 -2.19379,1.06159 -2.54158,2.72474 l 14.9552,0 z"
         style="font-style:normal;font-variant:normal;font-weight:normal;font-stretch:normal;font-size:medium;line-height:125%;font-family:'Angsana New';-inkscape-font-specification:'Angsana New';letter-spacing:0px;word-spacing:0px;fill:#000000;fill-opacity:1;stroke:none;stroke-width:1px;stroke-linecap:butt;stroke-linejoin:miter;stroke-opacity:1"
         id="path4231"
         inkscape:connector-curvature="0" />
      <path
         d="m 481.408,411.82378 q -3.1034,0.20053 -4.52134,1.82828 l -10.80841,12.29077 -1.44469,0 -8.07955,-9.10602 -9.44399,9.10602 -1.28416,0 -10.38036,-11.98409 q -1.5517,-1.79289 -5.13667,-2.13496 l 0,-0.57797 13.56402,0 0,0.57797 q -3.02315,0.0944 -3.02315,0.96722 0,0.47182 0.58858,1.16774 l 6.92916,8.19779 6.95591,-6.67618 -1.846,-2.09958 q -0.58857,-0.67233 -1.5517,-1.09697 -0.96312,-0.42463 -3.55821,-0.46002 l 0,-0.57797 15.38326,0 0,0.57797 q -4.30732,0.0708 -4.30732,1.19134 0,0.30668 0.29429,0.63694 l 7.33046,8.19779 6.82214,-7.89111 q 0.69559,-0.80208 0.69559,-1.34467 0,-0.74311 -3.37094,-0.79029 l 0,-0.57797 10.19308,0 0,0.57797 z"
         style="font-style:normal;font-variant:normal;font-weight:normal;font-stretch:normal;font-size:medium;line-height:125%;font-family:'Angsana New';-inkscape-font-specification:'Angsana New';letter-spacing:0px;word-spacing:0px;fill:#000000;fill-opacity:1;stroke:none;stroke-width:1px;stroke-linecap:butt;stroke-linejoin:miter;stroke-opacity:1"
         id="path4233"
         inkscape:connector-curvature="0" />
      <path
         d="m 512.12102,420.30465 q -0.82936,2.41805 -4.6016,4.03402 -3.74549,1.60416 -8.64138,1.60416 -6.31383,0 -10.21984,-2.12316 -3.90601,-2.12317 -3.90601,-5.26073 0,-3.42066 4.01303,-5.57921 4.01302,-2.17035 10.94218,-2.17035 6.26031,0 9.33697,1.75751 3.07665,1.75751 3.07665,4.04581 l -22.33917,0 q 0,2.90166 3.21042,4.84789 3.23717,1.94624 8.58787,1.94624 6.55461,0 9.44399,-3.40886 l 1.09689,0.30668 z m -7.38397,-4.58839 q -0.45481,-3.79811 -7.00941,-3.79811 -3.21042,0 -5.40421,1.07337 -2.19378,1.06159 -2.54158,2.72474 l 14.9552,0 z"
         style="font-style:normal;font-variant:normal;font-weight:normal;font-stretch:normal;font-size:medium;line-height:125%;font-family:'Angsana New';-inkscape-font-specification:'Angsana New';letter-spacing:0px;word-spacing:0px;fill:#000000;fill-opacity:1;stroke:none;stroke-width:1px;stroke-linecap:butt;stroke-linejoin:miter;stroke-opacity:1"
         id="path4235"
         inkscape:connector-curvature="0" />
      <path
         d="m 525.89907,415.3388 0,6.84131 q 0,1.38006 1.07014,2.07599 1.07014,0.68413 4.57485,0.68413 l 0,0.56618 -16.56041,0 0,-0.56618 q 2.03326,0 3.23717,-0.25949 1.23066,-0.2713 1.52495,-0.67234 0.32104,-0.40105 0.32104,-1.71033 l 0,-5.53203 q 0,-2.3001 -0.48156,-3.07859 -0.45481,-0.79029 -2.11353,-0.79029 -1.09689,0 -2.48807,0.23591 l -0.3478,-0.56618 9.79178,-1.74572 1.47144,0 0,3.20834 q 4.06654,-3.20834 8.34709,-3.20834 1.63197,0 3.0499,0.46003 1.41794,0.46001 1.41794,1.27389 0,1.43904 -3.1034,1.43904 -0.82937,0 -2.78237,-0.53079 -1.92625,-0.54259 -2.27405,-0.54259 -1.81924,0 -4.65511,2.41805 z"
         style="font-style:normal;font-variant:normal;font-weight:normal;font-stretch:normal;font-size:medium;line-height:125%;font-family:'Angsana New';-inkscape-font-specification:'Angsana New';letter-spacing:0px;word-spacing:0px;fill:#000000;fill-opacity:1;stroke:none;stroke-width:1px;stroke-linecap:butt;stroke-linejoin:miter;stroke-opacity:1"
         id="path4237"
         inkscape:connector-curvature="0" />
      <path
         d="m 574.10887,411.82378 q -1.65872,0.0826 -2.6486,0.49541 -0.96312,0.41283 -2.11353,1.65135 l -13.18947,14.22521 q -3.87926,4.18736 -10.94218,4.18736 -1.73897,0 -3.26392,-0.47182 -1.4982,-0.46002 -1.4982,-1.2621 0,-1.45083 3.63848,-1.45083 1.1504,0 3.18367,0.34207 1.39118,0.23591 1.76573,0.23591 2.62183,0 4.81563,-2.35908 l 2.30079,-2.47703 -11.61101,-10.75737 q -2.38106,-2.19394 -5.75201,-2.35908 l 0,-0.57797 15.06223,0 0,0.57797 -0.72236,0 q -3.18366,0 -3.18366,1.04979 0,0.61336 1.17715,1.68674 l 7.86554,7.19517 7.25019,-7.8793 q 0.58858,-0.63695 0.58858,-1.26211 0,-0.79029 -3.23718,-0.79029 l 0,-0.57797 10.51413,0 0,0.57797 z"
         style="font-style:normal;font-variant:normal;font-weight:normal;font-stretch:normal;font-size:medium;line-height:125%;font-family:'Angsana New';-inkscape-font-specification:'Angsana New';letter-spacing:0px;word-spacing:0px;fill:#000000;fill-opacity:1;stroke:none;stroke-width:1px;stroke-linecap:butt;stroke-linejoin:miter;stroke-opacity:1"
         id="path4239"
         inkscape:connector-curvature="0" />
      <path
         inkscape:connector-curvature="0"
         id="path4214-6-3"
         d="m 450.36058,136.94379 a 269.99937,180 0 0 0 -270,180 269.99937,180 0 0 0 270,180 269.99937,180 0 0 0 270,-180 269.99937,180 0 0 0 -270,-180 z m 0,11.73913 A 259.07473,168.26087 0 0 1 709.43574,316.94379 259.07473,168.26087 0 0 1 450.36058,485.20466 259.07473,168.26087 0 0 1 191.28542,316.94379 259.07473,168.26087 0 0 1 450.36058,148.68292 Z"
         style="opacity:1;fill:#000000;fill-opacity:1;stroke:none" />
      <g
         transform="translate(-215.62056,-1194.2626)"
         style="font-style:normal;font-weight:normal;font-size:40px;line-height:125%;font-family:sans-serif;letter-spacing:0px;word-spacing:0px;fill:#000000;fill-opacity:1;stroke:none;stroke-width:1px;stroke-linecap:butt;stroke-linejoin:miter;stroke-opacity:1"
         id="text4939-1">
        <path
           d="m 562.53504,1648.1831 -5.07363,7.6251 -1.3051,-0.4504 0.0757,-7.2008 -4.36606,5.7204 -1.2976,-0.4477 0.68577,-9.1391 1.47012,0.5073 -0.70112,7.0185 4.33141,-5.7659 1.16259,0.4012 -0.0936,7.2282 3.69386,-5.9859 1.41761,0.4891 z"
           style="font-size:16.25px"
           id="path5027" />
        <path
           d="m 574.95844,1652.0396 -4.82085,7.7873 -1.31917,-0.4073 -0.16046,-7.1994 -4.17612,5.8605 -1.31159,-0.4049 0.38571,-9.1567 1.48596,0.4588 -0.47058,7.0378 4.14,-5.9049 1.17512,0.3629 0.14351,7.2274 3.49558,-6.1039 1.43289,0.4424 z"
           style="font-size:16.25px"
           id="path5029" />
        <path
           d="m 587.49532,1655.4677 -4.5524,7.9472 -1.3323,-0.3621 -0.40595,-7.1897 -3.97378,5.9995 -1.32464,-0.36 0.0731,-9.1645 1.50074,0.4079 -0.23023,7.0497 3.93616,-6.0426 1.18681,0.3225 0.38998,7.2183 3.28532,-6.2195 1.44715,0.3933 z"
           style="font-size:16.25px"
           id="path5031" />
        <path
           d="m 589.63357,1665.0826 -1.84203,-0.4507 0.53744,-2.1966 1.84203,0.4507 -0.53744,2.1966 z"
           style="font-size:16.25px"
           id="path5033" />
        <path
           d="m 602.41099,1658.9092 -7.68452,10.7189 -1.55679,-0.3463 2.41398,-3.2509 -1.61495,-8.9999 1.58002,0.3515 1.22987,7.0041 4.10658,-5.8169 1.52581,0.3395 z"
           style="font-size:16.25px"
           id="path5035" />
        <path
           d="m 610.49905,1665.1665 -6.40992,-1.2474 q -0.15611,0.8022 -0.0314,1.4489 0.12625,0.639 0.47257,1.1024 0.33225,0.4527 0.84886,0.7472 0.52439,0.2961 1.1942,0.4264 0.88789,0.1728 1.85176,-0 0.97318,-0.1825 1.42151,-0.4509 l 0.0779,0.015 -0.3107,1.5966 q -0.80053,0.1676 -1.61251,0.2278 -0.81198,0.06 -1.66092,-0.105 -2.1652,-0.4213 -3.15286,-1.826 -0.98615,-1.4125 -0.56633,-3.5699 0.41528,-2.134 1.81977,-3.1622 1.41229,-1.0266 3.31267,-0.6568 1.7602,0.3426 2.51034,1.5556 0.75792,1.2145 0.38963,3.107 l -0.15459,0.7945 z m -1.20705,-1.3989 q 0.21652,-1.1542 -0.23706,-1.8973 -0.4458,-0.7415 -1.61407,-0.9688 -1.17606,-0.2289 -2.01191,0.3279 -0.82806,0.5583 -1.12158,1.5682 l 4.98462,0.97 z"
           style="font-size:16.25px"
           id="path5037" />
        <path
           d="m 613.39721,1670.0008 -1.4696,-0.2558 2.11702,-12.1633 1.46961,0.2558 -2.11703,12.1633 z"
           style="font-size:16.25px"
           id="path5039" />
        <path
           d="m 617.74979,1670.7203 -1.47272,-0.2373 1.96351,-12.189 1.47271,0.2372 -1.9635,12.1891 z"
           style="font-size:16.25px"
           id="path5041" />
        <path
           d="m 628.71182,1667.8426 q -0.30023,2.1452 -1.5741,3.2328 -1.27388,1.0876 -3.12051,0.8292 -1.86234,-0.2607 -2.7887,-1.6562 -0.9185,-1.3944 -0.61827,-3.5397 0.30023,-2.1452 1.56625,-3.2339 1.27498,-1.0954 3.13732,-0.8348 1.84663,0.2584 2.77189,1.6618 0.92636,1.3956 0.62612,3.5408 z m -1.52444,-0.2134 q 0.23864,-1.7052 -0.31382,-2.6237 -0.55135,-0.9264 -1.73791,-1.0925 -1.20227,-0.1683 -1.98677,0.5712 -0.77555,0.7327 -1.01419,2.4379 -0.23095,1.6502 0.31711,2.6002 0.54916,0.9421 1.74357,1.1093 1.1787,0.1649 1.9643,-0.5824 0.79456,-0.7541 1.02771,-2.42 z"
           style="font-size:16.25px"
           id="path5043" />
        <path
           d="m 642.41146,1664.8827 -3.22477,8.5722 -1.37302,-0.1446 -1.54898,-7.0327 -2.96462,6.5572 -1.36512,-0.1438 -1.39142,-9.0585 1.54662,0.1629 0.8986,6.996 2.9206,-6.5937 1.22309,0.1289 1.53776,7.0633 2.24988,-6.6643 1.49138,0.1571 z"
           style="font-size:16.25px"
           id="path5045" />
        <path
           d="m 656.53561,1674.679 -1.4889,-0.091 0.30893,-5.037 q 0.035,-0.5702 0.0121,-1.1042 -0.015,-0.5335 -0.16186,-0.8605 -0.16127,-0.3517 -0.49113,-0.5469 -0.32986,-0.1951 -0.97135,-0.2344 -0.62566,-0.038 -1.27074,0.24 -0.6446,0.2705 -1.29989,0.7152 0.0126,0.1836 0.0134,0.4301 0.001,0.2386 -0.0133,0.4762 l -0.3473,5.6626 -1.48891,-0.091 0.30893,-5.0369 q 0.036,-0.586 0.0126,-1.1121 -0.015,-0.5336 -0.16186,-0.8606 -0.16127,-0.3517 -0.49161,-0.5389 -0.32986,-0.1951 -0.97136,-0.2344 -0.60981,-0.037 -1.24601,0.2256 -0.62827,0.2636 -1.26675,0.6934 l -0.4051,6.605 -1.4889,-0.091 0.54256,-8.8463 1.48891,0.091 -0.0602,0.982 q 0.73239,-0.5354 1.44131,-0.8178 0.71685,-0.282 1.5009,-0.2339 0.90285,0.055 1.50519,0.4739 0.61026,0.419 0.87784,1.1111 0.94947,-0.7049 1.71432,-0.9919 0.76534,-0.2949 1.61275,-0.2429 1.45722,0.089 2.09183,1.0186 0.64302,0.9219 0.54587,2.5058 l -0.35216,5.7418 z"
           style="font-size:16.25px"
           id="path5047" />
        <path
           d="m 666.75463,1674.9001 -1.49136,-0.032 0.0211,-0.9837 q -0.76637,0.5788 -1.46333,0.8813 -0.69695,0.3025 -1.52989,0.2847 -1.39616,-0.03 -2.15537,-0.8954 -0.75903,-0.8735 -0.72365,-2.5235 l 0.12335,-5.7512 1.49135,0.032 -0.1082,5.0452 q -0.0145,0.6743 0.0386,1.1595 0.0533,0.4774 0.25219,0.8229 0.2067,0.3536 0.54441,0.5196 0.3377,0.166 0.98819,0.1799 0.57909,0.013 1.26777,-0.2744 0.69661,-0.2866 1.30161,-0.7419 l 0.14189,-6.6159 1.49135,0.032 -0.19003,8.8609 z"
           style="font-size:16.25px"
           id="path5049" />
        <path
           d="m 674.29245,1674.8014 q -0.42005,0.1129 -0.91962,0.1864 -0.49163,0.073 -0.88042,0.075 -1.3568,0.01 -2.0661,-0.7211 -0.7093,-0.727 -0.71621,-2.3377 l -0.0202,-4.7131 -1.00768,0 -0.005,-1.2536 1.00768,-0 -0.0109,-2.547 1.49169,-0.01 0.0109,2.547 3.07858,-0.013 0.005,1.2536 -3.07859,0.013 0.0173,4.0387 q 0.003,0.6982 0.0364,1.0948 0.0334,0.3887 0.2253,0.729 0.17592,0.3167 0.47807,0.4661 0.31006,0.1415 0.93689,0.1388 0.36498,-0 0.76127,-0.1064 0.39624,-0.1128 0.5705,-0.1849 l 0.0793,-4e-4 0.006,1.341 z"
           style="font-size:16.25px"
           id="path5051" />
        <path
           d="m 680.70042,1674.6535 q -0.41773,0.1212 -0.91574,0.2047 -0.49007,0.083 -0.87876,0.093 -1.35641,0.033 -2.08001,-0.6799 -0.7236,-0.7127 -0.76249,-2.323 l -0.1138,-4.7117 -1.0074,0.024 -0.0303,-1.2533 1.0074,-0.024 -0.0615,-2.5463 1.49127,-0.036 0.0615,2.5462 3.07772,-0.074 0.0303,1.2533 -3.07771,0.074 0.0975,4.0376 q 0.0169,0.698 0.0582,1.0938 0.0411,0.388 0.23973,0.7244 0.18217,0.3131 0.48724,0.4565 0.31281,0.1354 0.93945,0.1202 0.36489,-0.01 0.75901,-0.1215 0.39393,-0.1206 0.56672,-0.1962 l 0.0793,-0 0.0324,1.3405 z"
           style="font-size:16.25px"
           id="path5053" />
        <path
           d="m 690.07668,1669.7934 q 0.0553,1.1095 -0.21738,2.0128 -0.26479,0.903 -0.7657,1.5318 -0.53143,0.6541 -1.18922,1.0047 -0.65818,0.3427 -1.4665,0.383 -0.75285,0.038 -1.3246,-0.1167 -0.57135,-0.1463 -1.13318,-0.4201 l -0.0745,0.4168 -1.39475,0.07 -0.61507,-12.3309 1.48984,-0.074 0.21979,4.4062 q 0.60036,-0.5464 1.28945,-0.9065 0.6887,-0.368 1.56834,-0.4119 1.56909,-0.078 2.5326,1.0813 0.97142,1.1591 1.08092,3.3542 z m -1.53542,0.1163 q -0.0791,-1.5849 -0.64281,-2.3751 -0.56414,-0.7981 -1.72907,-0.74 -0.64983,0.032 -1.30127,0.3509 -0.65184,0.3106 -1.20029,0.7829 l 0.25299,5.0718 q 0.64821,0.2536 1.10545,0.3421 0.46517,0.088 1.04367,0.059 1.23626,-0.062 1.89331,-0.9048 0.66459,-0.8514 0.57802,-2.5869 z"
           style="font-size:16.25px"
           id="path5055" />
        <path
           d="m 697.58132,1666.4736 -0.0791,0.01 q -0.33834,-0.054 -0.65722,-0.061 -0.31157,-0.016 -0.73879,0.017 -0.68829,0.053 -1.30549,0.4103 -0.61781,0.3497 -1.17422,0.8778 l 0.48029,6.2737 -1.48734,0.1139 -0.67654,-8.8371 1.48735,-0.1138 0.0999,1.3053 q 0.83157,-0.7798 1.48163,-1.124 0.65737,-0.3528 1.36149,-0.4067 0.38766,-0.03 0.56353,-0.019 0.17526,0 0.5276,0.031 l 0.11689,1.5269 z"
           style="font-size:16.25px"
           id="path5057" />
        <path
           d="m 706.49199,1668.5483 -6.49604,0.6667 q 0.0834,0.813 0.3905,1.3956 0.30625,0.5748 0.77217,0.9178 0.44933,0.3368 1.02918,0.4687 0.58774,0.1311 1.26655,0.061 0.89982,-0.092 1.77107,-0.5407 0.87834,-0.457 1.22946,-0.844 l 0.0789,-0.01 0.16606,1.6181 q -0.71744,0.3927 -1.47699,0.686 -0.75955,0.2933 -1.61989,0.3816 -2.19429,0.2252 -3.54712,-0.8324 -1.35365,-1.0655 -1.57803,-3.2519 -0.22196,-2.1627 0.8237,-3.5542 1.05355,-1.3923 2.97947,-1.59 1.78384,-0.183 2.85373,0.76 1.07778,0.9423 1.27462,2.8603 l 0.0826,0.8051 z m -1.56109,-0.9884 q -0.12778,-1.1673 -0.77749,-1.7467 -0.64181,-0.5802 -1.82578,-0.4587 -1.19186,0.1223 -1.83014,0.8977 -0.63039,0.7746 -0.61818,1.8262 l 5.05159,-0.5185 z"
           style="font-size:16.25px"
           id="path5059" />
        <path
           d="m 719.00102,1662.2404 -1.06893,9.0962 -1.36751,0.1897 -3.19456,-6.4538 -1.30094,7.0776 -1.35966,0.1887 -3.52875,-8.4582 1.54042,-0.2138 2.55446,6.5747 1.24943,-7.1025 1.21819,-0.169 3.19106,6.4864 0.58139,-7.0099 1.4854,-0.2061 z"
           style="font-size:16.25px"
           id="path5061" />
        <path
           d="m 728.90769,1665.1487 -6.43241,1.1256 q 0.14088,0.805 0.48848,1.3644 0.34623,0.5516 0.8353,0.8607 0.47207,0.3041 1.05982,0.3945 0.59556,0.089 1.26772,-0.029 0.891,-0.1559 1.72828,-0.6649 0.84372,-0.5182 1.16651,-0.9291 l 0.0782,-0.014 0.28038,1.6023 q -0.6878,0.4426 -1.42463,0.789 -0.73684,0.3464 -1.58876,0.4955 -2.1728,0.3802 -3.59722,-0.5788 -1.42578,-0.9668 -1.80464,-3.1318 -0.37474,-2.1415 0.56961,-3.6037 0.95218,-1.4635 2.85923,-1.7972 1.76638,-0.3091 2.90044,0.5557 1.14188,0.8635 1.47423,2.7627 l 0.1395,0.7973 z m -1.62724,-0.8752 q -0.21023,-1.1554 -0.89938,-1.6873 -0.68134,-0.5332 -1.85371,-0.3281 -1.18019,0.2066 -1.76189,1.0253 -0.57388,0.8173 -0.48713,1.8654 l 5.00211,-0.8753 z"
           style="font-size:16.25px"
           id="path5063" />
        <path
           d="m 735.85661,1660.7325 -0.0778,0.016 q -0.34236,-0.012 -0.65976,0.019 -0.31119,0.022 -0.73124,0.1067 -0.67674,0.1362 -1.24576,0.5663 -0.57058,0.4224 -1.05849,1.0143 l 1.24138,6.1685 -1.46238,0.2943 -1.74857,-8.6887 1.46238,-0.2943 0.25829,1.2834 q 0.73032,-0.8754 1.33358,-1.2962 0.60948,-0.4303 1.30178,-0.5696 0.38115,-0.077 0.55697,-0.088 0.17427,-0.019 0.52748,-0.033 l 0.30213,1.5013 z"
           style="font-size:16.25px"
           id="path5065" />
        <path
           d="m 744.18175,1657.1846 -2.35453,12.9771 -1.55515,0.3536 0.78946,-3.9714 -5.31318,-7.4416 1.57836,-0.3589 4.11055,5.8028 1.22028,-7.015 1.52421,-0.3466 z"
           style="font-size:16.25px"
           id="path5067" />
        <path
           d="m 750.39969,1664.7448 -1.83892,0.4632 -0.55236,-2.1928 1.83892,-0.4632 0.55236,2.1928 z"
           style="font-size:16.25px"
           id="path5069" />
        <path
           d="m 759.93071,1661.6099 q -0.62471,0.5417 -1.22256,0.9116 -0.5902,0.3677 -1.31709,0.5673 -0.92582,0.2542 -1.77214,0.1986 -0.84842,-0.063 -1.55057,-0.463 -0.70981,-0.3975 -1.24695,-1.1551 -0.53714,-0.7577 -0.84594,-1.8824 -0.5756,-2.0965 0.2444,-3.6053 0.82765,-1.5108 2.71755,-2.0297 0.73454,-0.2016 1.49519,-0.1883 0.7683,0.011 1.43939,0.1479 l 0.43905,1.5991 -0.0765,0.021 q -0.79877,-0.332 -1.57833,-0.4142 -0.77191,-0.084 -1.43758,0.099 -1.22423,0.3361 -1.70893,1.3579 -0.47916,1.0119 -0.0422,2.6034 0.42434,1.5456 1.34195,2.1906 0.92316,0.6351 2.17799,0.2906 0.43613,-0.1197 0.85606,-0.3584 0.41992,-0.2388 0.72912,-0.5211 0.26959,-0.2468 0.49673,-0.4984 0.22503,-0.2593 0.35,-0.4335 l 0.0765,-0.021 0.43486,1.5839 z"
           style="font-size:16.25px"
           id="path5071" />
        <path
           d="m 767.86432,1655.1777 q 0.62895,2.0729 -0.07,3.595 -0.69898,1.5222 -2.48328,2.0636 -1.79948,0.546 -3.22647,-0.3311 -1.41939,-0.8794 -2.04834,-2.9522 -0.62894,-2.0728 0.0624,-3.5927 0.69668,-1.5298 2.49616,-2.0758 1.7843,-0.5414 3.21359,0.3433 1.42699,0.8771 2.05593,2.9499 z m -1.47299,0.447 q -0.49993,-1.6477 -1.38722,-2.2491 -0.88959,-0.609 -2.03609,-0.2611 -1.16169,0.3525 -1.56287,1.3531 -0.39589,0.9908 0.10404,2.6384 0.48381,1.5945 1.38031,2.2263 0.8942,0.6242 2.04829,0.274 1.13891,-0.3456 1.53779,-1.3538 0.40416,-1.0182 -0.0842,-2.6278 z"
           style="font-size:16.25px"
           id="path5073" />
        <path
           d="m 783.5991,1654.5367 -1.41071,0.4849 -1.64018,-4.7725 q -0.18568,-0.5402 -0.41099,-1.0249 -0.21781,-0.4873 -0.47854,-0.7333 -0.28348,-0.2633 -0.66288,-0.3175 -0.3794,-0.054 -0.9872,0.1547 -0.5928,0.2037 -1.08245,0.7076 -0.49222,0.4964 -0.9277,1.1578 0.0818,0.1649 0.17678,0.3923 0.0924,0.22 0.16974,0.4451 l 1.8439,5.3652 -1.41071,0.4848 -1.64017,-4.7724 q -0.19084,-0.5553 -0.41357,-1.0324 -0.21781,-0.4873 -0.47855,-0.7333 -0.28348,-0.2634 -0.6603,-0.3101 -0.37939,-0.054 -0.9872,0.1547 -0.57779,0.1986 -1.06509,0.6849 -0.47979,0.4837 -0.90543,1.125 l 2.1508,6.2582 -1.41071,0.4848 -2.88062,-8.3817 1.41071,-0.4848 0.31978,0.9304 q 0.47207,-0.7747 1.01917,-1.3067 0.5546,-0.5346 1.29747,-0.7899 0.85543,-0.294 1.57202,-0.1376 0.72409,0.1539 1.23594,0.6912 0.60786,-1.0144 1.2049,-1.572 0.59446,-0.5651 1.39737,-0.841 1.38069,-0.4745 2.32236,0.1415 0.94659,0.606 1.46236,2.1068 l 1.8697,5.4402 z"
           style="font-size:16.25px"
           id="path5075" />
      </g>
    </g>
  </g>
</svg>
